<svg width="18" height="19" viewBox="0 0 18 19" fill="none" xmlns="http://www.w3.org/2000/svg">
<path d="M15 9.12325C14.9362 11.5046 14.3938 13.7597 11.905 15.4916C11.1552 16.0088 10.4692 16.574 9.7353 17.1093C8.80999 17.7888 7.62943 17.9692 6.401 17.9993C5.67511 18.0173 5.34806 17.7046 5.5395 17.1574C5.67511 16.7905 5.84261 16.4237 6.0181 16.0629C7.05509 13.904 7.27844 11.673 7.05509 9.39987C6.85567 7.3733 6.01013 5.56923 4.03188 4.11997C3.56125 3.77118 2.77952 3.42841 3.05871 2.82705C3.35385 2.20164 4.27917 2.2257 5.00506 2.0934C5.69904 1.96711 6.40897 1.9611 7.07902 2.12347C10.4213 2.92327 13.1095 4.33044 14.5613 6.84411C14.984 7.57175 14.984 8.33547 14.992 9.11723L15 9.12325Z" fill="#56493F"/>
</svg>
