<svg width="110" height="150" viewBox="0 0 110 150" fill="none" xmlns="http://www.w3.org/2000/svg">
<path d="M21.8648 107.107C21.5248 107.073 21.2882 106.853 21.0457 106.65C20.7415 106.395 20.4552 106.119 20.155 105.861C19.7236 105.489 19.7216 105.352 20.1849 104.95C19.8151 104.872 19.5924 104.658 19.487 104.314C19.4493 104.193 19.326 104.127 19.2266 104.045C18.8787 103.765 18.9383 103.403 19.3578 103.254C19.6719 103.143 20.0059 103.101 20.3379 103.065C20.5049 103.047 20.652 103.101 20.7614 103.238C20.9184 103.437 20.8389 103.636 20.5626 103.745C20.2564 103.865 20.3061 103.859 20.3499 104.187C20.3996 104.564 20.6123 104.709 20.9304 104.805C21.994 105.125 22.8926 105.761 23.831 106.324C24.7972 106.902 25.7693 107.469 26.7315 108.053C27.7753 108.688 28.8051 109.344 29.8468 109.98C30.9423 110.652 32.0476 111.308 33.143 111.98C33.8051 112.385 34.4671 112.793 35.1192 113.216C35.6898 113.586 36.2941 113.91 36.8746 114.266C37.8607 114.87 38.8607 115.455 39.8309 116.085C40.4551 116.491 41.1033 116.863 41.7394 117.248C42.7295 117.851 43.7196 118.451 44.7076 119.055C45.803 119.723 46.8985 120.395 47.9919 121.065C48.2623 121.23 48.5426 121.383 48.803 121.562C49.9402 122.35 51.1629 122.998 52.3279 123.735C53.5207 124.491 54.7195 125.234 55.9104 125.99C56.2642 126.214 56.3338 126.375 56.2622 126.688C56.1907 127.006 55.9441 127.171 55.6261 127.099C55.471 127.065 55.3239 127.008 55.1867 126.922C53.5724 125.944 51.9501 124.978 50.3458 123.988C49.3358 123.363 48.3 122.783 47.2981 122.147C46.308 121.517 45.304 120.912 44.304 120.298C43.0078 119.503 41.7136 118.699 40.4214 117.896C39.0476 117.041 37.654 116.218 36.2742 115.375C35.0297 114.614 33.7892 113.843 32.5486 113.075C31.6182 112.501 30.6898 111.926 29.7594 111.352C28.7196 110.709 27.6898 110.053 26.6401 109.425C25.2783 108.61 23.9423 107.757 22.6023 106.91C22.4711 106.827 22.322 106.769 22.1749 106.698C22.0835 106.829 22.0019 106.942 21.9204 107.057C21.9025 107.075 21.8827 107.091 21.8608 107.107H21.8648Z" fill="#FFCA4B"/>
<path d="M90.7191 101.215C90.4427 101.25 90.2877 101.28 90.1306 101.286C89.9159 101.294 89.7628 101.177 89.6952 100.98C89.6316 100.793 89.7051 100.618 89.8662 100.523C90.236 100.306 90.6137 100.097 91.0411 100.018C91.2857 99.9741 91.5163 100.066 91.7171 100.201C91.9457 100.354 92.1803 100.473 92.4626 100.483C92.5918 100.487 92.7071 100.553 92.8125 100.626C92.9815 100.747 93.061 100.914 93.0133 101.123C92.9676 101.322 92.7708 101.467 92.5481 101.459C92.4387 101.455 92.3214 101.437 92.224 101.392C91.8781 101.233 91.6077 101.392 91.3473 101.584C91.2459 101.658 91.1863 101.789 91.057 101.825C90.9079 101.867 90.8662 101.958 90.8741 102.107C90.888 102.372 90.731 102.541 90.5302 102.696C88.7946 104.034 87.0491 105.36 85.3354 106.726C83.908 107.863 82.4467 108.96 81.0253 110.103C79.2559 111.527 77.4368 112.883 75.6515 114.282C74.2539 115.378 72.8563 116.475 71.4508 117.561C70.2062 118.521 68.9478 119.461 67.7013 120.419C66.5064 121.34 65.3255 122.28 64.1287 123.197C62.6675 124.318 61.1963 125.425 59.7271 126.535C59.5244 126.688 59.3315 126.855 59.091 126.948C58.912 127.018 58.743 127.01 58.6158 126.849C58.4926 126.692 58.5104 126.523 58.6059 126.358C58.6874 126.217 58.8166 126.123 58.9379 126.02C59.7311 125.336 60.576 124.714 61.3991 124.065C62.0611 123.545 62.7132 123.014 63.3752 122.493C64.4488 121.65 65.5263 120.813 66.5999 119.97C68.0611 118.823 69.5183 117.672 70.9796 116.527C72.1664 115.598 73.3613 114.678 74.5501 113.749C75.8782 112.714 77.1982 111.672 78.5283 110.642C79.5561 109.845 80.5978 109.064 81.6277 108.27C82.407 107.67 83.1783 107.056 83.9577 106.453C84.8006 105.803 85.6495 105.163 86.4924 104.513C87.5958 103.658 88.6952 102.797 89.7966 101.938C89.9954 101.783 90.1823 101.628 90.4725 101.638C90.7668 101.648 90.6097 101.396 90.723 101.211L90.7191 101.215Z" fill="#FFCA4B"/>
<path d="M91.3614 104.073C91.3614 104.435 91.1884 104.626 90.9877 104.783C89.3714 106.04 87.7312 107.268 86.1328 108.546C85.0791 109.387 84.0275 110.23 82.9678 111.063C82.1328 111.719 81.2919 112.37 80.4549 113.026C80.0434 113.35 79.6418 113.686 79.2302 114.01C78.5185 114.566 77.7989 115.111 77.0911 115.674C75.6259 116.837 74.1865 118.035 72.7015 119.171C71.4649 120.115 70.2482 121.083 69.0156 122.032C67.8844 122.902 66.7889 123.821 65.6657 124.699C64.5921 125.54 63.5007 126.36 62.4192 127.191C61.7273 127.721 61.0375 128.258 60.3417 128.785C60.1011 128.968 59.8546 129.141 59.5981 129.3C59.3198 129.473 59.0335 129.443 58.9122 129.254C58.8049 129.087 58.8725 128.815 59.0971 128.624C59.6896 128.121 60.286 127.622 60.8904 127.131C62.1826 126.079 63.4729 125.026 64.777 123.988C66.0057 123.01 67.2542 122.053 68.4887 121.081C69.6359 120.177 70.7691 119.256 71.9162 118.356C73.1011 117.425 74.2621 116.467 75.4768 115.572C76.1527 115.073 76.7829 114.513 77.4489 114C78.5921 113.117 79.6915 112.177 80.8525 111.316C81.5662 110.787 82.2521 110.218 82.944 109.662C83.8108 108.966 84.6915 108.29 85.5682 107.606C86.8704 106.592 88.1447 105.544 89.431 104.511C89.7411 104.262 90.0433 104.004 90.3634 103.769C90.5562 103.628 90.771 103.523 91.0294 103.63C91.266 103.727 91.3793 103.892 91.3634 104.071L91.3614 104.073Z" fill="#FFCA4B"/>
<path d="M23.6719 109.077C23.8627 109.099 23.9939 109.19 24.1311 109.27C25.6699 110.163 27.2146 111.045 28.7474 111.946C30.1967 112.799 31.6381 113.666 33.0774 114.536C33.986 115.087 34.8806 115.66 35.7891 116.212C37.2384 117.095 38.7116 117.94 40.139 118.858C41.1271 119.493 42.133 120.099 43.135 120.707C44.6976 121.652 46.2463 122.618 47.801 123.572C48.9382 124.27 50.0813 124.956 51.2026 125.679C52.5087 126.522 53.8447 127.32 55.1668 128.137C55.5982 128.405 56.0276 128.675 56.459 128.944C56.5823 129.019 56.6936 129.109 56.7791 129.226C56.8924 129.377 56.9461 129.548 56.8308 129.711C56.7135 129.878 56.5346 129.964 56.3318 129.91C56.1807 129.87 56.0356 129.793 55.9004 129.711C54.3636 128.789 52.8368 127.846 51.2901 126.94C49.6618 125.984 48.0595 124.982 46.4432 124.006C44.7175 122.964 42.9879 121.932 41.2782 120.862C40.0535 120.097 38.801 119.375 37.5665 118.624C36.5247 117.988 35.4929 117.334 34.4531 116.695C33.5188 116.123 32.5685 115.578 31.646 114.99C30.9243 114.528 30.1947 114.081 29.4651 113.632C28.5068 113.039 27.5526 112.437 26.6043 111.829C25.6142 111.194 24.6321 110.552 23.648 109.91C23.5427 109.841 23.4353 109.765 23.3538 109.672C23.2425 109.54 23.2226 109.383 23.32 109.228C23.4075 109.087 23.5486 109.071 23.6699 109.079L23.6719 109.077Z" fill="#FFCA4B"/>
<path d="M57.996 84.9881C57.9602 85.1173 58.0298 85.2306 58.0576 85.3539C58.1332 85.6879 57.9204 85.8807 57.5964 85.7873C57.5367 85.7694 57.4811 85.7376 57.4234 85.7077C57.3161 85.6541 57.2604 85.4791 57.1073 85.5407C56.9721 85.5944 56.8886 85.7197 56.7992 85.831C56.7892 85.8429 56.7773 85.8569 56.7733 85.8708C56.5606 86.7197 55.8032 86.9364 55.1451 87.2564C53.8747 87.8747 52.5964 88.4771 51.3181 89.0835C49.8986 89.7574 48.4732 90.4234 47.0557 91.1053C45.9543 91.6342 44.8628 92.1868 43.7615 92.7216C42.4613 93.3538 41.1571 93.9761 39.8549 94.6043C38.682 95.1709 37.515 95.7495 36.342 96.3121C34.0498 97.4115 31.7536 98.5009 29.4613 99.5983C27.5707 100.503 25.682 101.415 23.7933 102.324C23.2784 102.571 22.7596 102.813 22.2427 103.056C22.1989 103.075 22.1572 103.097 22.1134 103.115C21.8232 103.227 21.5926 103.171 21.4872 102.968C21.3798 102.759 21.4673 102.541 21.7516 102.39C22.1731 102.167 22.6025 101.96 23.0299 101.749C24.4991 101.03 25.9643 100.3 27.4434 99.6003C28.4474 99.1252 29.4275 98.6003 30.4454 98.153C31.4335 97.7176 32.3838 97.2027 33.3559 96.7335C35.5289 95.6799 37.7018 94.6302 39.8768 93.5825C41.68 92.7137 43.4851 91.8509 45.2863 90.9781C47.4453 89.9324 49.6004 88.8847 51.7555 87.831C53.0974 87.1749 54.4314 86.5069 55.7733 85.8529C56.1332 85.6779 56.3519 85.4175 56.3658 85.0179C56.3737 84.7972 56.495 84.7038 56.6739 84.6521C56.9026 84.5865 57.1332 84.5288 57.3658 84.4732C57.8469 84.3579 58.0139 84.493 57.994 84.9861L57.996 84.9881Z" fill="#FFCA4B"/>
<path d="M57.0515 87.815C57.0078 88.0218 56.8746 88.1888 56.6619 88.2922C56.0058 88.6142 55.3498 88.9363 54.6957 89.2604C53.9442 89.6361 53.1947 90.0158 52.4412 90.3916C51.0516 91.0874 49.6599 91.7832 48.2683 92.4771C47.2027 93.0099 46.1371 93.5427 45.0715 94.0735C43.7216 94.7454 42.3578 95.3876 41.0238 96.0894C39.1689 97.0655 37.2683 97.9462 35.4015 98.8965C33.5765 99.8249 31.7336 100.716 29.8946 101.616C27.9145 102.586 25.9284 103.549 23.9443 104.513C23.7873 104.588 23.6282 104.662 23.4632 104.72C23.1849 104.817 22.9662 104.759 22.8747 104.58C22.7853 104.407 22.8708 104.211 23.1252 104.028C23.2405 103.944 23.3638 103.871 23.491 103.805C25.4672 102.787 27.4393 101.763 29.4214 100.759C30.9642 99.978 32.5208 99.2245 34.0675 98.4512C35.2186 97.8766 36.3618 97.2882 37.5129 96.7136C39.1033 95.9184 40.6957 95.1291 42.2862 94.3359C44.7315 93.1192 47.1748 91.9005 49.6202 90.6858C51.1848 89.9085 52.7514 89.1391 54.316 88.3638C54.9561 88.0477 55.5903 87.7176 56.2325 87.4075C56.5625 87.2484 56.7832 87.2962 56.9581 87.5208C57.0197 87.5983 57.0575 87.6818 57.0496 87.8111L57.0515 87.815Z" fill="#FFCA4B"/>
<path d="M88.4332 100.348C88.2563 100.368 88.1072 100.294 87.97 100.225C87.0098 99.7296 86.0058 99.328 85.0317 98.8648C83.9004 98.324 82.7653 97.7952 81.6221 97.2803C80.2046 96.6441 78.8189 95.9344 77.4054 95.2843C76.6559 94.9404 75.8985 94.6143 75.151 94.2604C74.0894 93.7595 73.0277 93.2585 71.9621 92.7634C70.8548 92.2485 69.7434 91.7416 68.6381 91.2247C67.7912 90.8271 66.9502 90.4175 66.1073 90.012C64.9204 89.4414 63.7335 88.8728 62.5486 88.2963C61.4632 87.7694 60.3817 87.2346 59.3001 86.6979C59.1451 86.6203 58.998 86.5189 58.8628 86.4116C58.7117 86.2903 58.6719 86.1153 58.7435 85.9384C58.819 85.7535 58.99 85.68 59.1729 85.7118C59.3578 85.7436 59.5427 85.8072 59.7157 85.8827C60.8608 86.3937 61.994 86.9305 63.1451 87.4255C64.324 87.9324 65.481 88.4911 66.656 89.006C68.0933 89.6342 69.4969 90.34 70.9184 91.004C72.5844 91.7853 74.2563 92.5527 75.9204 93.338C77.0237 93.8589 78.1092 94.4175 79.2225 94.9205C79.9303 95.2406 80.6162 95.6044 81.3319 95.9145C82.4511 96.3996 83.5386 96.9563 84.638 97.4831C85.8984 98.0855 87.1569 98.6879 88.4173 99.2942C88.5306 99.3479 88.646 99.4075 88.7434 99.4851C88.9203 99.6242 88.9998 99.8032 88.9064 100.032C88.8169 100.252 88.6579 100.352 88.4352 100.344L88.4332 100.348Z" fill="#FFCA4B"/>
<path d="M59.2759 87.8546C59.4389 87.8605 59.5861 87.9222 59.7312 87.9858C61.0831 88.5802 62.435 89.1726 63.7829 89.775C65.26 90.4371 66.7332 91.107 68.2063 91.779C69.4051 92.3257 70.5979 92.8824 71.7948 93.4351C73.0194 93.9997 74.246 94.5603 75.4707 95.1269C76.9836 95.8267 78.4925 96.5305 80.0035 97.2303C81.6019 97.9698 83.2042 98.6994 84.8007 99.447C85.9935 100.006 87.1784 100.582 88.3673 101.153C88.4527 101.194 88.5362 101.242 88.6098 101.302C88.7649 101.427 88.7887 101.594 88.7351 101.775C88.6774 101.964 88.5442 102.061 88.3494 102.073C88.1525 102.085 87.9736 102.018 87.7987 101.938C86.4547 101.328 85.1128 100.713 83.7708 100.103C82.9339 99.7213 82.0929 99.3476 81.2559 98.9639C79.4826 98.1468 77.7152 97.3217 75.9419 96.5066C74.7172 95.944 73.4806 95.4052 72.258 94.8366C70.588 94.0613 68.926 93.27 67.262 92.4867C65.5244 91.6697 63.7848 90.8545 62.0493 90.0335C61.1884 89.6259 60.3316 89.2084 59.4747 88.7909C59.3197 88.7154 59.1686 88.62 59.0294 88.5146C58.8902 88.4092 58.8505 88.2502 58.8982 88.0852C58.9519 87.9043 59.1109 87.8665 59.2759 87.8506V87.8546Z" fill="#FFCA4B"/>
<path d="M49.6398 117.242C49.6219 116.582 49.8306 116.117 50.2104 115.723C50.8366 115.075 51.602 114.622 52.3893 114.208C53.6895 113.526 55.0911 113.196 56.5423 113.097C57.9837 113 59.427 112.952 60.8723 113C61.3356 113.016 61.7888 113.081 62.2063 113.304C62.7093 113.572 62.9737 114.214 62.7193 114.725C62.2143 115.741 61.5244 116.6 60.4549 117.073C59.7889 117.367 59.101 117.612 58.433 117.906C57.8386 118.167 57.26 118.463 56.6736 118.743C56.0155 119.059 55.3396 119.328 54.6378 119.534C54.5483 119.56 54.441 119.602 54.3595 119.576C53.7272 119.379 53.0632 119.554 52.4271 119.397C51.6994 119.216 50.9937 118.99 50.3734 118.554C49.8803 118.21 49.6318 117.741 49.6378 117.242H49.6398ZM53.7551 118.596C54.3714 118.564 55.0235 118.449 55.6278 118.133C56.0215 117.926 56.4131 117.721 56.8028 117.507C57.5821 117.077 58.3793 116.68 59.2103 116.369C59.598 116.224 59.9698 116.059 60.3296 115.862C60.8624 115.57 61.2362 115.121 61.5324 114.606C61.6974 114.318 61.6417 114.236 61.3157 114.139C61.0175 114.051 60.7153 114.117 60.4151 114.099C58.7471 114.004 57.0831 114.075 55.431 114.312C54.3356 114.469 53.3157 114.876 52.3694 115.439C51.8823 115.727 51.3813 116.016 50.9917 116.447C50.5622 116.92 50.6279 117.517 51.1726 117.854C51.9459 118.334 52.7909 118.574 53.7571 118.596H53.7551Z" fill="#FFCA4B"/>
<path d="M44.3754 113.586C43.8446 113.61 43.3655 113.469 42.9619 113.123C42.3913 112.632 42.2581 111.942 42.7869 111.421C43.4509 110.765 43.9281 109.98 44.4887 109.254C45.4688 107.984 46.4609 106.727 47.4807 105.491C47.6915 105.236 47.8585 104.94 48.1666 104.773C48.5682 104.557 48.7253 104.568 49.0632 104.869C49.2422 105.026 49.4191 105.187 49.604 105.334C50.4907 106.04 50.8485 107.018 50.9062 108.089C50.942 108.737 50.6855 109.362 50.3754 109.944C50.0354 110.582 49.5682 111.121 49.0632 111.626C48.8426 111.849 48.6497 112.091 48.3952 112.292C47.6974 112.847 46.8485 113 46.0493 113.282C45.5106 113.473 44.942 113.533 44.3754 113.584V113.586ZM49.767 107.795C49.763 107.716 49.767 107.636 49.7531 107.557C49.6557 106.964 49.4449 106.423 49.0374 105.974C48.7869 105.7 48.7292 105.698 48.4827 105.968C48.268 106.203 48.0632 106.445 47.8624 106.69C46.5821 108.248 45.3058 109.807 44.0255 111.366C43.9142 111.501 43.769 111.614 43.8764 111.821C43.9738 112.01 44.1269 112.097 44.3336 112.111C44.5444 112.123 44.7452 112.081 44.946 112.03C45.2382 111.956 45.5245 111.859 45.8187 111.793C46.5762 111.626 47.2939 111.413 47.9042 110.873C48.6636 110.197 49.3098 109.463 49.6636 108.497C49.7471 108.27 49.7988 108.04 49.767 107.797V107.795Z" fill="#FFCA4B"/>
<path d="M34.5726 108.815C33.8808 108.811 33.2008 108.74 32.6203 108.32C32.0915 107.938 31.7257 107.42 31.5507 106.795C31.4016 106.262 31.674 105.809 32.2088 105.656C32.5825 105.549 32.835 105.278 33.1094 105.05C34.338 104.024 35.5766 103.006 36.7575 101.923C37.1253 101.585 37.4811 101.227 37.9682 101.018C38.5626 100.764 39.0179 100.811 39.5606 101.35C39.9185 101.706 40.2048 102.123 40.3599 102.626C40.4771 103.006 40.5765 103.388 40.668 103.773C40.8907 104.712 40.5845 105.495 39.9404 106.165C39.6004 106.519 39.2505 106.861 38.8668 107.171C38.0418 107.837 37.1054 108.298 36.1253 108.66C35.6362 108.841 35.0955 108.827 34.5706 108.813L34.5726 108.815ZM34.6283 107.427C34.9304 107.459 35.2346 107.471 35.5269 107.38C36.9563 106.938 38.2605 106.29 39.2505 105.119C39.5567 104.758 39.7416 104.39 39.6044 103.905C39.5567 103.738 39.5567 103.559 39.5209 103.388C39.4115 102.851 39.2008 102.36 38.8509 101.934C38.7117 101.765 38.5726 101.756 38.4076 101.905C38.0776 102.203 37.7495 102.501 37.4056 102.781C36.336 103.654 35.2625 104.523 34.1869 105.386C33.8271 105.674 33.4513 105.94 33.0835 106.217C32.9802 106.294 32.8489 106.39 32.9324 106.525C33.1949 106.958 33.4454 107.422 34.0557 107.426C34.2466 107.426 34.4374 107.426 34.6263 107.426L34.6283 107.427Z" fill="#FFCA4B"/>
<path d="M58.0196 90.0852C58.8367 90.0971 59.4092 90.2323 59.9878 90.3078C61.1587 90.4569 62.0295 91.1547 62.8883 91.8406C63.6875 92.4788 64.0176 93.3834 63.9639 94.4172C63.942 94.8247 63.6875 95.117 63.5046 95.445C63.441 95.5563 63.2879 95.5742 63.1587 95.5603C62.9698 95.5404 62.779 95.5245 62.5941 95.4808C60.7214 95.0494 58.8764 94.5225 57.0275 93.9997C56.1568 93.7531 55.28 93.5384 54.3933 93.3555C54.3317 93.3436 54.2681 93.3337 54.2065 93.3158C54.0196 93.2601 53.8347 93.1905 53.8049 92.9639C53.777 92.7551 53.9142 92.6418 54.0852 92.5702C54.2144 92.5166 54.282 92.4211 54.3397 92.3038C54.6081 91.7532 55.0812 91.3993 55.5663 91.0653C55.9182 90.8227 56.3059 90.6359 56.6915 90.445C57.1866 90.2005 57.6995 90.0593 58.0235 90.0832L58.0196 90.0852ZM55.2184 92.6021C55.4371 92.6677 55.5703 92.7233 55.7094 92.7492C57.2422 93.0275 58.7373 93.4649 60.2581 93.7969C60.8943 93.936 61.5106 94.1508 62.1249 94.3615C62.612 94.5285 62.6716 94.4967 62.612 93.9857C62.5941 93.8386 62.5364 93.7174 62.4669 93.5881C62.1349 92.9758 61.5881 92.5941 61.0215 92.2402C60.4072 91.8565 59.7035 91.7333 59.0136 91.5484C57.948 91.2621 57.0037 91.5225 56.0713 91.9718C55.777 92.113 55.5067 92.3078 55.2184 92.604V92.6021Z" fill="#FFCA4B"/>
<path d="M75.3713 98.8765C75.9797 98.8984 76.7312 99.0237 77.4191 99.3676C77.757 99.5366 78.1188 99.6539 78.4608 99.8089C79.0771 100.089 79.5344 100.533 80.0055 100.972C80.5801 101.509 80.8723 102.209 81.0512 102.962C81.1944 103.566 81.0314 104.107 80.7988 104.666C80.584 105.185 80.2938 105.65 79.9896 106.113C79.8167 106.378 79.6357 106.441 79.3435 106.312C79.1864 106.242 79.0453 106.135 78.9021 106.036C78.1566 105.519 77.5383 104.853 76.8365 104.28C76.2083 103.767 75.5244 103.338 74.8346 102.914C74.0214 102.415 73.2461 101.869 72.5284 101.238C72.3495 101.081 72.1785 100.914 72.0473 100.714C71.773 100.298 71.8425 99.9879 72.258 99.7036C72.4986 99.5386 72.7789 99.471 73.0453 99.3736C73.7451 99.1171 74.4489 98.8706 75.3674 98.8746L75.3713 98.8765ZM73.1527 100.449C73.1726 100.632 73.2899 100.696 73.3893 100.767C73.8266 101.083 74.258 101.409 74.7093 101.704C75.6914 102.346 76.7133 102.934 77.5861 103.729C78.0195 104.125 78.4409 104.535 78.8684 104.938C79.1149 105.171 79.1725 105.173 79.3157 104.879C79.4688 104.566 79.5821 104.234 79.7332 103.92C79.8604 103.654 79.8246 103.387 79.753 103.129C79.5522 102.397 79.097 101.835 78.4926 101.395C77.7709 100.869 76.9618 100.537 76.1109 100.246C75.0612 99.8885 74.1248 100.179 73.1527 100.449V100.449Z" fill="#FFCA4B"/>
<path d="M67.0118 108.288C67.8766 108.32 68.7195 108.767 69.4332 109.463C69.7891 109.811 69.972 110.288 70.133 110.749C70.467 111.711 70.5465 112.703 70.3338 113.703C70.1509 114.566 69.6619 115.268 69.1072 115.932C68.3676 116.815 67.3855 117.338 66.3338 117.703C65.5386 117.982 64.9223 117.552 64.9263 116.63C64.9283 116.185 65.0177 115.729 65.2066 115.334C65.4472 114.827 65.5068 114.296 65.5505 113.763C65.6579 112.481 65.8448 111.208 65.9839 109.93C66.0177 109.63 66.0456 109.33 66.0575 109.03C66.0814 108.465 66.2981 108.256 67.0118 108.286V108.288ZM66.2483 116.326C66.9044 115.918 67.5644 115.715 68.0356 115.189C68.3537 114.833 68.6221 114.441 68.9004 114.057C68.9899 113.934 69.0475 113.769 69.0674 113.616C69.1807 112.753 69.2762 111.9 69.0495 111.028C68.8249 110.165 67.9601 109.306 67.0853 109.198C66.8169 109.165 66.7653 109.193 66.7672 109.461C66.7712 110.525 66.6599 111.58 66.5684 112.638C66.4631 113.833 66.4889 115.037 66.2503 116.328L66.2483 116.326Z" fill="#FFCA4B"/>
<path d="M46.0416 102.038C45.2424 102.04 44.636 101.958 44.0813 101.636C43.5624 101.334 43.1748 100.891 42.809 100.432C42.6161 100.191 42.6042 99.8272 43.0436 99.684C43.4829 99.5409 43.8328 99.2168 44.2265 98.9822C45.2086 98.3957 46.1191 97.6999 47.1171 97.1353C48.0992 96.5787 49.1052 96.0737 50.131 95.6025C50.5087 95.4296 50.8905 95.2844 51.294 95.193C51.4153 95.1651 51.5485 95.1433 51.6698 95.1592C51.9859 95.2009 52.1469 95.5091 51.9481 95.7496C51.801 95.9266 51.8169 96.0677 51.8527 96.2606C51.9282 96.6721 51.9024 97.0816 51.7692 97.4832C51.6399 97.8749 51.5823 98.2884 51.4073 98.6661C51.1747 99.1671 50.8209 99.5687 50.3974 99.9146C49.5744 100.583 48.7851 101.296 47.7831 101.712C47.1648 101.968 46.5207 102 46.0416 102.038V102.038ZM45.2762 100.974C46.2503 100.929 47.3239 100.785 47.96 100.278C48.2702 100.032 48.5644 99.7675 48.8765 99.521C49.3219 99.1671 49.7612 98.8272 50.1032 98.348C50.4471 97.8689 50.4829 97.3142 50.6539 96.7954C50.7075 96.6343 50.5863 96.521 50.4054 96.5468C50.298 96.5628 50.1887 96.5965 50.0873 96.6423C49.6698 96.8331 49.2523 97.024 48.8368 97.2248C47.1628 98.0339 45.63 99.0876 44.0277 100.02C43.7473 100.183 43.7434 100.261 43.9859 100.465C44.4153 100.831 44.9123 101.006 45.2762 100.976V100.974Z" fill="#FFCA4B"/>
<path d="M61.0079 105.151C60.8469 106.062 60.6898 106.926 60.0874 107.634C59.9403 107.807 59.7773 107.95 59.5805 108.06C58.7952 108.493 57.9622 108.791 57.0695 108.907C56.7097 108.952 56.3697 109.078 55.996 109.079C55.4831 109.079 54.8687 108.531 54.7415 108.183C54.654 107.938 54.7256 107.718 54.8429 107.499C55.4532 106.35 56.0695 105.205 56.662 104.048C56.8707 103.64 57.0198 103.199 57.1829 102.769C57.4771 101.988 57.99 101.742 58.7594 102.054C59.495 102.352 60.1451 102.781 60.5248 103.505C60.7972 104.026 60.9184 104.602 61.0099 105.153L61.0079 105.151ZM59.6441 104.676C59.652 104.135 59.485 103.749 59.1968 103.414C58.9661 103.145 58.6799 102.944 58.3777 102.767C58.1451 102.63 58.0874 102.642 58.0039 102.911C57.5765 104.282 56.9184 105.551 56.2823 106.829C56.2266 106.942 56.1829 107.064 56.1471 107.185C56.0994 107.348 56.1769 107.459 56.3379 107.408C56.8827 107.229 57.4771 107.28 58.0059 107.066C58.3618 106.922 58.7475 106.819 59.0178 106.487C59.4731 105.926 59.6143 105.278 59.6461 104.674L59.6441 104.676Z" fill="#FFCA4B"/>
<path d="M69.1149 102.111C69.5464 102.129 70.0951 102.344 70.6557 102.513C71.5841 102.789 72.3038 103.374 72.9479 104.066C73.2779 104.421 73.4171 104.885 73.6477 105.296C74.1269 106.155 73.763 107.435 73.0831 108.028C72.6457 108.41 72.0096 108.481 71.5006 108.209C70.767 107.815 70.1467 107.272 69.5145 106.746C68.4788 105.881 67.3933 105.083 66.272 104.336C66.0136 104.163 65.9698 103.907 66.1448 103.584C66.3396 103.221 66.6756 102.996 66.9977 102.771C67.5802 102.366 68.2263 102.113 69.1149 102.113V102.111ZM68.7153 103.109C68.3177 103.109 67.7889 103.302 67.28 103.63C66.942 103.849 66.94 103.897 67.2641 104.113C67.3038 104.139 67.3436 104.167 67.3833 104.191C68.2104 104.668 68.9837 105.225 69.7432 105.801C70.3634 106.272 70.9758 106.749 71.598 107.217C71.9658 107.493 72.0632 107.485 72.3356 107.117C72.5921 106.771 72.6974 106.378 72.5682 105.948C72.3992 105.386 72.0493 104.936 71.6557 104.515C71.0354 103.849 70.1865 103.592 69.3853 103.252C69.1686 103.161 68.934 103.093 68.7114 103.105L68.7153 103.109Z" fill="#FFCA4B"/>
<path d="M58.8828 96.837C60.1373 96.9165 61.3083 97.2466 62.3341 98.014C62.6383 98.2426 62.9643 98.4394 63.2486 98.6979C63.6323 99.0458 63.9106 99.4633 64.1035 99.9424C64.3977 100.672 63.9087 101.427 63.4514 101.787C63.2566 101.942 63.018 101.978 62.7973 101.781C62.5528 101.563 62.2267 101.507 61.9345 101.392C60.7099 100.905 59.527 100.326 58.3301 99.7734C57.7258 99.4951 57.1095 99.2307 56.4614 99.0696C56.0836 98.9762 55.7576 98.7953 55.4494 98.5726C55.2148 98.4016 55.1989 98.167 55.4117 97.9702C55.515 97.8748 55.6363 97.7933 55.7576 97.7197C56.7158 97.1432 57.7417 96.8052 58.8788 96.837H58.8828ZM56.5687 98.3301C56.9107 98.4334 57.1632 98.507 57.4136 98.5885C58.7297 99.0159 59.9703 99.6263 61.2427 100.159C61.682 100.342 62.1134 100.541 62.5508 100.728C62.6641 100.775 62.7973 100.853 62.9087 100.754C63.0279 100.648 63.01 100.493 62.9683 100.352C62.9464 100.278 62.9007 100.209 62.8609 100.141C62.7556 99.9623 62.6124 99.8132 62.4613 99.672C62.0319 99.2704 61.5607 98.9364 61.0339 98.6601C60.1274 98.1869 59.183 97.9026 58.1631 97.9563C57.6542 97.9841 57.1353 98.0557 56.5667 98.3301H56.5687Z" fill="#FFCA4B"/>
<path d="M57.4989 128.256C57.6003 128.069 57.5506 127.874 57.5784 127.695C57.6182 127.453 57.7275 127.278 57.98 127.228C58.1907 127.186 58.3716 127.302 58.5009 127.552C58.6221 127.787 58.6639 128.035 58.5923 128.288C58.5128 128.566 58.477 128.842 58.5148 129.131C58.5287 129.238 58.5148 129.353 58.4949 129.461C58.4233 129.811 58.2623 129.954 57.9243 129.986C57.4114 130.033 57.2822 129.974 57.1152 129.602C57.0496 129.459 56.9919 129.31 56.9362 129.162C56.7891 128.777 56.64 128.393 56.2981 128.125C56.1589 128.015 56.1092 127.87 56.2007 127.705C56.304 127.518 56.4671 127.508 56.652 127.566C56.8547 127.63 57.0118 127.757 57.1629 127.902C57.2742 128.007 57.3299 128.166 57.4969 128.258L57.4989 128.256Z" fill="#FFCA4B"/>
<path d="M54.1014 79.2327C53.5746 79.2407 53.2227 78.9266 53.2207 78.4435C53.2187 78.0339 53.6998 77.6085 54.169 77.6045C54.5746 77.6005 54.8648 77.9604 54.8628 78.4614C54.8609 78.9663 54.6024 79.2268 54.1014 79.2347V79.2327Z" fill="#FFCA4B"/>
<path d="M76.0136 81.7656C76.0036 82.0101 75.9201 82.3043 75.5941 82.4674C75.2581 82.6363 74.9619 82.533 74.8247 82.1831C74.6975 81.857 74.6875 81.4992 74.6677 81.1592C74.6458 80.7795 75.1627 80.5628 75.5364 80.7596C75.8486 80.9246 76.0195 81.2507 76.0116 81.7656H76.0136Z" fill="#FFCA4B"/>
<path d="M57.4726 87.7674C57.4845 87.3579 57.562 86.9364 57.6455 86.5169C57.6873 86.3062 57.7608 86.1074 58.0272 86.1094C58.2101 86.1114 58.3553 86.3042 58.3334 86.5746C58.2896 87.1273 58.2221 87.678 58.1525 88.2267C58.1405 88.3161 58.0928 88.4096 58.0352 88.4811C57.8682 88.6959 57.6177 88.6541 57.5163 88.3977C57.4388 88.2008 57.4785 87.9901 57.4706 87.7654L57.4726 87.7674Z" fill="#FFCA4B"/>
<path d="M60.2879 71.9026C60.282 72.2465 60.0076 72.4394 59.5384 72.4314C59.1408 72.4254 58.8843 72.171 58.8824 71.7813C58.8784 71.3757 59.2601 71 59.6716 71C60.0493 71 60.2998 71.3638 60.2899 71.9006L60.2879 71.9026Z" fill="#FFCA4B"/>
<path d="M63.4111 84.4394C63.4012 84.9463 63.0036 85.338 62.5443 85.2943C62.1825 85.2605 61.9797 84.9961 62.0552 84.6362C62.1129 84.3638 62.268 84.1471 62.4847 83.9722C62.6696 83.8231 62.8863 83.7475 63.101 83.845C63.3375 83.9523 63.4151 84.1829 63.4111 84.4374V84.4394Z" fill="#FFCA4B"/>
<path d="M73.6063 74.0318C73.6043 74.3061 73.4214 74.5487 73.155 74.6302C72.8905 74.7097 72.6679 74.6342 72.4969 74.3896C72.3379 74.161 72.2762 73.8986 72.3021 73.6262C72.3359 73.2604 72.6679 73.0894 72.99 73.2545C73.3717 73.4493 73.6082 73.7495 73.6063 74.0318V74.0318Z" fill="#FFCA4B"/>
<path d="M21.9243 107.058C22.2265 107.034 22.475 107.139 22.6937 107.348C22.8647 107.511 23.0595 107.648 23.2424 107.797C23.3657 107.898 23.477 108.008 23.5128 108.173C23.5685 108.437 23.3816 108.646 23.1112 108.61C22.984 108.592 22.8667 108.541 22.7732 108.453C22.4969 108.195 22.2265 107.93 21.9541 107.668C21.7812 107.503 21.7752 107.31 21.8667 107.105C21.8865 107.089 21.9064 107.073 21.9263 107.056L21.9243 107.058Z" fill="#FFCA4B"/>
<path d="M54.0376 102.079C54.0317 101.7 54.2384 101.459 54.5844 101.443C54.9044 101.429 55.2404 101.746 55.2384 102.062C55.2384 102.398 54.9064 102.726 54.5625 102.734C54.2464 102.74 54.0416 102.485 54.0356 102.079H54.0376Z" fill="#FFCA4B"/>
<path d="M47.9878 86.7832C47.9699 86.8826 47.9639 86.9959 47.9281 87.0993C47.8585 87.2981 47.6955 87.3816 47.5166 87.2861C47.1826 87.1092 46.9381 86.8368 46.8645 86.4571C46.8228 86.2444 46.8923 86.0396 47.115 85.9462C47.3317 85.8567 47.5226 85.9184 47.6597 86.1052C47.8088 86.306 47.9838 86.4989 47.9858 86.7832H47.9878Z" fill="#FFCA4B"/>
<path d="M41.3654 82.129C41.3574 82.2801 41.3316 82.4193 41.26 82.5465C41.1288 82.7831 40.8664 82.8348 40.6656 82.6499C40.4588 82.461 40.3574 82.2105 40.3574 81.9322C40.3574 81.7314 40.4727 81.5724 40.6576 81.4889C40.8584 81.3994 41.0234 81.4849 41.1705 81.6221C41.3216 81.7612 41.3515 81.9461 41.3634 82.129H41.3654Z" fill="#FFCA4B"/>
<path d="M65.751 98.6997C66.0234 98.6997 66.256 98.9045 66.2599 99.151C66.2659 99.4691 65.924 99.9045 65.6695 99.9045C65.415 99.9045 65.1764 99.65 65.1725 99.3757C65.1665 98.9999 65.423 98.7017 65.751 98.6997Z" fill="#FFCA4B"/>
<path d="M67.2899 95.0855C67.2979 95.4474 67.0474 95.7933 66.7889 95.7794C66.5404 95.7654 66.3237 95.4493 66.3237 95.0994C66.3237 94.7595 66.5365 94.509 66.8148 94.5209C67.0573 94.5328 67.284 94.8012 67.2919 95.0835L67.2899 95.0855Z" fill="#FFCA4B"/>
<path d="M66.9858 79.9782C66.9858 79.666 67.288 79.3599 67.5922 79.3678C67.8248 79.3738 68.0733 79.6322 68.0713 79.8688C68.0693 80.177 67.7214 80.5229 67.4252 80.513C67.1946 80.505 66.9878 80.2525 66.9858 79.9801V79.9782Z" fill="#FFCA4B"/>
<path d="M46.8624 95.4986C46.5881 95.4947 46.429 95.3356 46.4211 95.0573C46.4131 94.769 46.6974 94.4927 47.0016 94.4927C47.2839 94.4927 47.5582 94.7551 47.5562 95.0255C47.5543 95.3197 47.2839 95.5046 46.8624 95.4986Z" fill="#FFCA4B"/>
<path d="M56.7971 115.163C57.0436 115.163 57.2305 115.167 57.4134 115.238C57.9163 115.433 58.0237 115.966 57.6261 116.336C57.4352 116.513 57.1947 116.602 56.9402 116.638C56.2046 116.743 55.469 116.845 54.7334 116.942C54.5326 116.968 54.3517 116.93 54.2563 116.721C54.1688 116.532 54.2285 116.204 54.3835 116.057C54.4392 116.004 54.5108 115.962 54.5804 115.928C55.0893 115.674 55.6102 115.441 56.1509 115.264C56.3776 115.191 56.6122 115.153 56.7951 115.163H56.7971Z" fill="#FFCA4B"/>
<path d="M59.4965 22.1997C59.3265 27.3297 57.9865 31.8997 53.3865 34.9497C52.6565 35.4297 52.0265 36.0597 51.3165 36.5697C49.5565 37.8197 47.8065 37.2097 47.4765 35.1297C46.6765 30.0897 45.9665 25.0297 45.2565 19.9697C44.8265 16.9697 44.4465 13.9597 44.0665 10.9497C43.8465 9.22974 44.1165 8.88974 45.7265 8.32974C48.5965 7.33974 50.8865 8.75974 53.0765 10.1997C56.3565 12.3597 57.9965 15.7497 59.3365 19.3097C59.6965 20.2597 59.2565 21.2097 59.5065 22.1997H59.4965Z" fill="#FFCA4B"/>
<g clip-path="url(#clip0_170_2340)">
<path d="M96.5665 71.0783C96.5146 72.1323 96.6857 73.2595 97.0047 74.3829C97.2699 75.3175 97.2949 76.2925 97.168 77.2675C97.0431 78.2271 96.7779 79.1674 96.8067 80.1463C96.8317 81.0231 96.7376 81.894 96.6665 82.7669C96.6242 83.2756 96.6934 83.7882 96.7818 84.2834C96.8567 84.6977 97.0489 85.1062 97.2584 85.4761C97.8118 86.455 97.8695 87.4955 97.6965 88.5669C97.6274 88.9908 97.4967 89.4051 97.4025 89.8271C97.1873 90.7886 97.293 91.727 97.6485 92.6365C97.883 93.2377 97.9348 93.8505 97.9118 94.4921C97.8945 94.9816 97.8868 95.4749 97.8637 95.9662C97.7792 97.9182 97.7023 99.8721 97.5562 101.82C97.4602 103.105 97.3737 104.393 97.1584 105.67C97.0239 106.464 96.7529 107.216 96.5953 107.998C96.5089 108.422 96.4589 108.848 96.4051 109.272C96.2936 110.158 96.1264 111.033 95.9477 111.908C95.8766 112.252 95.8535 112.609 95.8266 112.962C95.7959 113.372 96.0226 113.692 96.2206 114.023C96.5031 114.497 96.8394 114.948 96.9989 115.484C97.1431 115.968 97.2411 116.465 97.3391 116.96C97.4505 117.521 97.6466 118.054 97.8291 118.592C98.0021 119.101 98.0059 119.621 97.9925 120.141C97.9714 120.897 97.8311 121.64 97.6639 122.374C97.4871 123.147 97.4678 123.93 97.4755 124.712C97.4909 126.203 97.512 127.697 97.4794 129.188C97.4582 130.113 97.2949 131.021 96.9778 131.891C96.7818 132.429 96.801 132.932 97.0508 133.446C97.3871 134.138 97.3525 134.88 97.2891 135.618C97.2026 136.628 97.0008 137.626 96.9586 138.64C96.9278 139.41 97.0374 140.173 97.1853 140.929C97.2622 141.32 97.3295 141.715 97.4044 142.106C97.4486 142.335 97.3583 142.536 97.2622 142.725C97.1623 142.923 96.6453 143 96.3801 142.875C96.3397 142.856 96.2936 142.834 96.2648 142.8C95.9189 142.399 95.4788 142.378 95.0022 142.472C94.6582 142.542 94.3122 142.59 93.974 142.705C93.1034 143.002 92.2252 143.295 91.32 143.439C90.5993 143.555 89.8575 143.561 89.1522 143.253C88.6891 143.05 88.2163 142.879 87.7666 142.634C87.1651 142.31 86.4828 142.331 85.8256 142.401C84.8339 142.507 83.8519 142.698 82.8602 142.792C81.6034 142.913 80.385 143.243 79.1358 143.389C78.4555 143.468 77.7675 143.538 77.0737 143.451C76.4664 143.376 75.8534 143.351 75.2422 143.303C75.2115 143.301 75.1807 143.303 75.15 143.297C73.9738 143.114 72.8015 143.216 71.6254 143.305C71.1699 143.339 70.7029 143.299 70.2455 143.254C68.9983 143.129 67.7568 142.942 66.5019 142.883C65.8408 142.852 65.1835 142.898 64.5263 142.931C63.4366 142.985 62.3661 143.195 61.2976 143.397C60.8902 143.474 60.5039 143.621 60.0946 143.703C59.2624 143.869 58.4245 143.933 57.5789 143.952C57.4713 143.954 57.3618 143.954 57.258 143.937C56.3375 143.786 55.4035 143.786 54.4791 143.619C53.547 143.451 52.5919 143.414 51.6367 143.414C50.8257 143.414 50.0128 143.414 49.2057 143.306C48.189 143.172 47.1743 143.016 46.15 142.965C45.6484 142.94 45.141 143.008 44.6375 143.019C43.7324 143.041 42.831 143.112 41.9374 143.249C41.2859 143.349 40.6325 143.411 39.9752 143.426C39.4102 143.439 38.8433 143.43 38.2783 143.488C37.1809 143.599 36.0874 143.727 34.9901 143.834C34.502 143.883 34.01 143.775 33.5218 143.85C32.9914 143.931 32.4552 143.86 31.9191 143.929C30.9562 144.054 29.9915 143.981 29.0306 143.85C28.0562 143.717 27.08 143.684 26.096 143.688C25.1793 143.692 24.2607 143.651 23.369 143.353C22.4772 143.056 21.5509 143.112 20.6342 143.216C20.0269 143.285 19.4408 143.191 18.8662 143.025C18.5664 142.938 18.2627 142.865 17.9629 142.883C17.4402 142.911 16.9982 142.723 16.5735 142.472C16.1372 142.218 15.7413 141.908 15.2474 141.744C14.7804 141.59 14.6248 141.166 14.7727 140.69C14.9457 140.133 15.0956 139.57 15.2282 139.002C15.2763 138.794 15.2474 138.647 15.1129 138.499C14.938 138.304 14.7689 138.104 14.5979 137.907C14.3269 137.593 14.1789 137.231 14.1712 136.813C14.1578 135.917 14.2154 135.032 14.4191 134.152C14.569 133.5 14.5018 132.843 14.3519 132.188C14.2366 131.681 14.1424 131.167 14.2346 130.637C14.3288 130.09 14.325 129.533 14.3596 128.98C14.4287 127.828 14.5229 126.679 14.6017 125.527C14.6344 125.053 14.5902 124.573 14.5556 124.097C14.4499 122.617 14.5844 121.145 14.6728 119.673C14.7574 118.289 14.9765 116.921 15.159 115.549C15.2244 115.052 15.1686 114.547 15.0956 114.041C14.9649 113.137 14.6882 112.274 14.496 111.387C14.4057 110.971 14.4038 110.536 14.4441 110.104C14.571 108.74 14.717 107.377 14.8073 106.011C14.8688 105.057 15.0034 104.115 15.1167 103.169C15.2455 102.1 15.4127 101.036 15.405 99.9549C15.3973 98.847 15.3147 97.7409 15.282 96.6349C15.2417 95.2205 15.1398 93.81 15.1264 92.3957C15.1206 91.6866 15.2167 90.9832 15.2167 90.2741C15.2167 88.7326 15.1148 87.2026 14.9034 85.6727C14.7881 84.8364 14.6363 84.0021 14.5594 83.1581C14.5056 82.5761 14.348 82.0096 14.3423 81.42C14.3288 80.1868 14.4345 78.9632 14.5883 77.7377C14.6901 76.9303 14.7285 76.1152 14.7266 75.2982C14.7266 74.5448 14.7478 73.7914 14.7324 73.036C14.7112 72.0591 14.5883 71.1072 14.2231 70.1958C14.0828 69.8489 14.0194 69.479 14.0098 69.1128C13.9887 68.1899 13.9848 67.2649 14.0021 66.342C14.0156 65.5558 14.1309 64.7754 14.2904 64.0085C14.5364 62.8215 14.5402 61.6249 14.5729 60.4244C14.594 59.671 14.5979 58.9157 14.7055 58.168C14.7689 57.7287 14.8765 57.6034 15.3166 57.5649C16.2679 57.482 17.1942 57.2759 18.1244 57.0677C19.3486 56.7941 20.5824 56.8018 21.8277 56.9598C22.5868 57.0562 23.3536 57.1121 24.1204 57.1545C24.8257 57.1949 25.5387 57.2007 26.2286 57.1333C27.0281 57.0543 27.8199 57.1371 28.6155 57.0793C29.2862 57.0292 29.9665 57.0735 30.6411 57.1082C31.5136 57.1545 32.3841 57.1275 33.2566 57.1101C34.5942 57.0832 35.9126 56.9194 37.2348 56.7286C38.6031 56.5321 39.9868 56.4781 41.3685 56.5648C41.7798 56.5918 42.1872 56.6804 42.5966 56.7517C43.3057 56.877 44.0129 57.0176 44.7298 57.0986C44.9585 57.1236 45.1852 57.1583 45.4139 57.1911C46.175 57.3009 46.9399 57.2662 47.7047 57.2315C48.4254 57.2007 49.1422 57.1121 49.8552 57.008C50.5355 56.9097 51.2139 56.7941 51.8923 56.6862C52.392 56.6072 52.9013 56.5648 53.3856 56.4338C54.0332 56.2584 54.6962 56.297 55.3458 56.2103C56.5988 56.0407 57.8576 56.0735 59.1125 56.0696C60.3848 56.0638 61.657 56.0079 62.9292 56.0773C63.6634 56.1178 64.3975 56.1409 65.1297 56.2295C65.7312 56.3008 66.327 56.1852 66.9112 56.058C67.8048 55.8634 68.6927 55.6322 69.5844 55.4299C70.8355 55.1466 72.1001 55.0098 73.3723 55.0002C74.093 54.9944 74.8002 55.1312 75.4824 55.399C76.009 55.6052 76.5606 55.744 77.1217 55.8403C77.2447 55.8615 77.36 55.8615 77.485 55.8442C78.1537 55.7497 78.8245 55.6996 79.5009 55.6746C80.0352 55.6553 80.5675 55.5821 81.0979 55.4973C81.9781 55.3567 82.841 55.4029 83.6501 55.8326C83.8 55.9116 83.9537 55.981 84.1075 56.0484C84.5053 56.2257 84.907 56.2392 85.3182 56.0947C85.8755 55.8981 86.4502 55.823 87.0402 55.8923C87.1459 55.9039 87.2592 55.9155 87.3534 55.9578C87.8608 56.1872 88.3816 56.3355 88.9427 56.3606C89.1676 56.3702 89.3867 56.4762 89.6096 56.5282C90.4091 56.7132 91.2143 56.7325 92.0272 56.6284C92.6249 56.5513 93.2207 56.5725 93.8068 56.7267C94.1278 56.8115 94.4448 56.7845 94.7619 56.6978C95.2712 56.561 95.5076 56.7594 95.646 57.2662C95.8708 58.0967 95.6402 58.8617 95.3519 59.6036C95.0329 60.4225 94.8753 61.2511 94.908 62.1278C94.9291 62.7136 94.9772 63.284 95.154 63.8543C95.3443 64.4729 95.2828 65.1376 95.3462 65.7812C95.3865 66.1974 95.4519 66.6059 95.5441 67.0106C95.6344 67.4037 95.7863 67.7659 96.0399 68.0916C96.4416 68.6061 96.6338 69.1899 96.5723 69.8586C96.5396 70.2247 96.5665 70.5966 96.5665 71.0783V71.0783ZM20.1519 57.9715C19.4792 57.8925 18.8623 58.0505 18.2378 58.1121C17.4748 58.1873 16.7426 58.4628 15.9623 58.4359C15.5607 58.4224 15.5299 58.4782 15.5165 58.8925C15.4973 59.4475 15.5722 59.9986 15.5914 60.5535C15.6356 61.8792 15.5799 63.1992 15.357 64.5114C15.2974 64.8602 15.2513 65.2109 15.2494 65.5673C15.2455 66.3998 15.2263 67.2303 15.2301 68.0627C15.234 68.739 15.2282 69.4212 15.5165 70.057C15.7798 70.639 15.897 71.2556 15.9816 71.8837C16.0969 72.7393 16.0892 73.5968 16.0757 74.4581C16.0507 76.0902 15.9297 77.7146 15.7606 79.337C15.6875 80.0403 15.5895 80.7533 15.6529 81.4547C15.7625 82.6648 15.9316 83.8691 16.1026 85.0715C16.2775 86.2912 16.3851 87.5148 16.4332 88.7461C16.5101 90.7616 16.3044 92.7772 16.4389 94.7927C16.4966 95.6521 16.4947 96.5154 16.5562 97.3748C16.6311 98.4211 16.6503 99.4674 16.6273 100.514C16.5888 102.256 16.2275 103.967 16.1142 105.703C16.0162 107.206 15.8586 108.705 15.7279 110.206C15.7106 110.406 15.7279 110.603 15.7452 110.803C15.8124 111.516 16.0853 112.175 16.2372 112.867C16.4966 114.052 16.5927 115.235 16.3794 116.44C16.2641 117.091 16.1353 117.746 16.1046 118.403C16.0546 119.448 15.9547 120.486 15.8586 121.523C15.7951 122.203 15.8374 122.872 15.8547 123.546C15.8739 124.284 15.9527 125.026 15.8989 125.76C15.8009 127.124 15.6299 128.483 15.6337 129.855C15.6337 129.976 15.6203 130.101 15.5953 130.221C15.4723 130.812 15.4396 131.398 15.5703 131.997C15.749 132.818 15.7586 133.641 15.5876 134.472C15.4492 135.15 15.38 135.84 15.3435 136.533C15.3262 136.878 15.405 137.177 15.6664 137.408C15.8643 137.584 15.9931 137.815 16.1603 138.015C16.3659 138.262 16.4332 138.551 16.4351 138.875C16.437 139.223 16.3313 139.537 16.2372 139.863C15.9892 140.723 16.02 140.692 16.7464 141.189C17.298 141.565 17.8707 141.726 18.5222 141.684C18.626 141.678 18.7336 141.711 18.8393 141.736C19.56 141.896 20.2768 141.998 21.0224 141.886C21.5029 141.813 21.9987 141.775 22.483 141.85C23.0134 141.933 23.5342 142.077 24.0608 142.173C24.3914 142.235 24.7123 142.355 25.0544 142.353C25.6213 142.347 26.1921 142.387 26.7533 142.337C27.4355 142.276 28.1043 142.353 28.7673 142.461C30.0511 142.667 31.3387 142.622 32.6186 142.493C33.1086 142.443 33.6026 142.428 34.083 142.441C34.8863 142.464 35.6781 142.414 36.4699 142.32C37.033 142.252 37.5941 142.164 38.1591 142.137C38.5416 142.12 38.9221 142.125 39.2988 142.035C39.3853 142.014 39.4852 142.014 39.5736 142.027C40.1578 142.125 40.7324 141.977 41.3109 141.946C42.5043 141.884 43.6862 141.665 44.8854 141.634C45.8521 141.609 46.8111 141.628 47.772 141.757C48.9116 141.909 50.057 142.023 51.212 142.031C51.9634 142.035 52.7187 142.035 53.4644 142.071C54.3618 142.116 55.2555 142.297 56.1472 142.441C56.9409 142.57 57.7423 142.609 58.5283 142.497C59.445 142.366 60.354 142.166 61.263 141.971C62.4699 141.713 63.6922 141.516 64.9375 141.495C65.7793 141.482 66.6191 141.459 67.457 141.547C68.5371 141.661 69.6075 141.888 70.701 141.871C71.4505 141.859 72.2019 141.871 72.9457 141.809C73.8086 141.738 74.6657 141.832 75.5151 141.9C76.3511 141.965 77.1852 142.083 78.025 142.081C78.6361 142.081 79.2472 141.988 79.8507 141.867C80.5291 141.732 81.2036 141.557 81.8897 141.497C83.1274 141.387 84.3554 141.214 85.5873 141.06C86.0274 141.004 86.4771 140.967 86.9172 140.994C87.5514 141.033 88.1433 141.252 88.7083 141.549C89.06 141.734 89.4366 141.869 89.8172 141.99C90.6743 142.264 91.4987 142.021 92.302 141.773C93.1534 141.509 93.9894 141.21 94.8849 141.131C95.0829 141.114 95.2828 141.094 95.4769 141.06C95.7267 141.015 95.7824 140.931 95.7305 140.676C95.6883 140.464 95.6575 140.256 95.6479 140.038C95.6248 139.518 95.5902 139 95.5883 138.476C95.5864 137.778 95.7248 137.106 95.8093 136.424C95.9073 135.63 96.0726 134.844 95.8247 134.05C95.7882 133.932 95.7478 133.815 95.6959 133.705C95.4211 133.142 95.3519 132.564 95.5441 131.957C95.8343 131.046 96.0515 130.125 96.1072 129.159C96.1303 128.756 96.0611 128.361 96.1072 127.964C96.2379 126.876 96.1456 125.783 96.1149 124.696C96.0822 123.621 96.236 122.583 96.4531 121.546C96.5415 121.124 96.5992 120.698 96.678 120.276C96.7568 119.854 96.6722 119.44 96.5723 119.043C96.4089 118.405 96.1783 117.787 96.0572 117.133C96.015 116.908 95.9592 116.684 95.915 116.457C95.7978 115.844 95.5729 115.285 95.1598 114.8C94.7831 114.359 94.5813 113.838 94.4967 113.254C94.3853 112.491 94.639 111.788 94.7889 111.071C94.9464 110.316 95.0829 109.561 95.179 108.798C95.2655 108.121 95.4365 107.468 95.6095 106.815C95.867 105.847 96.113 104.882 96.1745 103.876C96.2187 103.14 96.2783 102.406 96.3513 101.674C96.5146 100.019 96.5415 98.3556 96.6299 96.6965C96.6415 96.4961 96.6184 96.2938 96.6492 96.0973C96.7529 95.4537 96.7222 94.8082 96.7337 94.1607C96.7414 93.6385 96.6126 93.1433 96.407 92.6828C96.2456 92.3224 96.1629 91.9563 96.113 91.5748C96.0419 91.0218 96.0188 90.4572 96.1341 89.9177C96.2417 89.4263 96.3724 88.9349 96.4935 88.4436C96.6934 87.6401 96.6588 86.852 96.2187 86.1236C95.5384 85.0002 95.3616 83.7747 95.4615 82.4894C95.5268 81.6474 95.6325 80.8092 95.6172 79.9594C95.6114 79.5798 95.5941 79.1983 95.669 78.8129C95.8209 78.0286 96.0169 77.2482 96.0092 76.4389C96.0015 75.7009 95.9977 74.9649 95.7517 74.25C95.6018 73.8164 95.473 73.3713 95.4269 72.9069C95.3289 71.955 95.3539 71.0012 95.4269 70.0512C95.4634 69.5657 95.3404 69.1437 95.0464 68.7544C94.8254 68.4616 94.6543 68.1378 94.539 67.7794C94.2604 66.9085 94.1028 66.024 94.1239 65.1049C94.1335 64.706 94.0989 64.2994 93.9875 63.914C93.8376 63.3899 93.7607 62.86 93.7588 62.3186C93.753 61.4052 93.826 60.5053 94.172 59.6459C94.3103 59.3049 94.4237 58.9503 94.5256 58.5958C94.6486 58.1661 94.6101 58.1044 94.1758 58.0794C93.7453 58.0543 93.3225 57.9772 92.8978 57.9252C92.7614 57.9079 92.6211 57.8963 92.4865 57.906C91.3853 57.9965 90.2938 58.0524 89.1926 57.8058C88.4757 57.6458 87.7531 57.5302 87.0632 57.2624C86.8768 57.1891 86.6885 57.1602 86.479 57.2161C86.2599 57.2739 86.0331 57.297 85.8121 57.3664C85.2932 57.5302 84.7628 57.5668 84.2228 57.4608C83.8557 57.3876 83.5271 57.218 83.1908 57.0716C82.6142 56.8211 82.0262 56.7016 81.3977 56.8211C81.023 56.8924 80.6406 56.9675 80.262 56.9753C79.449 56.9926 78.6419 57.087 77.8328 57.1198C77.3581 57.139 76.8873 57.1757 76.4126 57.0812C75.9437 56.9868 75.4882 56.8654 75.0481 56.6804C74.3716 56.3991 73.6721 56.2662 72.9341 56.324C71.1699 56.4666 69.4441 56.8115 67.7376 57.2701C66.9785 57.4743 66.2021 57.6227 65.418 57.5803C64.0554 57.5071 62.6948 57.3876 61.3265 57.4069C59.6852 57.4281 58.044 57.403 56.4047 57.4473C55.5649 57.4705 54.727 57.5938 53.891 57.7171C52.2075 57.9676 50.5432 58.3472 48.8424 58.4937C48.1391 58.5534 47.4338 58.6613 46.7304 58.6247C45.4274 58.5592 44.1379 58.353 42.8483 58.1468C41.7606 57.9734 40.6767 57.8192 39.5601 57.8424C38.0784 57.8713 36.6371 58.1931 35.1669 58.2913C34.5442 58.3318 33.9177 58.432 33.2931 58.4397C32.4206 58.4532 31.5462 58.3954 30.6737 58.3626C29.9204 58.3337 29.167 58.3896 28.4175 58.3588C27.3279 58.3125 26.2421 58.3973 25.1543 58.3742C24.4644 58.3607 23.7764 58.3491 23.0884 58.2952C22.0967 58.2162 21.1301 57.9137 20.1596 57.9772L20.1519 57.9715Z" fill="#56493F"/>
</g>
<defs>
<clipPath id="clip0_170_2340">
<rect width="84" height="89" fill="white" transform="translate(14 55)"/>
</clipPath>
</defs>
</svg>
