<svg width="318" height="30" viewBox="0 0 318 30" fill="none" xmlns="http://www.w3.org/2000/svg">
<path d="M10.6919 1.61977C12.0599 1.61977 13.2959 1.70377 14.3999 1.87177C15.5039 2.03977 16.6319 2.39977 17.7839 2.95177C18.9599 3.47977 19.9319 4.19977 20.6999 5.11177C21.4919 5.99977 22.1399 7.22377 22.6439 8.78377C23.1479 10.3438 23.3999 12.1798 23.3999 14.2918C23.3999 16.4038 23.1479 18.2398 22.6439 19.7998C22.1399 21.3598 21.4919 22.5958 20.6999 23.5078C19.9319 24.3958 18.9599 25.1158 17.7839 25.6678C16.6319 26.2198 15.5039 26.5798 14.3999 26.7478C13.2959 26.9158 12.0599 26.9998 10.6919 26.9998H2.62793V1.61977H10.6919ZM10.6919 24.4798C11.5559 24.4798 12.3239 24.4438 12.9959 24.3718C13.6679 24.2998 14.3999 24.1558 15.1919 23.9398C16.0079 23.7238 16.7039 23.3878 17.2799 22.9318C17.8559 22.4518 18.3959 21.8518 18.8999 21.1318C19.4039 20.4118 19.7879 19.4758 20.0519 18.3238C20.3159 17.1478 20.4479 15.8038 20.4479 14.2918C20.4479 12.4918 20.2439 10.9438 19.8359 9.64777C19.4279 8.35177 18.9239 7.35577 18.3239 6.65977C17.7479 5.96377 16.9799 5.42377 16.0199 5.03977C15.0839 4.63177 14.2199 4.37977 13.4279 4.28377C12.6599 4.18777 11.7479 4.13977 10.6919 4.13977H5.57993V24.4798H10.6919Z" fill="#56493F"/>
<path d="M45.7007 26.9998L42.4967 17.0638H32.3087L29.1407 26.9998H26.1887L34.3967 1.61977H40.4447L48.6167 26.9998H45.7007ZM33.1367 14.5438H41.7047L37.8167 2.44777H36.9887L33.1367 14.5438Z" fill="#56493F"/>
<path d="M55.5286 27.3598C54.8326 27.3838 54.2926 27.2038 53.9086 26.8198C53.5246 26.4358 53.3326 25.8958 53.3326 25.1998V1.61977H56.2846V24.8398L69.0646 24.4798V26.9998L55.5286 27.3598Z" fill="#56493F"/>
<path d="M87.2326 26.9998V1.61977H93.9646C97.3006 1.61977 99.7606 2.06377 101.345 2.95177C102.929 3.83977 103.721 5.47177 103.721 7.84777C103.721 9.55177 103.241 10.8478 102.281 11.7358C101.321 12.6238 100.109 13.1158 98.6446 13.2118V14.0758C103.277 14.1718 105.593 16.2358 105.593 20.2678C105.593 22.7158 104.741 24.4558 103.037 25.4878C101.333 26.4958 98.8486 26.9998 95.5846 26.9998H87.2326ZM90.1846 12.5278H94.0726C96.3766 12.5278 98.0686 12.2518 99.1486 11.6998C100.229 11.1238 100.769 9.99577 100.769 8.31576C100.769 7.54777 100.661 6.89977 100.445 6.37177C100.229 5.84377 99.9526 5.43577 99.6166 5.14776C99.3046 4.85977 98.8246 4.64377 98.1766 4.49977C97.5526 4.33177 96.9526 4.23577 96.3766 4.21177C95.8006 4.16377 95.0326 4.13977 94.0726 4.13977H90.1846V12.5278ZM90.1846 24.4798H95.6926C98.0686 24.4798 99.8206 24.1678 100.949 23.5438C102.077 22.8958 102.641 21.6358 102.641 19.7638C102.641 18.0118 102.065 16.7878 100.913 16.0918C99.7606 15.3958 98.0206 15.0478 95.6926 15.0478H90.1846V24.4798Z" fill="#56493F"/>
<path d="M128.618 26.9998L125.414 17.0638H115.226L112.058 26.9998H109.106L117.314 1.61977H123.362L131.534 26.9998H128.618ZM116.054 14.5438H124.622L120.734 2.44777H119.906L116.054 14.5438Z" fill="#56493F"/>
<path d="M136.25 26.9998V1.61977H142.19L154.862 26.1718H155.69L155.222 24.0478V1.61977H158.138V26.9998H152.198L139.562 2.44777H138.734L139.202 4.57177V26.9998H136.25Z" fill="#56493F"/>
<path d="M163.457 14.2918C163.457 10.4998 164.549 7.37977 166.733 4.93177C168.917 2.48377 171.821 1.25977 175.445 1.25977C178.517 1.25977 180.965 2.11177 182.789 3.81576C184.613 5.51977 185.717 7.81177 186.101 10.6918H183.149C182.525 6.08377 179.957 3.77977 175.445 3.77977C172.541 3.77977 170.309 4.73977 168.749 6.65977C167.189 8.55577 166.409 11.0998 166.409 14.2918C166.409 17.5798 167.069 20.1598 168.389 22.0318C169.709 23.9038 171.785 24.8398 174.617 24.8398C177.113 24.8398 178.961 24.1078 180.161 22.6438C181.361 21.1558 181.937 18.8878 181.889 15.8398H173.213V13.4638H185.741C187.181 13.4638 187.901 14.1238 187.901 15.4438V26.9998H184.949V17.5318L185.417 14.2918H184.589C184.565 23.0038 181.229 27.3598 174.581 27.3598C170.981 27.3598 168.221 26.1598 166.301 23.7598C164.405 21.3598 163.457 18.2038 163.457 14.2918Z" fill="#56493F"/>
<path d="M212.093 26.9998L208.889 17.0638H198.701L195.533 26.9998H192.581L200.789 1.61977H206.837L215.009 26.9998H212.093ZM199.529 14.5438H208.097L204.209 2.44777H203.381L199.529 14.5438Z" fill="#56493F"/>
<path d="M234.877 1.61977V4.13977H226.093V26.9998H223.177V4.13977H214.321V1.61977H234.877Z" fill="#56493F"/>
<path d="M236.526 14.2918C236.526 10.4998 237.618 7.37977 239.802 4.93177C241.986 2.48377 244.89 1.25977 248.514 1.25977C251.586 1.25977 254.034 2.11177 255.858 3.81576C257.682 5.51977 258.786 7.81177 259.17 10.6918H256.218C255.594 6.08377 253.026 3.77977 248.514 3.77977C245.61 3.77977 243.378 4.73977 241.818 6.65977C240.258 8.55577 239.478 11.0998 239.478 14.2918C239.478 17.5798 240.138 20.1598 241.458 22.0318C242.778 23.9038 244.854 24.8398 247.686 24.8398C250.182 24.8398 252.03 24.1078 253.23 22.6438C254.43 21.1558 255.006 18.8878 254.958 15.8398H246.282V13.4638H258.81C260.25 13.4638 260.97 14.1238 260.97 15.4438V26.9998H258.018V17.5318L258.486 14.2918H257.658C257.634 23.0038 254.298 27.3598 247.65 27.3598C244.05 27.3598 241.29 26.1598 239.37 23.7598C237.474 21.3598 236.526 18.2038 236.526 14.2918Z" fill="#56493F"/>
<path d="M285.162 26.9998L281.958 17.0638H271.77L268.602 26.9998H265.65L273.858 1.61977H279.906L288.078 26.9998H285.162ZM272.598 14.5438H281.166L277.278 2.44777H276.45L272.598 14.5438Z" fill="#56493F"/>
<path d="M292.794 26.9998V1.61977H298.734L311.406 26.1718H312.234L311.766 24.0478V1.61977H314.682V26.9998H308.742L296.106 2.44777H295.278L295.746 4.57177V26.9998H292.794Z" fill="#56493F"/>
</svg>
