<svg width="150" height="105" viewBox="0 0 150 105" fill="none" xmlns="http://www.w3.org/2000/svg">
<path d="M38.8957 98.6817C38.6507 98.7476 38.4242 98.5922 38.1876 98.5938C37.6587 98.5989 37.1568 98.4265 36.6329 98.3843C36.1005 98.342 35.5834 98.1392 35.0511 98.0716C34.4326 97.9939 33.8428 97.7827 33.2293 97.7201C33.0096 97.6982 32.8203 97.6238 32.6159 97.5765C31.803 97.3923 30.9986 97.1743 30.1958 96.9546C29.7311 96.8278 29.285 96.6487 28.8287 96.5135C28.3014 96.3563 27.7894 96.1519 27.2536 96.0099C26.7703 95.8832 26.2887 95.6821 25.8138 95.4945C25.1902 95.246 24.5565 95.0213 23.9278 94.7881C23.8653 94.7644 23.7808 94.7695 23.7352 94.7289C23.4056 94.4399 22.9358 94.418 22.6029 94.1357C22.5623 94.1019 22.515 94.0698 22.4643 94.0512C21.4639 93.6778 20.5699 93.0863 19.5965 92.6604C19.0861 92.1974 18.3729 92.0774 17.8558 91.6042C17.5685 91.3406 17.1511 91.2206 16.8351 90.9705C16.1422 90.4195 15.3395 90.0342 14.6466 89.485C14.0585 89.0203 13.467 88.5572 12.889 88.0789C12.3516 87.6345 11.799 87.2002 11.314 86.7033C11.0825 86.4667 10.8746 86.1963 10.616 85.9885C9.95357 85.4561 9.41955 84.7971 8.872 84.1616C8.5357 83.7696 8.12504 83.4299 7.85803 82.9871C7.65016 82.639 7.39667 82.3263 7.15163 82.0137C6.90489 81.6977 6.71224 81.3411 6.42326 81.0521C6.21877 80.8476 6.05654 80.5857 5.9281 80.3237C5.7439 79.9469 5.54786 79.5819 5.3062 79.2405C5.16593 79.0428 5.07974 78.8112 4.97835 78.5949C4.64374 77.8868 4.23984 77.2159 3.92719 76.4909C3.69229 75.9485 3.55878 75.3739 3.30698 74.8398C2.88956 73.9611 2.66987 73.013 2.48059 72.07C2.38765 71.6053 2.28118 71.1321 2.22203 70.6538C2.15612 70.1215 2.15274 69.5841 2.075 69.0517C2.00234 68.5498 2.04289 68.0327 2.00741 67.5223C1.97192 67.0137 2.07669 66.5134 2.05472 66.0031C2.04458 65.7699 2.11894 65.5113 2.15274 65.2663C2.21189 64.8539 2.23555 64.4382 2.29639 64.0275C2.3961 63.36 2.63607 62.7296 2.7493 62.0705C2.84224 61.5348 3.07715 61.0532 3.23262 60.5428C3.36444 60.1051 3.5723 59.6962 3.69398 59.2602C3.78186 58.9441 3.9593 58.6737 4.10295 58.3932C4.26519 58.0738 4.42404 57.746 4.58966 57.4265C4.94455 56.7438 5.37549 56.1118 5.78952 55.4679C6.20694 54.8223 6.67337 54.2123 7.19895 53.6512C7.29865 53.5447 7.31893 53.4095 7.33245 53.276C7.36794 52.9059 7.46089 52.5882 7.78198 52.3313C7.97802 52.1742 8.15377 51.9562 8.27714 51.7077C8.35656 51.5472 8.50359 51.3883 8.66076 51.3038C8.92608 51.1636 9.09846 50.9388 9.26576 50.7191C9.70346 50.1479 10.2442 49.6713 10.7816 49.2151C11.4424 48.654 12.1387 48.1301 12.7893 47.5538C12.9347 47.4254 13.1459 47.422 13.2828 47.2834C13.7898 46.7748 14.4505 46.479 15.015 46.0464C15.3614 45.7811 15.7704 45.5495 16.1827 45.3586C16.3636 45.2741 16.5596 45.2065 16.6678 45.0121C16.6897 44.9716 16.7523 44.9243 16.7945 44.926C17.0953 44.9327 17.2711 44.6894 17.511 44.588C17.8541 44.4426 18.1194 44.1418 18.5081 44.0945C18.5453 44.0894 18.5825 44.0607 18.6129 44.037C19.0033 43.7379 19.4798 43.623 19.9159 43.4202C20.291 43.2461 20.6561 43.0315 21.0447 42.8912C21.4706 42.7375 21.8593 42.5026 22.3004 42.3657C22.6012 42.2727 22.924 42.1764 23.2265 42.0311C23.5695 41.8654 23.965 41.7556 24.3452 41.6424C24.8184 41.5021 25.322 41.4497 25.7699 41.2216C25.829 41.1912 25.8898 41.154 25.9541 41.1405C26.6503 41.0002 27.3314 40.7873 28.0192 40.6149C28.6141 40.4645 29.2174 40.3529 29.8105 40.1941C30.3902 40.0403 30.9698 39.8443 31.5613 39.7986C32.0024 39.7648 32.4333 39.6668 32.8795 39.655C33.302 39.6432 33.7346 39.5485 34.1453 39.4437C34.5357 39.344 34.921 39.3643 35.3063 39.3339C35.5209 39.317 35.7355 39.3153 35.9468 39.2612C36.185 39.2004 36.4233 39.17 36.6684 39.224C36.7326 39.2376 36.8053 39.2393 36.8695 39.2274C37.5049 39.1058 38.1522 39.126 38.7926 39.0635C39.6765 38.9773 40.5586 39.1041 41.4374 39.028C41.9224 38.9858 42.4058 38.9959 42.8857 39.028C43.8203 39.0905 44.7633 39.0398 45.6877 39.2359C45.8702 39.2747 46.0662 39.2562 46.2504 39.2494C46.8453 39.2274 47.4165 39.4133 48.0113 39.4049C48.3105 39.3998 48.6164 39.4843 48.9256 39.5096C49.5661 39.5603 50.2032 39.6837 50.8268 39.8223C51.4842 39.9676 52.1551 40.0335 52.8074 40.2076C53.5865 40.4138 54.3909 40.5219 55.1717 40.7247C55.8848 40.9106 56.6031 41.0864 57.301 41.3348C57.4768 41.3973 57.6576 41.4463 57.8486 41.4666C58.1714 41.5021 58.4908 41.5782 58.7696 41.7522C58.9183 41.8452 59.0839 41.8198 59.2327 41.8773C59.5571 42.004 59.8951 42.1105 60.1976 42.2761C60.4089 42.3927 60.6404 42.3724 60.8499 42.4671C61.6577 42.8321 62.474 43.1769 63.3223 43.4405C63.5708 43.5165 63.7685 43.6855 64.0051 43.7852C64.5847 44.032 65.1762 44.2686 65.717 44.588C66.3693 44.9716 67.0825 45.2335 67.7264 45.6256C68.2249 45.9298 68.7775 46.1529 69.2118 46.5618C69.249 46.5973 69.3048 46.621 69.3555 46.6328C69.734 46.7274 70.0264 46.9522 70.3204 47.2006C70.6044 47.4389 70.9474 47.6045 71.2584 47.8141C71.9614 48.2873 72.6103 48.8365 73.3032 49.3266C73.5736 49.5176 73.773 49.7863 74.0941 49.9265C74.3544 50.0398 74.5453 50.3051 74.7447 50.5062C75.1436 50.9101 75.6252 51.2193 75.9987 51.6334C76.3502 52.0238 76.7676 52.3381 77.1276 52.7183C77.5602 53.1746 77.9337 53.6799 78.39 54.1142C78.6232 54.3356 78.7804 54.6263 79.044 54.8291C79.1454 54.9068 79.1995 55.0471 79.2721 55.1603C79.3228 55.2397 79.3482 55.3496 79.4175 55.4003C79.7791 55.6656 79.9245 56.0982 80.2101 56.4143C80.5142 56.7523 80.6832 57.19 81.0381 57.484C81.077 57.5161 81.1057 57.5702 81.1192 57.6192C81.2443 58.0721 81.513 58.454 81.7834 58.8157C82.0538 59.1773 82.1653 59.6083 82.4019 59.9767C82.4442 60.0443 82.4526 60.1322 82.4966 60.1998C83.0762 61.1022 83.3804 62.128 83.7928 63.1031C83.9685 63.5188 84.1493 63.9498 84.1967 64.4128C84.2203 64.6427 84.3741 64.8252 84.4147 65.0601C84.5448 65.8256 84.6918 66.5929 84.849 67.3517C85.0501 68.3268 85.0687 69.3069 85.1261 70.2837C85.1734 71.0983 85.1464 71.923 85.0264 72.7358C84.9521 73.2411 84.9267 73.7498 84.8642 74.2517C84.8236 74.5745 84.707 74.9007 84.6225 75.2235C84.5025 75.6798 84.5363 76.1732 84.315 76.5991C84.1189 76.9743 84.1983 77.4136 83.9989 77.7837C83.7995 78.1538 83.7404 78.5797 83.5612 78.9566C83.3584 79.3808 83.1421 79.7982 82.9241 80.2139C82.7889 80.4742 82.6571 80.7395 82.5337 81.0014C82.1721 81.7703 81.6955 82.4666 81.2426 83.1781C81.1345 83.3488 81.0111 83.5093 80.9097 83.6834C80.4754 84.4286 79.8383 85.0235 79.3887 85.7569C79.2738 85.9428 79.044 86.0257 78.9155 86.1913C78.6266 86.5664 78.2869 86.8909 77.9607 87.2272C77.3743 87.8322 76.7524 88.4 76.1305 88.9696C75.7401 89.3261 75.3143 89.6202 74.9036 89.9413C74.6738 90.1204 74.5014 90.3638 74.2428 90.526C73.6311 90.9096 73.0784 91.3845 72.4363 91.7259C72.4244 91.7326 72.4109 91.7377 72.4008 91.7461C71.8262 92.243 71.1063 92.51 70.4996 92.9578C70.2055 93.1742 69.8489 93.2772 69.5363 93.4665C68.7876 93.9194 67.9866 94.2709 67.1923 94.636C66.6549 94.8827 66.0972 95.0821 65.5683 95.3525C65.1728 95.5553 64.7554 95.7699 64.2907 95.8341C64.0693 95.8646 63.8564 95.9744 63.6485 96.0691C63.3173 96.2195 62.9894 96.3631 62.621 96.4138C62.4148 96.4425 62.2222 96.5676 62.0211 96.6436C61.4718 96.8515 60.9023 96.985 60.3227 97.0712C60.2956 97.0746 60.2669 97.078 60.2449 97.0915C59.4523 97.568 58.5127 97.5359 57.6678 97.8384C57.3838 97.9398 57.0509 97.8993 56.7569 97.9804C56.1603 98.1426 55.5519 98.2221 54.9469 98.3319C54.0631 98.4924 53.1657 98.5567 52.2836 98.7307C51.9185 98.8034 51.5366 98.8 51.1614 98.8017C50.9012 98.8034 50.6629 98.9031 50.4026 98.9132C49.6388 98.9454 48.8766 98.9893 48.1111 99.0011C47.8964 99.0045 47.6818 99.04 47.4672 99.0552C47.0633 99.0839 46.6594 99.089 46.2538 99.0569C45.8905 99.0282 45.5406 99.1803 45.1705 99.1363C44.5976 99.0687 44.0146 99.1752 43.4451 99.0265C43.2913 98.9859 43.1189 98.9792 42.9618 99.0028C42.5934 99.0569 42.2334 98.9859 41.8785 98.9301C41.6335 98.8913 41.3969 98.9454 41.1535 98.9116C40.4725 98.8186 39.788 98.7527 39.1053 98.6783C39.0394 98.6716 38.9701 98.6783 38.8957 98.6783V98.6817ZM3.77341 69.17C3.80552 69.5283 3.7413 69.9035 3.95592 70.2313C3.9762 70.2618 3.97789 70.3108 3.97113 70.3496C3.92212 70.6606 4.04042 70.958 4.07591 71.2588C4.17224 72.0599 4.41221 72.8356 4.66232 73.6011C4.86512 74.2247 5.03242 74.8601 5.3062 75.4651C5.47688 75.8403 5.61546 76.2341 5.82163 76.5974C5.91458 76.7613 6.00922 76.932 6.05823 77.1111C6.21032 77.6654 6.58211 78.1065 6.81871 78.6186C7.0215 79.0563 7.35273 79.4331 7.59102 79.8641C7.77691 80.1987 8.04561 80.486 8.2501 80.8206C8.64893 81.4746 9.19816 82.0205 9.66459 82.6272C9.92653 82.9668 10.2172 83.2812 10.5096 83.5955C10.8019 83.9098 11.1281 84.1887 11.412 84.5182C11.7956 84.9644 12.2705 85.3294 12.6896 85.7451C13.1679 86.2217 13.685 86.6594 14.2292 87.0447C14.6516 87.3455 14.9592 87.8136 15.4949 87.9539C15.5169 87.959 15.5287 87.9944 15.5507 88.0113C15.8971 88.2868 16.247 88.5606 16.5917 88.8394C17.0615 89.2197 17.6293 89.4495 18.1025 89.8213C18.3932 90.0494 18.7261 90.1931 19.0489 90.3638C19.4782 90.5902 19.8567 90.9029 20.3147 91.0786C20.4651 91.1361 20.6341 91.1766 20.7541 91.2746C21.1428 91.5957 21.6345 91.7292 22.0384 92.0199C22.1635 92.1095 22.324 92.172 22.4947 92.1686C22.5454 92.1686 22.6164 92.1754 22.6451 92.2075C22.88 92.4711 23.2163 92.5506 23.5188 92.6858C23.6405 92.7398 23.8078 92.7348 23.894 92.8193C24.1982 93.1099 24.6156 93.1606 24.9705 93.3279C25.4623 93.5595 25.971 93.7876 26.5084 93.9211C26.8092 93.9955 27.0998 94.107 27.3635 94.2794C27.595 94.4315 27.8755 94.4163 28.1307 94.5042C28.7729 94.7255 29.3813 95.0804 30.0894 95.0855C30.1536 95.0855 30.2263 95.1075 30.2803 95.1413C30.6048 95.3441 30.9766 95.415 31.3349 95.4978C31.7236 95.5874 32.1089 95.699 32.5009 95.7733C32.9133 95.851 33.2918 96.0471 33.7008 96.1265C34.5188 96.2854 35.3367 96.4408 36.1597 96.571C36.5349 96.6301 36.8965 96.767 37.27 96.789C38.0254 96.8363 38.7605 97.0357 39.5159 97.0712C39.8151 97.0847 40.1007 97.2317 40.388 97.2013C40.7023 97.1692 41.0014 97.225 41.3073 97.2351C41.7957 97.2503 42.2756 97.4633 42.7725 97.3044C42.8164 97.2909 42.8806 97.3129 42.928 97.3331C43.1477 97.4328 43.3775 97.3974 43.6056 97.3906C44.1667 97.3737 44.7328 97.3855 45.2855 97.421C45.9057 97.4616 46.5242 97.5123 47.1376 97.4514C47.7257 97.394 48.3122 97.4616 48.902 97.4041C49.4191 97.3534 49.948 97.3365 50.4669 97.2875C51.1327 97.2233 51.7985 97.127 52.4644 97.0915C53.2063 97.0526 53.9059 96.7907 54.6529 96.7704C55.1852 96.7569 55.7091 96.5625 56.2431 96.4932C56.4797 96.4628 56.6724 96.3124 56.8954 96.2989C57.5157 96.2617 58.0987 96.0674 58.6952 95.9288C59.0738 95.8409 59.4456 95.726 59.8224 95.633C59.9644 95.5976 60.13 95.628 60.2584 95.5705C61.051 95.2173 61.9011 95.0483 62.719 94.7796C62.9472 94.7053 63.155 94.5751 63.3832 94.4906C63.8107 94.3301 64.2484 94.2017 64.6726 94.031C65.1593 93.8349 65.6376 93.622 66.1209 93.4209C66.6296 93.208 67.1416 92.9883 67.6165 92.7111C67.9393 92.5235 68.2705 92.3427 68.5984 92.1788C69.2253 91.8661 69.8371 91.5265 70.432 91.1614C70.672 91.0144 70.8933 90.8336 71.1502 90.7119C71.4713 90.5598 71.7434 90.3401 72.0121 90.112C72.0831 90.0511 72.1557 89.9903 72.2352 89.9396C72.9382 89.4901 73.5821 88.9577 74.2631 88.4778C74.3611 88.4085 74.4558 88.3223 74.5234 88.2243C74.6264 88.0756 74.7616 87.9657 74.907 87.8677C75.4985 87.4655 75.997 86.9585 76.4972 86.4549C76.9603 85.9902 77.3946 85.495 77.8407 85.0134C77.8965 84.9542 77.9658 84.9018 78.0013 84.8309C78.3004 84.2377 78.8361 83.8321 79.2028 83.2845C79.6355 82.639 80.1272 82.0306 80.4872 81.3377C80.6427 81.0386 80.7965 80.7327 80.9722 80.4505C81.4809 79.6427 81.7648 78.7436 82.1113 77.8699C82.1856 77.6823 82.3326 77.515 82.3512 77.3207C82.3901 76.9117 82.6013 76.5602 82.6858 76.1681C82.892 75.215 83.3128 74.3024 83.2232 73.2952C83.2216 73.2699 83.2283 73.2411 83.2385 73.2158C83.448 72.7004 83.3432 72.1511 83.399 71.6188C83.47 70.9411 83.3922 70.2567 83.3939 69.5756C83.3939 69.165 83.1776 68.7729 83.3145 68.3538C83.3263 68.3166 83.2723 68.2575 83.2469 68.2102C83.1996 68.124 83.1844 68.0344 83.1861 67.9364C83.1945 67.1624 82.9207 66.4408 82.7923 65.6921C82.7163 65.2493 82.4763 64.8657 82.4138 64.4196C82.3732 64.1289 82.3107 63.8129 82.1569 63.5746C81.8814 63.1487 81.8003 62.6536 81.5688 62.2091C81.2815 61.6548 81.1091 61.0397 80.739 60.5209C80.6849 60.4448 80.6461 60.3569 80.6055 60.2724C80.2557 59.5424 79.84 58.8495 79.3887 58.1803C79.1724 57.8592 78.995 57.5026 78.6671 57.2677C78.5032 56.7455 78.0807 56.3991 77.7596 55.9901C77.2729 55.3716 76.7761 54.7497 76.1728 54.2308C75.9818 54.0669 75.7976 53.8962 75.6725 53.6698C75.6286 53.5887 75.5576 53.5143 75.4849 53.4602C75.0963 53.1696 74.8292 52.7521 74.4338 52.4648C74.1854 52.284 73.9522 52.0795 73.7054 51.8936C73.1917 51.5049 72.7472 51.0368 72.2453 50.6329C71.6166 50.1259 70.9221 49.717 70.2765 49.237C69.7644 48.8551 69.1713 48.5847 68.671 48.1791C68.6288 48.1453 68.5832 48.1132 68.5358 48.0912C68.1742 47.9189 67.8294 47.7194 67.4948 47.4947C67.1078 47.2344 66.709 46.986 66.2595 46.8305C65.8184 46.6767 65.4568 46.3421 64.9937 46.2289C64.4935 45.7743 63.8327 45.6273 63.2446 45.3552C62.6024 45.0578 61.9721 44.713 61.2792 44.5221C60.7806 44.3852 60.3446 44.0506 59.7988 44.0489C59.7261 44.0489 59.6822 43.9914 59.6433 43.934C59.596 43.8613 59.5233 43.8157 59.4439 43.8038C58.8744 43.7227 58.3623 43.4523 57.8114 43.3019C56.8921 43.0518 55.9913 42.7307 55.0568 42.5397C54.6106 42.4485 54.1729 42.32 53.7335 42.2051C53.1978 42.0666 52.6621 41.955 52.1213 41.8485C51.3051 41.688 50.4753 41.6153 49.6658 41.4244C49.6016 41.4092 49.5306 41.4075 49.4647 41.4193C49.2585 41.4565 49.0541 41.4159 48.8648 41.3585C48.2665 41.1759 47.6413 41.1303 47.0312 41.0982C46.1862 41.0543 45.3514 40.9225 44.5047 40.8903C43.6597 40.8582 42.8164 40.8058 41.9715 40.8363C41.8363 40.8413 41.6943 40.8903 41.5709 40.8599C41.0656 40.7382 40.5586 40.7737 40.055 40.838C39.6664 40.887 39.2777 40.8549 38.889 40.865C38.4225 40.8768 37.9578 40.9833 37.4897 40.8768C37.466 40.8718 37.4356 40.8836 37.412 40.8954C37.0368 41.0729 36.6244 40.9512 36.2307 41.0424C35.8454 41.132 35.4296 41.0982 35.0376 41.2064C34.9091 41.2419 34.7689 41.2689 34.637 41.2554C34.1875 41.2097 33.7617 41.3365 33.3341 41.4227C32.7916 41.5325 32.2373 41.541 31.6948 41.666C31.492 41.7134 31.2707 41.6711 31.0881 41.8198C31.051 41.8502 30.9867 41.8587 30.9344 41.8587C30.3361 41.8638 29.7734 42.0547 29.2038 42.2034C29.0619 42.2406 28.925 42.3285 28.783 42.3386C28.0074 42.3944 27.2773 42.6209 26.5709 42.9267C26.4661 42.9724 26.3613 42.9724 26.2549 42.9808C25.9693 43.0045 25.7023 43.0788 25.4555 43.2259C25.3862 43.2664 25.3119 43.3137 25.2358 43.3205C24.6274 43.3796 24.112 43.7227 23.5307 43.8697C23 44.0049 22.5387 44.3395 22.0029 44.4815C21.9776 44.4883 21.9472 44.4967 21.9303 44.5153C21.6988 44.757 21.3743 44.8381 21.0836 44.9429C20.4634 45.1642 19.8736 45.4448 19.2889 45.7371C18.7599 46.0008 18.2665 46.3371 17.7358 46.5939C17.0564 46.9218 16.4329 47.346 15.8042 47.7499C15.3395 48.0473 14.8865 48.3887 14.4421 48.7267C13.8134 49.2032 13.1374 49.6139 12.5544 50.1547C12.1607 50.5214 11.7686 50.8932 11.3613 51.243C10.9557 51.5911 10.5822 51.9663 10.2054 52.3398C10.0347 52.5088 9.9654 52.7589 9.74571 52.8873C9.44659 53.0631 9.26745 53.347 9.07311 53.6258C8.88214 53.8996 8.64386 54.1531 8.26362 54.1616C8.11828 54.1649 8.04561 54.2545 7.97802 54.3576C7.90366 54.4708 7.83944 54.5908 7.75832 54.699C7.25133 55.3834 6.84068 56.132 6.43509 56.8739C6.04471 57.5888 5.69151 58.3324 5.38225 59.0928C5.06791 59.8652 4.83132 60.6645 4.53896 61.4436C4.36658 61.9032 4.29391 62.4085 4.15872 62.8868C4.13675 62.9645 4.1283 63.0457 4.11647 63.1251C4.06746 63.48 4.05225 63.845 3.96437 64.1914C3.76496 64.9688 3.75482 65.7648 3.70581 66.554C3.65173 67.4243 3.70581 68.298 3.77679 69.1684L3.77341 69.17Z" fill="url(#paint0_linear_165_2329)"/>
<path d="M40.8499 61.4961C41.0139 61.8967 41.1203 62.282 41.3197 62.6098C41.5208 62.9427 41.6577 63.2858 41.722 63.6576C41.8352 64.3099 42.0819 64.9284 42.2019 65.5774C42.2982 66.0928 42.3557 66.6201 42.4909 67.1254C42.692 67.8808 42.6362 68.6497 42.6396 69.4119C42.6413 69.8479 42.5078 70.2856 42.43 70.7233C42.4098 70.8399 42.3337 70.9481 42.3777 71.0714C42.9725 70.4343 43.3578 69.6417 43.9392 68.9911C44.2282 68.6666 44.5661 68.4013 44.8889 68.1275C45.0833 67.9619 45.3908 67.8892 45.6241 67.7321C45.9299 67.5276 46.2527 67.3721 46.6178 67.3163C46.7175 67.3011 46.7851 67.2352 46.8645 67.1845C47.0352 67.0764 47.2092 66.98 47.4154 66.9462C47.5472 66.9243 47.6943 66.8922 47.7956 66.8144C48.1488 66.5423 48.5866 66.4393 48.9871 66.3412C49.7915 66.1418 50.5908 65.9171 51.4257 65.8224C52.0459 65.7514 52.661 65.7819 53.2796 65.7345C54.0857 65.672 54.8884 65.7667 55.637 66.1266C55.6979 66.1553 55.7621 66.1993 55.8246 66.1993C56.3671 66.206 56.7085 66.6032 57.131 66.8499C57.4639 67.046 57.763 67.3079 58.1703 67.4346C58.1804 67.2978 58.1314 67.2031 58.0672 67.1288C57.8407 66.8567 57.6853 66.544 57.5146 66.2382C57.1141 65.5233 56.9062 64.7459 56.7203 63.9601C56.6375 63.6086 56.5564 63.2554 56.4837 62.9005C56.4093 62.5405 56.4279 62.1755 56.4296 61.8105C56.4313 61.3238 56.4127 60.8371 56.4296 60.3537C56.4448 59.8991 56.6088 59.4597 56.7963 59.0423C57.0059 58.5776 57.2493 58.1112 57.5264 57.6988C57.9269 57.1023 58.3832 56.5142 59.1065 56.2066C59.4496 56.0612 59.774 55.8585 60.1289 55.73C60.5582 55.5745 60.9841 55.441 61.4589 55.4309C62.1332 55.4157 62.7957 55.2602 63.426 55C63.6914 54.8901 63.9618 54.8107 64.2541 54.8817C64.3741 54.9104 64.4941 54.8918 64.6158 54.8783C65.1684 54.8158 65.721 54.858 66.2702 54.907C66.8414 54.9594 67.3062 55.2822 67.7861 55.5526C68.185 55.7773 68.5432 56.0697 68.964 56.264C69.0891 56.3215 69.2108 56.3637 69.3476 56.3806C69.8834 56.4432 70.4056 56.5395 70.9244 56.7085C71.3029 56.8319 71.6967 56.9265 72.0803 57.0482C72.665 57.2324 73.0503 57.6701 73.4475 58.0909C73.7736 58.4373 74.0069 58.8412 74.213 59.2722C74.4175 59.6963 74.6524 60.1053 74.8332 60.5413C74.8586 60.6038 74.8991 60.663 74.9127 60.7272C75.0174 61.2849 75.3521 61.7361 75.6039 62.2262C75.8945 62.7906 76.0855 63.3889 76.2207 64.0125C76.4674 65.1397 76.5485 66.2787 76.4962 67.4245C76.4725 67.918 76.4032 68.4097 76.2663 68.8948C75.9909 69.8716 75.6174 70.8112 75.2405 71.7474C75.0817 72.1412 74.8772 72.5248 74.6693 72.9016C74.4462 73.3072 74.1877 73.7027 74.0609 74.1674C73.9511 74.573 73.5523 74.6508 73.2041 74.7437C72.8357 74.8434 72.4538 74.8282 72.0803 74.813C71.6358 74.7961 71.1914 74.8755 70.7486 74.8012C70.3903 74.742 70.0338 74.6693 69.6721 74.6355C68.8542 74.5578 68.0329 74.4953 67.2132 74.4344C66.9969 74.4192 66.7907 74.3618 66.5795 74.3229C65.6078 74.1438 64.7459 73.6976 63.9178 73.2008C63.3906 72.8831 62.8362 72.5873 62.3817 72.1547C62.3445 72.1192 62.2921 72.0922 62.2296 72.1091C62.1451 72.18 62.2093 72.2527 62.2363 72.322C62.358 72.6498 62.5016 72.9692 62.6149 73.3022C62.8362 73.9528 62.9427 74.6271 63.083 75.2946C63.1726 75.7273 63.1962 76.1717 63.3111 76.601C63.328 76.6635 63.323 76.7362 63.3111 76.8004C63.2199 77.2533 63.2925 77.7163 63.2216 78.1709C63.1827 78.4244 63.3551 78.6627 63.2841 78.9297C63.2148 79.19 63.1759 79.4587 63.2334 79.7308C63.2537 79.8254 63.1979 79.9133 63.1742 80.0028C63.1219 80.1972 63.0526 80.3966 63.0543 80.5943C63.0543 81.1554 62.9005 81.6894 62.8041 82.2336C62.7315 82.6442 62.7315 83.065 62.5929 83.4639C62.4983 83.7393 62.407 84.0165 62.3005 84.3393C62.8227 84.1584 63.2385 83.8864 63.6593 83.6261C64.9622 82.82 66.0979 81.7959 67.2893 80.8444C68.3878 79.9673 69.4321 79.0311 70.5002 78.1202C70.6455 77.9969 70.7926 77.8786 70.9616 77.7941C71.0951 77.7282 71.2438 77.6622 71.3739 77.7958C71.5057 77.9326 71.4297 78.0695 71.3519 78.2013C71.2691 78.345 71.1576 78.4599 71.0359 78.5681C70.5222 79.0277 70.0084 79.4857 69.4964 79.9454C68.1579 81.1419 66.7434 82.2488 65.312 83.3304C64.3758 84.0368 63.3703 84.6485 62.2634 85.0727C61.8595 85.2282 61.4826 85.4512 61.197 85.7859C61.0043 86.0123 60.7728 86.1982 60.5835 86.4297C60.4027 86.6494 60.107 86.712 59.8535 86.8218C59.6456 86.9114 59.4124 86.9401 59.1893 86.9942C58.9156 87.0618 58.6435 87.1429 58.3579 87.0229C58.2767 86.9891 58.1703 87.0009 58.0773 87.006C57.8695 87.0195 57.6853 86.9739 57.496 86.881C57.2831 86.7762 57.0532 86.7136 56.8099 86.668C56.5023 86.6106 56.2184 86.4179 55.9429 86.2607C55.2264 85.8484 54.4693 85.6862 53.6581 85.7554C53.261 85.7892 52.8993 85.7064 52.5157 85.6C52.1186 85.4901 51.8211 85.191 51.4189 85.1217C51.3209 85.1048 51.2601 85.0305 51.1908 84.9645C51.1232 84.9003 51.0437 84.8192 50.9592 84.8074C50.508 84.7432 50.1565 84.4423 49.7408 84.3173C49.4788 84.2379 49.2118 84.15 48.9431 84.0875C48.693 84.0283 48.4564 83.9286 48.2401 83.7833C48.1742 83.7376 48.0998 83.6937 48.0238 83.6768C47.0335 83.4402 46.3271 82.7592 45.5683 82.1457C45.1272 81.7891 44.8568 81.3092 44.5002 80.8951C43.9578 80.2648 43.6434 79.4958 43.1669 78.8317C42.4841 77.8769 42.2729 76.7345 41.8673 75.6715C41.7034 75.2439 41.727 74.7674 41.6577 74.3144C41.5969 73.919 41.4972 73.5235 41.6679 73.1281C41.6932 73.069 41.7 72.9861 41.629 72.949C41.5563 72.9101 41.4989 72.9659 41.4549 73.0166C41.3924 73.0875 41.3299 73.1602 41.2843 73.2413C40.9598 73.821 40.3717 74.0441 39.8241 74.3161C39.4625 74.4953 39.0332 74.4547 38.6665 74.6389C38.5448 74.6998 38.3758 74.5646 38.2423 74.6913C38.4992 75.1206 38.8592 75.467 39.1262 75.8878C39.5875 76.6162 40.0506 77.3428 40.441 78.1135C40.5204 78.2706 40.5964 78.4295 40.6928 78.5765C40.9936 79.0379 41.1153 79.5618 41.2454 80.084C41.2707 80.1887 41.291 80.2952 41.3214 80.3983C41.5175 81.0591 41.6256 81.7334 41.6746 82.4195C41.6915 82.6459 41.776 82.8673 41.8115 83.0938C41.8757 83.4909 41.9366 83.8897 41.9788 84.2903C42.0532 84.9764 42.0735 85.6591 41.7862 86.3165C41.6797 86.5616 41.6391 86.8336 41.5462 87.0854C41.2843 87.7952 40.9581 88.4678 40.4883 89.0694C40.2263 89.4041 39.9036 89.6153 39.5183 89.7556C38.4519 90.1459 37.3686 90.4738 36.2228 90.5245C35.6297 90.5515 35.0449 90.4383 34.4568 90.4045C34.0124 90.3792 33.5696 90.3623 33.1302 90.2795C32.5489 90.1679 31.9675 90.0513 31.3862 89.9415C31.0279 89.8739 30.6494 89.8654 30.3165 89.7336C29.5695 89.4395 28.7701 89.3111 28.0553 88.9021C27.4604 88.5625 26.8419 88.26 26.2487 87.9101C25.6927 87.5806 25.1384 87.2477 24.5774 86.9249C24.2968 86.7627 24.0653 86.5379 23.8034 86.3503C23.2136 85.9261 22.688 85.4175 22.1438 84.9341C21.2684 84.1567 20.5975 83.2171 19.9367 82.264C19.8303 82.1102 19.6866 81.9835 19.5599 81.8432C18.7842 80.9948 18.0575 80.1076 17.5911 79.0446C17.3359 78.4633 17.2835 77.8363 17.461 77.233C17.6283 76.6686 17.8632 76.1244 18.2434 75.6495C18.4935 75.3386 18.6879 74.9803 18.8619 74.6153C18.9735 74.382 19.1543 74.1877 19.3436 74.0187C20.3913 73.0825 21.5608 72.3186 22.7793 71.6257C23.2203 71.3756 23.7273 71.3334 24.1921 71.1525C24.6179 70.9852 25.0539 70.8467 25.5237 70.85C25.6133 70.85 25.7029 70.7977 25.7823 70.7723C25.8127 70.6354 25.713 70.6287 25.6471 70.5932C25.1114 70.3059 24.5165 70.1538 23.9977 69.8259C23.658 69.6113 23.2896 69.444 23.0023 69.1466C22.884 69.0232 22.7032 68.9641 22.5714 68.8508C21.9258 68.3016 21.2498 67.7811 20.6584 67.1778C20.3339 66.8465 19.9638 66.544 19.712 66.1401C19.5903 65.9441 19.4179 65.7869 19.2405 65.6399C18.8991 65.3577 18.5814 65.0552 18.3397 64.6783C18.2823 64.5888 18.2012 64.5093 18.1167 64.4451C17.7128 64.1291 17.5049 63.7066 17.3984 63.2148C17.3359 62.9258 17.2159 62.6555 17.1635 62.3597C17.0351 61.6432 17.101 60.9638 17.341 60.2692C17.4998 59.8113 17.6688 59.3482 17.9037 58.946C18.3921 58.1061 18.8602 57.2307 19.6849 56.6392C19.7813 56.5699 19.8523 56.4635 19.9367 56.3773C20.2105 56.1001 20.4437 55.7756 20.8375 55.6455C20.8628 55.6371 20.8899 55.6219 20.9051 55.6016C21.2617 55.1267 21.8346 54.9695 22.3044 54.6637C22.71 54.4017 23.1696 54.2462 23.6141 54.057C23.9352 53.9201 24.2529 53.7663 24.5926 53.6987C25.3835 53.5398 26.1186 53.1545 26.9349 53.1123C27.2948 53.0937 27.6582 53.0464 28.0215 53.0954C28.0739 53.1021 28.1313 53.1072 28.1837 53.0971C28.902 52.9686 29.6016 53.0869 30.2979 53.2458C30.3502 53.2576 30.406 53.2559 30.4584 53.2542C30.6274 53.2475 30.6815 53.1545 30.5767 53.021C30.428 52.8317 30.2674 52.6492 30.0984 52.4769C29.6962 52.0679 29.3971 51.5879 29.169 51.0691C28.9408 50.5503 28.6552 50.0315 28.7363 49.4349C28.8225 48.7978 28.9087 48.1506 29.3498 47.6334C29.4918 47.4678 29.61 47.2887 29.7047 47.0943C30.1322 46.219 30.8623 45.5835 31.491 44.8721C31.6752 44.6625 31.932 44.4952 32.2007 44.3566C32.5455 44.1792 32.8531 43.9274 33.1759 43.7077C33.6541 43.3832 34.2202 43.2818 34.7492 43.0841C35.1497 42.9354 35.5688 42.8289 35.9896 42.7343C36.3766 42.6464 36.7704 42.6869 37.1523 42.6143C37.7844 42.4943 38.4012 42.714 39.0315 42.6836C39.236 42.6734 39.449 42.7664 39.6501 42.8357C40.1689 43.0165 40.7316 43.0334 41.2302 43.2886C41.6358 43.4947 42.1039 43.5319 42.5061 43.7618C42.6768 43.8598 42.8677 43.924 43.0807 43.9392C43.3392 43.9578 43.5302 44.1724 43.7685 44.2687C44.431 44.5358 45.0343 44.9278 45.7001 45.1881C45.9181 45.2726 46.0465 45.4804 46.2561 45.5869C46.6583 45.7931 47.0538 46.0128 47.3968 46.3153C47.4965 46.4032 47.6148 46.4927 47.7399 46.5265C48.1218 46.6296 48.3922 46.8848 48.6575 47.1501C48.8417 47.336 49.0817 47.429 49.2963 47.5625C49.996 47.9968 50.5435 48.6035 51.135 49.1612C51.2651 49.2845 51.3496 49.4383 51.4409 49.5887C51.8482 50.2529 52.3416 50.8511 52.8351 51.4527C53.0125 51.6674 53.1528 51.9192 53.2779 52.171C53.6074 52.8419 53.9065 53.5246 54.0857 54.2581C54.204 54.7397 54.3848 55.2061 54.5031 55.6928C54.6231 56.188 54.7819 56.6899 54.8225 57.1834C54.8681 57.7478 54.8512 58.341 54.694 58.9071C54.6011 59.2434 54.5301 59.5814 54.4946 59.9329C54.4237 60.6089 54.2699 61.2849 53.8896 61.8493C53.4215 62.5456 52.7523 62.8751 51.8499 62.647C51.3158 62.5118 50.8004 62.4848 50.2579 62.5439C49.6597 62.6081 49.0564 62.6267 48.4497 62.576C47.9021 62.5304 47.3461 62.5591 46.7952 62.5591C45.9181 62.5591 45.0596 62.3851 44.1927 62.2938C43.2007 62.189 42.2915 61.8223 41.3451 61.5722C41.2048 61.535 41.073 61.459 40.855 61.4809L40.8499 61.4961ZM37.4379 73.1501C38.0514 73.1619 38.6429 73.0673 39.2208 72.8594C39.4912 72.7614 39.7481 72.6583 39.9475 72.4403C40.2956 72.06 40.6286 71.6646 40.7739 71.1593C40.9378 70.5932 41.1457 70.0439 41.1947 69.4406C41.2555 68.6953 41.2437 67.9568 41.1254 67.2285C41.0003 66.4477 40.7975 65.6771 40.6184 64.9048C40.5255 64.4992 40.5153 64.075 40.3413 63.6863C40.1587 63.2824 39.9999 62.8667 39.8022 62.4679C39.4608 61.7801 39.138 61.0838 38.5702 60.5413C38.5313 60.5041 38.5043 60.4551 38.4705 60.4146C38.1798 60.0614 37.879 59.7048 37.5545 59.3938C37.1084 58.9663 36.6555 58.5421 36.2127 58.1095C35.9203 57.8239 35.6145 57.5383 35.3931 57.1715C35.1801 56.8183 34.9081 56.5006 34.516 56.2995C34.1341 56.1018 33.7471 55.9007 33.3854 55.6742C32.9122 55.3785 32.4357 55.1216 31.8999 54.9543C31.0769 54.6958 30.2556 54.4457 29.3785 54.4794C29.3261 54.4811 29.2704 54.4676 29.2214 54.4473C29.0507 54.3747 28.8783 54.4102 28.7042 54.4169C28.4203 54.4271 28.1415 54.5437 27.8677 54.5082C27.5906 54.4727 27.3337 54.5166 27.0667 54.5386C26.8335 54.5589 26.6273 54.6653 26.3991 54.6958C25.7282 54.787 25.1182 55.0828 24.4793 55.2771C23.9436 55.4393 23.4806 55.7435 22.9905 55.997C22.4869 56.2573 22.0306 56.5919 21.5963 56.9535C21.2245 57.2628 20.8459 57.5704 20.5164 57.9236C20.2511 58.2075 19.9317 58.4458 19.7373 58.7939C19.5683 59.0998 19.3301 59.3702 19.2168 59.7014C19.0411 60.2135 18.6913 60.641 18.5899 61.2004C18.4868 61.7682 18.5223 62.3039 18.7132 62.8244C18.8112 63.0915 18.9109 63.3804 19.1611 63.5765C19.6849 63.9838 20.055 64.5431 20.535 64.996C20.7091 65.16 20.9 65.3154 21.047 65.503C21.4357 65.9999 21.8717 66.4528 22.3331 66.882C22.8249 67.34 23.3319 67.7811 23.8355 68.2272C23.9065 68.2898 23.9909 68.3354 24.0602 68.3996C24.4641 68.768 24.9897 68.9404 25.4376 69.2378C26.0544 69.6468 26.7473 69.9459 27.2661 70.4968C27.4232 70.6625 27.621 70.676 27.8271 70.6608C29.1639 70.5695 30.4466 70.8889 31.7377 71.1576C32.2903 71.2725 32.8243 71.4534 33.3719 71.5801C34.3166 71.7998 35.1768 72.2003 35.9524 72.7614C36.4138 73.0943 36.9022 73.1771 37.4345 73.1518L37.4379 73.1501ZM36.0234 89.2063C36.3445 89.1675 36.6673 89.2553 36.9614 89.1404C37.5545 88.9106 38.1967 88.9055 38.7983 88.6875C39.2546 88.5219 39.5723 88.265 39.8005 87.8696C39.9407 87.6262 40.0506 87.3626 40.1706 87.1074C40.6962 85.9988 40.8347 84.8513 40.6032 83.6396C40.4798 82.9924 40.343 82.3451 40.2669 81.6877C40.1993 81.103 40.0945 80.5149 39.8799 79.9673C39.4118 78.7692 38.7172 77.691 38.0176 76.6179C37.6154 76.001 37.127 75.4602 36.571 75.0006C35.971 74.5071 35.3965 73.9731 34.7019 73.5962C34.1188 73.2785 33.5307 72.9963 32.8734 72.8628C32.2329 72.7327 31.5974 72.5822 30.9637 72.4234C30.5987 72.3321 30.2235 72.2257 29.8534 72.2138C29.4275 72.1986 29.0034 72.1378 28.5842 72.1023C27.768 72.033 26.9703 72.1429 26.1659 72.1902C25.7164 72.2172 25.299 72.3913 24.868 72.4994C24.4303 72.6093 23.9842 72.7343 23.5837 72.9354C23.146 73.1551 22.7235 73.4171 22.2976 73.6655C22.1151 73.772 21.9309 73.8734 21.7619 74.017C21.3715 74.3449 21.0301 74.7285 20.6093 75.0209C20.4775 75.1121 20.3119 75.2152 20.2595 75.3504C20.1176 75.7256 19.8337 75.9993 19.6326 76.3306C19.5143 76.5266 19.4196 76.7395 19.276 76.9136C18.7724 77.5186 18.7386 78.1794 18.9938 78.8875C19.0766 79.1156 19.2067 79.3421 19.2219 79.577C19.2472 79.9809 19.4636 80.2445 19.7272 80.5081C20.2511 81.0337 20.8088 81.5306 21.2279 82.1474C21.6808 82.8132 22.2368 83.3827 22.835 83.9083C23.4417 84.4423 24.0704 84.9493 24.7007 85.4546C24.9525 85.6574 25.1638 85.9211 25.4663 86.0478C26.3552 86.4162 27.1089 87.0246 27.9809 87.4217C28.2141 87.5282 28.4558 87.6195 28.6772 87.7462C29.2332 88.0639 29.8433 88.2262 30.4483 88.4104C30.94 88.5608 31.4453 88.6385 31.9557 88.6977C32.6232 88.7754 33.2739 88.9562 33.9448 89.039C34.3064 89.0847 34.6732 89.0627 35.028 89.1387C35.361 89.2114 35.6973 89.2148 36.0234 89.2046V89.2063ZM51.5896 60.4196C51.575 60.8275 51.7654 61.0652 52.1608 61.1328C52.1743 61.1345 52.1862 61.1396 52.1997 61.1413C52.5715 61.2072 52.7185 61.1294 52.852 60.783C52.8959 60.6698 52.9331 60.5531 52.9585 60.4348C53.0903 59.8045 53.2001 59.1708 53.337 58.5404C53.4215 58.15 53.4992 57.7411 53.4266 57.3355C53.2981 56.624 53.1731 55.9159 52.8942 55.2382C52.6036 54.5285 52.4785 53.7578 52.1 53.0802C51.9952 52.8926 51.9107 52.678 51.7603 52.5326C51.3885 52.1744 51.1435 51.7198 50.8038 51.3344C50.4354 50.9136 50.1261 50.4337 49.7425 50.0197C49.4805 49.7357 49.2558 49.4079 48.8975 49.2203C48.4936 49.0091 48.1438 48.7218 47.8007 48.426C47.6672 48.3111 47.5371 48.1945 47.3765 48.1185C46.8425 47.8599 46.3744 47.4932 45.8691 47.189C45.2371 46.8104 44.6506 46.3558 43.9392 46.1159C43.6722 46.0263 43.4119 45.9114 43.1601 45.7897C42.7765 45.6038 42.3793 45.4602 41.994 45.2861C41.7203 45.1627 41.3975 45.161 41.1592 45.0106C40.7891 44.7791 40.3852 44.7014 39.9796 44.6135C39.2462 44.4546 38.5178 44.2704 37.7624 44.2231C37.5765 44.2113 37.4345 44.338 37.2537 44.3042C36.9478 44.2451 36.6487 44.2941 36.3378 44.3347C35.6905 44.4208 35.1311 44.7825 34.4889 44.8585C33.8282 45.2472 33.1944 45.6799 32.5624 46.1125C32.1923 46.366 32.0554 46.8409 31.6498 47.0622C31.5957 47.0927 31.5738 47.2025 31.5569 47.2786C31.5197 47.4442 31.4318 47.5625 31.3051 47.6774C30.8116 48.1303 30.4838 48.6947 30.2928 49.3335C30.2472 49.4873 30.2184 49.6479 30.2843 49.8101C30.4973 50.3323 30.7051 50.8765 31.0583 51.3057C31.7157 52.1034 32.4492 52.8385 33.1387 53.6108C33.3347 53.8288 33.5899 54.0029 33.6913 54.3003C33.7133 54.3662 33.7707 54.4051 33.8299 54.4423C34.2169 54.6873 34.5887 54.9594 34.9909 55.1757C35.3796 55.3853 35.7091 55.6523 35.993 55.9818C36.407 56.4618 36.7974 56.9603 37.2655 57.3912C37.5917 57.6921 37.9179 57.9929 38.2339 58.3038C38.6868 58.7466 39.1025 59.2265 39.5757 59.6507C39.7751 59.8298 39.9914 59.9515 40.2382 60.0191C40.6657 60.1357 41.1 60.2236 41.5276 60.3368C41.9856 60.4585 42.4588 60.4839 42.9218 60.5785C43.5961 60.7171 44.2738 60.8269 44.9565 60.903C45.3706 60.9486 45.7914 60.9672 46.2071 60.9773C46.7259 60.9892 47.2447 60.9368 47.7635 61.023C48.0694 61.0737 48.3888 60.9875 48.6863 61.0297C49.3487 61.1227 49.996 61.0568 50.65 60.9858C50.8612 60.9638 50.9254 60.8861 50.9339 60.6883C50.9457 60.4061 50.9829 60.1239 51.015 59.8417C51.0336 59.6794 51.0691 59.5223 51.1671 59.3854C51.2246 59.3043 51.2972 59.2468 51.4037 59.2553C51.5271 59.2654 51.5964 59.3414 51.6335 59.453C51.6792 59.5848 51.669 59.7183 51.6538 59.8535C51.6318 60.0411 51.6116 60.2287 51.5896 60.4163V60.4196ZM61.606 76.4252C61.6262 76.1852 61.5924 76.0095 61.5316 75.8455C61.388 75.4636 61.3373 75.0614 61.2426 74.6676C61.0905 74.0407 60.9384 73.4137 60.6309 72.8374C60.3199 72.2561 59.9921 71.6883 59.5882 71.1661C59.2519 70.7301 58.8733 70.3346 58.4846 69.9476C58.3697 69.8327 58.1939 69.8006 58.1078 69.6502C57.9759 69.4153 57.7377 69.3054 57.5349 69.1516C57.2628 68.9455 56.9113 68.8965 56.6561 68.67C56.1863 68.2543 55.6286 67.9822 55.0794 67.6983C54.8884 67.6003 54.6805 67.5411 54.4591 67.5191C53.7511 67.4515 53.0413 67.4769 52.3332 67.438C52.1676 67.4296 52.0121 67.4803 51.8617 67.5394C51.7873 67.5681 51.7197 67.6324 51.6352 67.6087C51.2668 67.5073 50.9254 67.6611 50.5807 67.7321C50.1464 67.8216 49.7138 67.9383 49.298 68.092C48.8874 68.2441 48.4564 68.3219 48.0576 68.5331C47.7686 68.6852 47.4475 68.8069 47.1264 68.9134C46.758 69.035 46.4116 69.2311 46.0803 69.4186C45.6055 69.689 45.2252 70.1048 44.8568 70.5121C44.7402 70.6405 44.6625 70.7993 44.5661 70.9413C44.3127 71.3182 44.1589 71.7592 43.831 72.0922C43.537 72.3896 43.3781 72.7665 43.3528 73.1822C43.3257 73.6368 43.0824 73.9917 42.8424 74.3415C42.7359 74.497 42.7224 74.6119 42.7647 74.7826C42.9607 75.5921 43.4018 76.2934 43.7752 77.0184C44.0051 77.4645 44.2552 77.9242 44.6337 78.2825C44.6726 78.318 44.7064 78.3653 44.7267 78.4126C44.9582 78.9517 45.3756 79.3674 45.695 79.8491C45.8218 80.04 45.9756 80.2056 46.1429 80.3662C46.5417 80.7481 46.9067 81.1672 47.4306 81.3903C47.4762 81.4106 47.5117 81.4613 47.5472 81.5018C47.6976 81.6674 47.8852 81.7705 48.0982 81.828C48.3466 81.8973 48.5832 81.9936 48.8062 82.1237C48.9009 82.1795 48.9989 82.2302 49.1087 82.2302C49.4129 82.2302 49.6969 82.3637 49.9487 82.4752C50.5621 82.7456 51.2465 82.8487 51.8059 83.2475C51.9022 83.3168 52.0205 83.376 52.1371 83.3963C52.3095 83.4267 52.4177 83.5247 52.5427 83.6329C52.7337 83.8002 52.9517 83.9387 53.2255 83.9523C53.6429 83.9725 54.0586 84.0097 54.4744 84.0232C54.787 84.0334 55.0996 84.0435 55.3768 84.2058C55.5525 84.3088 55.7536 84.2058 55.9193 84.3088C56.2826 84.5387 56.7169 84.6316 57.0566 84.9088C57.2324 85.0507 57.4791 84.9814 57.665 85.1116C58.1821 85.4749 58.7229 85.3194 59.2485 85.1454C59.8619 84.9426 60.1796 84.4136 60.5244 83.9202C60.9452 83.3219 61.1142 82.6358 61.1936 81.926C61.2173 81.7097 61.3035 81.5137 61.317 81.294C61.3558 80.6484 61.5096 80.0164 61.5384 79.3691C61.5654 78.7641 61.6972 78.1625 61.5603 77.5558C61.5485 77.5051 61.5417 77.4426 61.5603 77.3969C61.6922 77.0572 61.4961 76.699 61.6093 76.4218L61.606 76.4252ZM64.0564 55.7672C64.2693 55.9227 64.4704 56.019 64.6851 56.1001C65.192 56.2911 65.6551 56.5665 66.0691 56.9164C66.2787 57.0921 66.3733 57.567 66.2635 57.7766C66.1604 57.9743 65.8275 58.0892 65.5402 57.9946C65.2343 57.8932 64.9217 57.8053 64.6377 57.6397C63.9449 57.2307 63.1878 56.9907 62.4002 56.8555C62.0961 56.8031 61.775 56.7355 61.4792 56.7862C60.9283 56.8809 60.3486 56.9366 59.8991 57.3405C59.8704 57.3659 59.8281 57.3845 59.7893 57.3912C59.3076 57.4926 59.0727 57.8695 58.8125 58.2345C58.5776 58.5641 58.3967 58.924 58.1804 59.262C57.8238 59.8214 57.6616 60.3977 57.7546 61.0517C57.7681 61.1446 57.7884 61.241 57.7765 61.3322C57.7191 61.775 57.7495 62.2178 57.8222 62.6538C57.959 63.4818 58.2886 64.2592 58.4779 65.0738C58.4981 65.1617 58.564 65.2394 58.6063 65.3239C58.7905 65.6957 58.9984 66.059 59.1488 66.4443C59.3887 67.0595 59.5831 67.6915 59.8535 68.2965C59.9583 68.5297 60.1053 68.7663 60.1272 69.0097C60.1509 69.2801 60.2777 69.4237 60.4737 69.5555C60.6292 69.6603 60.7542 69.7871 60.8522 69.9611C61.0669 70.3447 61.3677 70.6794 61.7902 70.8196C62.7095 71.1255 63.47 71.7305 64.3471 72.1192C65.0467 72.4285 65.7193 72.7969 66.4815 72.9219C67.2115 73.0419 67.945 73.1771 68.6818 73.2143C69.4102 73.2515 70.1335 73.3309 70.8551 73.4171C71.477 73.4914 72.0904 73.412 72.7073 73.4289C72.8442 73.4323 72.9439 73.39 72.9878 73.2515C73.1247 72.8171 73.2937 72.3997 73.2785 71.9232C73.2599 71.3046 73.2261 70.6878 73.2041 70.0693C73.1686 69.0553 73.0841 68.0464 72.8509 67.0595C72.5602 65.8292 72.3524 64.5803 71.815 63.4126C71.5243 62.7788 71.2928 62.1164 70.9768 61.4911C70.8973 61.3356 70.7841 61.1953 70.7165 61.0365C70.4157 60.3284 70.0828 59.6355 69.7262 58.9544C69.4169 58.3613 69.0215 57.8509 68.4959 57.4234C67.9196 56.9535 67.2977 56.5564 66.6775 56.1525C66.4206 55.9852 66.1469 55.8855 65.8511 55.8466C65.383 55.7858 64.9132 55.7351 64.4434 55.6895C64.3285 55.6776 64.2034 55.6438 64.0547 55.7706L64.0564 55.7672ZM74.4682 70.2417C74.6778 69.6333 74.9448 69.057 75.1003 68.425C75.2709 67.7321 75.2777 67.0409 75.3098 66.3446C75.3318 65.8596 75.2202 65.3813 75.1645 64.9014C75.0901 64.2541 74.8535 63.6525 74.6457 63.0441C74.5274 62.6977 74.2992 62.402 74.164 62.0724C73.8176 61.2241 73.4356 60.3926 73.047 59.5628C72.7766 58.9849 72.2915 58.5911 71.8454 58.1652C71.8082 58.1298 71.7423 58.1264 71.7018 58.0926C71.33 57.7884 70.8213 57.9067 70.4241 57.6363C70.3937 57.7799 70.4613 57.8509 70.507 57.9303C70.9311 58.6638 71.2894 59.4327 71.6646 60.1915C71.9096 60.6867 72.1209 61.2021 72.398 61.677C72.6921 62.1823 72.9337 62.7078 73.1027 63.2571C73.5218 64.6209 73.946 65.983 74.142 67.4059C74.2333 68.0616 74.3043 68.7173 74.3313 69.3764C74.3432 69.6721 74.4158 69.9493 74.4665 70.2433L74.4682 70.2417Z" fill="url(#paint1_linear_165_2329)"/>
<path d="M48.5032 89.2331C47.2594 89.2669 45.8972 89.1824 44.5351 89.1452C43.5769 89.1198 42.6289 88.9559 41.6876 88.7785C41.6081 88.7633 41.5236 88.748 41.4577 88.7075C41.2549 88.5858 41.2685 88.3289 41.478 88.2208C41.6048 88.1566 41.7416 88.1599 41.8752 88.1836C43.5448 88.4827 45.2314 88.4996 46.9197 88.4861C47.8779 88.4793 48.8378 88.503 49.796 88.4692C50.6308 88.4405 51.4673 88.4337 52.2988 88.3272C52.5117 88.3002 52.7297 88.3154 52.946 88.3222C53.0846 88.3272 53.2283 88.3594 53.2638 88.5182C53.2993 88.6754 53.1793 88.7666 53.0677 88.8427C52.8497 88.9914 52.5962 89.0522 52.341 89.0708C51.104 89.1638 49.867 89.2686 48.5032 89.2314V89.2331Z" fill="url(#paint2_linear_165_2329)"/>
<path d="M11.7889 68.5518C11.9477 68.5551 12.0373 68.6734 12.0998 68.8137C12.2147 69.0723 12.328 69.3325 12.4277 69.5995C12.8011 70.6067 13.3504 71.5193 13.9216 72.4218C14.7023 73.6537 15.4747 74.8908 16.2926 76.0974C16.3991 76.2563 16.4886 76.4202 16.5376 76.6061C16.5664 76.7159 16.5765 76.8224 16.4819 76.9069C16.372 77.0066 16.2487 76.9728 16.1439 76.9069C15.8448 76.7142 15.6183 76.4438 15.4138 76.1582C14.5908 75.0023 13.8658 73.7855 13.1037 72.5907C12.4547 71.5717 11.9376 70.4918 11.608 69.3274C11.5641 69.172 11.5185 69.0131 11.5066 68.8543C11.4948 68.6802 11.6182 68.5619 11.7889 68.5568V68.5518Z" fill="url(#paint3_linear_165_2329)"/>
<path d="M72.8329 76.0905C72.8278 76.1159 72.8244 76.1429 72.8176 76.1683C72.7703 76.3271 72.5523 76.5181 72.4188 76.5231C72.358 76.5248 72.3208 76.4961 72.3022 76.4386C72.2549 76.2916 72.3715 75.9976 72.5118 75.9097C72.5827 75.8658 72.6588 75.8438 72.7365 75.8877C72.816 75.9317 72.8345 76.0077 72.8345 76.0905H72.8329Z" fill="url(#paint4_linear_165_2329)"/>
<path d="M34.5302 62.8042C34.5167 63.563 34.2547 64.1781 33.692 64.6412C33.5297 64.7747 33.4368 64.9048 33.4655 65.1178C33.4774 65.209 33.4402 65.3087 33.4554 65.4C33.5602 65.9864 33.3185 66.4866 33.0599 66.9767C32.8487 67.3789 32.4837 67.6087 32.0629 67.7541C31.9986 67.7761 31.926 67.7761 31.8685 67.8048C31.3193 68.087 30.8495 67.8673 30.4084 67.5597C30.2428 67.4448 30.04 67.4262 29.8811 67.2775C29.6158 67.0291 29.4502 66.735 29.3302 66.4038C29.2711 66.2382 29.2085 66.1689 28.9804 66.2365C28.5342 66.3683 28.0712 66.463 27.5929 66.3075C26.9119 66.0861 26.3086 65.3121 26.4809 64.5229C26.5739 64.1038 26.579 63.6644 26.8561 63.3027C26.9271 63.2098 26.9153 63.0999 26.9 62.9918C26.873 62.8042 26.8595 62.6149 26.8257 62.4307C26.6888 61.6922 26.9626 61.0788 27.4256 60.5414C27.8887 60.004 28.4751 59.8586 29.1409 60.1239C29.3268 60.1983 29.4384 60.1391 29.5651 60.0107C29.9082 59.6592 30.3205 59.4682 30.8258 59.4581C31.784 59.4395 32.1828 59.8688 32.3654 60.7222C32.4363 61.0568 32.4262 61.0602 32.7676 61.0247C33.5061 60.9469 34.1009 61.3407 34.3561 62.0556C34.4474 62.3124 34.4998 62.5744 34.5302 62.8076V62.8042ZM31.228 61.2832C31.228 61.1396 31.2314 61.0585 31.228 60.9774C31.2196 60.7864 31.2162 60.5785 31.01 60.4907C30.7802 60.3926 30.547 60.3707 30.3222 60.5414C30.1803 60.6495 30.1363 60.7526 30.2107 60.9199C30.2597 61.0298 30.2884 61.1497 30.3087 61.2697C30.3729 61.6686 30.0484 61.9508 29.6665 61.8359C29.5076 61.7885 29.3691 61.7057 29.2525 61.5908C29.0936 61.437 28.8857 61.3661 28.7032 61.2545C28.5765 61.1768 28.4362 61.1819 28.3365 61.3035C28.0779 61.6179 27.838 61.9423 27.8228 62.3766C27.816 62.5592 27.8599 62.7163 27.9985 62.8515C28.4007 63.2419 28.4261 63.3636 28.1151 63.8131C27.9647 64.0311 27.8785 64.2677 27.8042 64.5094C27.7298 64.7561 27.9056 64.9707 28.1641 64.9674C28.2841 64.9674 28.4024 64.9251 28.5241 64.915C28.8418 64.8879 29.097 64.6834 29.4046 64.6226C29.8389 64.5364 30.2647 64.7155 30.4388 65.0603C30.5284 65.2377 30.5047 65.4287 30.5132 65.6163C30.5267 65.9188 30.6078 66.1723 30.9272 66.2872C30.9999 66.3142 31.0573 66.3802 31.1232 66.4275C31.3835 66.6151 31.8618 66.5542 32.0088 66.2771C32.1659 65.9847 32.3113 65.6687 32.1964 65.3138C32.1254 65.0958 32.0392 64.8829 31.9902 64.6615C31.904 64.2711 31.9902 64.1072 32.3248 63.8976C32.4397 63.8249 32.5648 63.7742 32.6797 63.7083C33.2712 63.3687 33.4419 62.8549 33.2492 62.2313C33.2137 62.1164 33.1377 62.0539 33.0261 62.0218C32.5935 61.8967 32.2268 62.0589 32.0358 62.4628C32.0003 62.5355 31.9699 62.6132 31.9226 62.6775C31.7908 62.86 31.539 62.9394 31.3497 62.8684C31.108 62.7755 30.9931 62.5947 31.0269 62.331C31.0455 62.184 31.0725 62.0353 31.1232 61.8967C31.2027 61.677 31.2382 61.4539 31.2331 61.2849L31.228 61.2832Z" fill="url(#paint5_linear_165_2329)"/>
<path d="M38.9468 70.855C38.9147 71.2031 38.891 71.5529 38.8471 71.8994C38.8218 72.1005 38.7592 72.2915 38.5632 72.4081C38.4314 72.4858 38.308 72.4841 38.183 72.4081C38.0647 72.3371 38.0106 72.2154 38.0528 72.0954C38.2134 71.6307 38.1694 71.1355 38.2759 70.6623C38.3046 70.5305 38.3351 70.3987 38.4094 70.2838C38.4702 70.1908 38.548 70.1114 38.6697 70.1232C38.7947 70.1351 38.8505 70.2297 38.8877 70.3345C38.9485 70.5035 38.9451 70.6775 38.9451 70.8533L38.9468 70.855Z" fill="url(#paint6_linear_165_2329)"/>
<path d="M27.4563 78.1488C27.4766 77.5454 27.6726 77.0216 27.9937 76.5433C28.4889 75.8065 29.3254 75.5597 30.118 75.9197C30.3326 76.0177 30.4898 76.1749 30.6081 76.3844C30.8159 76.7478 30.8294 76.7444 31.2063 76.6126C31.4361 76.5315 31.671 76.474 31.9127 76.4368C32.4433 76.3574 32.9419 76.665 33.1058 77.1821C33.2647 77.6806 33.3154 78.1842 33.1244 78.6879C33.0399 78.9092 33.045 79.0816 33.2664 79.2455C33.508 79.4264 33.628 79.7035 33.699 80.0043C33.7936 80.4048 33.8325 80.824 33.7531 81.2093C33.6179 81.8717 33.2985 82.4514 32.6039 82.7083C32.2558 82.8367 31.9212 83.0395 31.5206 82.9127C31.3601 82.862 31.3195 82.9972 31.2621 83.1054C31.0694 83.4704 30.8176 83.778 30.4492 83.9808C30.0622 84.1937 29.6668 84.2563 29.2443 84.0991C28.3824 83.7797 27.7825 83.2457 27.7351 82.2621C27.725 82.0492 27.5932 82.0272 27.4343 82.0289C27.0811 82.034 26.7414 81.9782 26.4035 81.8599C25.7241 81.6216 25.1918 80.6989 25.3658 79.9993C25.4114 79.8167 25.425 79.6258 25.4486 79.4399C25.5095 78.9768 25.8137 78.7149 26.1483 78.4546C26.5302 78.1589 26.9459 78.0322 27.458 78.1454L27.4563 78.1488ZM29.1277 81.723C29.1277 81.8717 29.1226 82.0204 29.1277 82.1675C29.1395 82.4852 29.4285 82.8097 29.731 82.8908C30.1197 82.9939 30.5979 82.5646 30.4019 82.1675C30.3225 82.0069 30.2734 81.8379 30.3039 81.6588C30.3326 81.4797 30.4019 81.2752 30.6114 81.2938C30.9494 81.3242 31.3077 81.2312 31.617 81.4915C31.8333 81.6723 32.3757 81.5709 32.538 81.3546C32.8253 80.9727 32.9622 80.5519 32.827 80.0719C32.7729 79.8776 32.6394 79.8083 32.4602 79.8962C32.3876 79.9317 32.3301 79.9942 32.2591 80.0314C31.8062 80.2781 31.3297 80.393 30.8176 80.2561C30.4188 80.1497 30.2937 79.6545 30.5759 79.3621C30.7754 79.156 31.0424 79.1002 31.2942 79.0073C31.8789 78.7893 32.2389 78.2299 32.1983 77.6215C32.1865 77.4542 32.1375 77.3427 31.9482 77.3156C31.399 77.2396 30.9883 77.4964 30.8869 78.0372C30.7872 78.5712 30.5962 79.0444 30.1771 79.4078C30.0538 79.5142 30.025 79.6275 30.1704 79.7424C30.3258 79.8658 30.4053 80.0415 30.456 80.2223C30.5388 80.5147 30.3495 80.7344 30.047 80.7175C29.7546 80.7006 29.4606 80.4302 29.3744 80.1514C29.295 79.8945 29.5823 79.7001 29.5028 79.5109C29.4082 79.2827 29.349 79.0918 29.4403 78.8602C29.5552 78.5729 29.6701 78.284 29.7783 77.9933C29.8915 77.6908 29.8797 77.3849 29.785 77.079C29.7428 76.9404 29.6651 76.8306 29.5147 76.8069C29.2527 76.7664 28.9671 76.7714 28.8015 76.9928C28.4111 77.51 28.1492 78.0795 28.3537 78.7555C28.4449 79.0546 28.3587 79.2286 28.0596 79.2185C27.6388 79.2033 27.311 79.4112 26.9662 79.592C26.9054 79.6241 26.8513 79.663 26.8242 79.7289C26.5843 80.2916 26.6451 80.7006 27.2957 80.8983C27.4276 80.9389 27.5611 80.949 27.6963 80.9237C27.9075 80.8831 28.112 80.8358 28.3114 80.7361C28.7221 80.5316 28.9654 80.6533 29.1293 81.0825C29.2122 81.3005 29.1006 81.5118 29.1243 81.723H29.1277Z" fill="url(#paint7_linear_165_2329)"/>
<path d="M39.5952 50.6332C39.7997 50.7261 39.94 50.596 40.0938 50.4118C40.4199 50.0265 40.8542 49.7814 41.3545 49.7713C41.7956 49.7612 42.2654 49.7105 42.6642 50.0079C42.7926 50.1042 42.9464 50.1684 43.0934 50.2327C43.5092 50.4152 43.7677 50.7633 44.0094 51.1182C44.1885 51.3818 44.2274 51.6995 44.1801 52.0139C44.1497 52.215 44.1919 52.3214 44.3863 52.4296C44.8882 52.7101 45.2938 53.376 45.0943 54.0367C44.9693 54.4491 44.8544 54.8293 44.4877 55.093C44.3085 55.2214 44.1006 55.2822 43.9029 55.3684C43.7103 55.4529 43.6224 55.5763 43.6613 55.7757C43.7407 56.1745 43.5345 56.4821 43.3436 56.7897C43.2033 57.0161 42.9887 57.1378 42.7284 57.2156C42.0423 57.42 41.4271 57.2933 40.8661 56.8657C40.714 56.7491 40.5585 56.7136 40.3743 56.7846C40.0515 56.9097 39.7085 56.9097 39.3738 56.8978C38.9852 56.8843 38.6708 56.6427 38.3734 56.4196C38.0709 56.1931 37.8698 55.8619 37.618 55.5814C37.4405 55.382 37.4388 55.1183 37.4659 54.8868C37.498 54.6147 37.5233 54.3308 37.6957 54.0824C37.9053 53.7799 37.8884 53.7275 37.6569 53.447C37.4 53.136 37.329 52.7676 37.3645 52.384C37.4051 51.9277 37.6062 51.5238 37.8951 51.179C38.1689 50.8495 38.512 50.623 38.9835 50.6619C39.1677 50.6771 39.3553 50.6028 39.5902 50.6315L39.5952 50.6332ZM39.2758 51.5373C39.0849 51.5373 38.9176 51.5322 38.7824 51.6911C38.4275 52.1085 38.4782 52.5935 38.926 52.9011C39.0156 52.9619 39.1102 53.0143 39.2015 53.0701C39.2826 53.1191 39.3569 53.1732 39.4009 53.2627C39.5902 53.643 39.5141 54.1534 39.2234 54.466C39.1322 54.564 39.0528 54.6739 38.9716 54.782C38.9294 54.8378 38.9192 54.902 38.948 54.973C39.0798 55.2941 39.58 55.4969 39.9163 55.3498C40.0887 55.2755 40.2459 55.169 40.4064 55.0676C40.834 54.7989 41.1736 54.9003 41.4035 55.3498C41.4339 55.409 41.4525 55.4749 41.4626 55.5408C41.4846 55.6997 41.5877 55.774 41.7313 55.8011C41.8767 55.8298 42.0237 55.8501 42.1707 55.8737C42.3532 55.9025 42.4428 55.8061 42.4884 55.6388C42.5543 55.3938 42.5087 55.1555 42.4563 54.9206C42.338 54.4001 42.5374 54.1246 43.0715 54.0841C43.2185 54.0722 43.3706 54.0756 43.5125 54.0367C43.69 53.9877 43.766 53.8458 43.7576 53.6633C43.7491 53.496 43.6342 53.4368 43.4906 53.4098C43.4382 53.3996 43.3824 53.3996 43.33 53.3861C42.8873 53.2763 42.7081 52.989 42.8078 52.5428C42.8349 52.4245 42.8754 52.3096 42.8991 52.1913C42.9278 52.0443 42.9278 51.8956 42.8568 51.7553C42.6997 51.4444 42.0693 51.1368 41.7246 51.1909C41.4863 51.228 41.3021 51.3244 41.1534 51.5289C40.7529 52.0747 40.4081 52.1187 39.8758 51.7148C39.6932 51.5762 39.4769 51.5627 39.2775 51.539L39.2758 51.5373Z" fill="url(#paint8_linear_165_2329)"/>
<path d="M51.0572 55.0437C51.0572 55.1164 51.0589 55.1434 51.0572 55.1688C51.042 55.3192 51.0285 55.4797 50.8459 55.5203C50.6803 55.5575 50.6043 55.4223 50.5333 55.3107C50.4015 55.1029 50.3508 54.8612 50.2747 54.6314C50.0212 53.8709 49.6866 53.151 49.2185 52.5003C48.9752 52.1624 48.6946 51.848 48.3972 51.554C48.235 51.3934 48.0643 51.2346 47.9629 51.0233C47.8953 50.8831 47.8632 50.7327 48.0085 50.6194C48.1488 50.5096 48.2941 50.5501 48.4124 50.6617C48.6574 50.8949 48.8907 51.1382 49.134 51.3715C50.1193 52.3212 50.6584 53.5143 51.0183 54.8071C51.0437 54.8967 51.0504 54.993 51.0589 55.042L51.0572 55.0437Z" fill="url(#paint9_linear_165_2329)"/>
<path d="M55.0194 73.6432C55.0143 73.9018 54.9603 74.1536 54.9096 74.4054C54.749 75.225 54.2217 75.6661 53.4393 75.8824C53.13 75.9686 52.8242 75.9348 52.5183 75.9703C52.3628 75.9872 52.2411 76.0109 52.1532 76.1663C51.9995 76.435 51.7375 76.5719 51.4553 76.6885C50.9162 76.9116 50.3619 76.9285 49.7958 76.8575C49.7552 76.8525 49.7163 76.8423 49.6758 76.8406C49.4645 76.8305 49.2246 76.9184 49.0572 76.7375C48.8223 76.4824 48.5401 76.2458 48.4979 75.8672C48.4691 75.6087 48.3323 75.4785 48.0923 75.3771C47.5887 75.1659 47.2372 74.789 47.0107 74.282C46.8113 73.8359 46.617 73.3948 46.5679 72.9013C46.5308 72.5279 46.5865 72.1696 46.7167 71.8282C46.8383 71.5071 47.0192 71.2182 47.4231 71.1911C47.6343 71.1759 47.7611 71.0559 47.832 70.8548C47.876 70.7281 47.9436 70.6081 48.0145 70.4949C48.2393 70.1433 48.5165 69.8611 48.9609 69.802C49.135 69.78 49.3074 69.7462 49.4781 69.7056C49.9884 69.584 50.4717 69.633 50.9094 69.9389C51.0548 70.0403 51.1748 70.0757 51.3522 69.9862C52.2141 69.5417 53.0726 70.1045 53.5018 70.6943C53.6674 70.9224 53.8212 71.1641 53.7908 71.4733C53.779 71.6001 53.8347 71.7032 53.9581 71.7725C54.0747 71.8384 54.1677 71.9465 54.2877 72.0057C54.7862 72.2524 54.8538 72.7594 55.0143 73.2055C55.0617 73.3374 55.0211 73.4979 55.0211 73.6466L55.0194 73.6432ZM52.2952 74.6183C52.5335 74.6251 52.7735 74.6014 53.0117 74.5491C53.2551 74.495 53.4089 74.3547 53.5221 74.1367C53.7553 73.6821 53.7181 73.2174 53.1875 72.9385C53.1165 72.9013 53.0489 72.8574 52.983 72.8101C52.6839 72.5972 52.4372 72.3623 52.5757 71.9415C52.6045 71.8536 52.5893 71.7539 52.6062 71.6609C52.64 71.4716 52.5791 71.3263 52.4439 71.1877C52.329 71.0711 52.2107 70.9647 52.0721 70.8802C51.8305 70.7331 51.6682 70.8075 51.6175 71.0863C51.5398 71.5173 51.1173 71.7116 50.7388 71.4919C50.6559 71.4446 50.5867 71.3838 50.5258 71.3094C50.4075 71.1641 50.2926 71.0137 50.154 70.8869C49.9901 70.7365 49.0234 70.7872 48.8832 70.963C48.7429 71.1387 48.5739 71.2993 48.5148 71.5359C48.4421 71.8232 48.2782 72.0429 47.9909 72.1595C47.778 72.2456 47.6985 72.413 47.6985 72.6411C47.6985 73.0788 47.8861 73.4506 48.094 73.8139C48.3272 74.2229 48.4184 74.255 48.8798 74.1553C49.1992 74.086 49.3885 74.1722 49.5456 74.4561C49.6335 74.615 49.6437 74.7873 49.6521 74.9648C49.6656 75.2419 49.7434 75.3231 50.0188 75.3416C50.2858 75.3602 50.5562 75.3619 50.8249 75.3636C51.0075 75.3636 51.1883 75.3231 51.2745 75.1456C51.484 74.713 51.8085 74.5169 52.2952 74.6217V74.6183Z" fill="url(#paint10_linear_165_2329)"/>
<path d="M58.9848 77.9614C58.9848 78.2571 58.9848 78.5546 58.9848 78.8503C58.9848 78.972 58.978 79.092 58.9172 79.2035C58.8479 79.3319 58.7549 79.4198 58.5978 79.3978C58.4457 79.3776 58.351 79.2897 58.3308 79.1376C58.2919 78.8435 58.2496 78.5495 58.2277 78.2554C58.1702 77.5034 58.1499 76.7514 58.0316 76.0027C57.9471 75.4687 57.8373 74.9431 57.7089 74.4192C57.6767 74.2874 57.6413 74.1573 57.6565 74.0204C57.6683 73.9055 57.7105 73.8109 57.8255 73.7669C57.9404 73.723 58.0384 73.7669 58.1195 73.8463C58.2902 74.012 58.3595 74.23 58.422 74.453C58.7465 75.6005 58.9239 76.7683 58.9848 77.9597V77.9614Z" fill="url(#paint11_linear_165_2329)"/>
<path d="M57.5684 83.6563C57.5717 83.3267 57.6545 83.0817 57.7188 82.8333C57.8117 82.4665 57.8979 82.0981 57.9925 81.7331C58.0399 81.5506 58.0906 81.3664 58.2308 81.2261C58.3086 81.1484 58.3947 81.0706 58.513 81.0994C58.6499 81.1332 58.6939 81.2532 58.7158 81.3765C58.7463 81.554 58.7074 81.7263 58.6702 81.8987C58.5316 82.5189 58.3508 83.1273 58.2596 83.7577C58.219 84.0382 58.0872 84.1582 57.8878 84.1548C57.7086 84.1514 57.5853 83.9774 57.57 83.7087C57.5684 83.6681 57.57 83.6275 57.57 83.6563H57.5684Z" fill="url(#paint12_linear_165_2329)"/>
<path d="M59.6833 64.4397C59.7543 63.9429 59.734 63.4477 59.9942 63.01C60.1007 62.8309 60.0821 62.6822 59.8861 62.5689C59.6816 62.4523 59.5565 62.2495 59.4163 62.0704C59.2456 61.8524 59.1543 61.5938 59.2084 61.3116C59.2895 60.8925 59.4298 60.4903 59.7898 60.2334C60.3255 59.8532 60.8004 59.3851 61.4138 59.1079C61.7552 58.9541 62.0763 58.851 62.4599 58.9034C62.8367 58.9541 63.2052 59.0217 63.5668 59.1333C64.0484 59.2803 64.378 59.5794 64.3847 60.1134C64.3881 60.4126 64.5537 60.5326 64.7853 60.6525C65.5559 61.0514 66.0696 61.9149 65.8871 62.792C65.8094 63.1655 65.7384 63.5322 65.4866 63.8364C65.3987 63.9429 65.3497 64.0409 65.3852 64.2014C65.517 64.7794 65.4528 65.3253 65.1959 65.8829C64.9576 66.4018 64.5859 66.6755 64.0822 66.8496C63.8203 66.9392 63.5736 66.9273 63.337 66.809C63.0497 66.6637 62.7455 66.5387 62.4988 66.324C62.3061 66.1567 62.1067 66.1145 61.8633 66.1922C61.3648 66.3511 60.8882 66.2176 60.4624 65.9793C59.8709 65.648 59.7137 65.0599 59.6833 64.4414V64.4397ZM60.6432 63.8482C60.6483 63.9429 60.6584 64.0358 60.6601 64.1305C60.6736 64.9974 61.1586 65.2847 61.9039 65.0177C62.1439 64.9315 62.3754 64.9433 62.6052 65.0633C62.9027 65.2188 63.2102 65.3591 63.5077 65.5162C63.6209 65.5754 63.7105 65.6278 63.8389 65.5416C64.2445 65.2695 64.4067 64.6814 64.1498 64.2657C63.9707 63.975 64.0451 63.7232 64.2073 63.4765C64.2867 63.3548 64.4202 63.2669 64.5149 63.1587C65.0066 62.5943 64.7565 61.7797 64.1194 61.6412C63.3556 61.4755 63.2728 61.342 63.2238 60.5714C63.2187 60.5038 63.2271 60.4362 63.2271 60.3686C63.2271 60.296 63.1933 60.2419 63.1393 60.1963C62.9128 60.0002 62.2453 59.9968 62.007 60.1963C61.6284 60.5157 61.2127 60.7522 60.7108 60.7996C60.486 60.8198 60.3863 60.9787 60.3136 61.1561C60.2393 61.3387 60.2984 61.5009 60.437 61.6344C60.4962 61.6902 60.5553 61.7442 60.6161 61.8C61.0048 62.1566 61.1029 62.5318 60.8122 63.1148C60.6939 63.3531 60.6009 63.5795 60.6432 63.8482V63.8482Z" fill="url(#paint13_linear_165_2329)"/>
<path d="M30.4917 62.8582C30.7773 62.8396 30.9497 63.0086 31.0595 63.2367C31.1744 63.4733 31.3553 63.7353 31.1559 63.9921C30.9598 64.2456 30.6894 64.1003 30.4427 64.0479C30.2095 63.9972 30.0168 63.8772 29.8478 63.72C29.6349 63.5223 29.6433 63.2739 29.8698 63.0998C30.0506 62.9613 30.2348 62.8125 30.49 62.8565L30.4917 62.8582Z" fill="url(#paint14_linear_165_2329)"/>
<path d="M41.2624 52.2347C41.8437 52.1604 42.3946 53.0746 42.2341 53.558C42.1259 53.8824 41.7474 54.114 41.4077 54.0481C41.1694 54.0024 40.9294 53.9568 40.7013 53.8791C40.3244 53.7523 40.0642 53.4397 40.1047 53.1017C40.1436 52.7688 40.3278 52.5034 40.6692 52.3784C40.8602 52.3074 41.0494 52.2415 41.2624 52.2347V52.2347Z" fill="url(#paint15_linear_165_2329)"/>
<path d="M49.8447 72.8542C49.8227 72.2526 50.6356 71.5816 51.3065 72.0143C51.4653 72.1157 51.6377 72.1951 51.7966 72.2948C52.0872 72.4773 52.2562 72.8643 52.1819 73.2074C52.1058 73.5589 51.9182 73.7887 51.5346 73.8918C51.1578 73.9915 50.8147 73.9915 50.4835 73.8073C50.1151 73.6011 49.8683 73.2969 49.8447 72.8542V72.8542Z" fill="url(#paint16_linear_165_2329)"/>
<path d="M63.0766 63.1892C63.0732 63.7672 62.6 64.0511 62.1082 63.7587C61.6468 63.4833 61.2734 62.8664 61.4525 62.1549C61.5252 61.866 61.7837 61.7375 62.0879 61.8288C62.5797 61.9758 63.0799 62.6653 63.0782 63.1892H63.0766Z" fill="url(#paint17_linear_165_2329)"/>
<path d="M100.717 38.7676C100.696 39.5579 100.827 40.335 100.96 41.1102C101.025 41.4836 101.086 41.8551 101.09 42.236C101.093 42.5829 101.151 42.9278 101.204 43.2728C101.289 43.8243 101.375 44.3815 101.373 44.9349C101.371 45.5016 101.446 46.0627 101.584 46.5915C101.839 47.5637 101.9 48.5569 102.045 49.5406C102.134 50.1395 102.317 50.7138 102.466 51.2956C102.525 51.5231 102.488 51.7448 102.54 51.9666C102.717 52.7285 102.812 53.5094 103.122 54.2372C103.162 54.3319 103.164 54.4437 103.185 54.5461C103.331 55.2208 103.586 55.8652 103.781 56.5267C103.902 56.9437 103.98 57.3739 104.064 57.8022C104.171 58.3443 104.416 58.8598 104.742 59.3185C105.193 59.9591 105.543 60.6623 105.986 61.3067C106.213 61.6346 106.477 61.9397 106.725 62.2525C106.862 62.4268 106.911 62.6486 107.086 62.8097C107.394 63.0902 107.63 63.4408 107.954 63.71C108.068 63.8047 108.15 63.9393 108.243 64.0587C108.673 64.6083 109.094 65.1599 109.682 65.573C110.034 65.8213 110.319 66.1682 110.565 66.534C110.807 66.896 110.712 67.3205 110.776 67.7166C110.898 68.4653 110.788 69.2253 110.881 69.9759C110.951 70.552 111.123 71.0486 111.617 71.4163C112.047 71.7347 112.497 71.9603 113.035 72.0247C113.309 72.0569 113.555 72.2104 113.836 72.2692C114.58 72.4265 115.332 72.5535 116.084 72.6293C116.459 72.6672 116.851 72.7961 117.241 72.69C117.269 72.6824 117.302 72.6843 117.332 72.69C117.688 72.7601 118.036 72.7696 118.406 72.7544C118.925 72.7336 119.46 72.8037 119.985 72.9022C120.482 72.9951 120.998 73.069 121.502 72.8947C121.591 72.8643 121.685 72.8605 121.772 72.8928C122.008 72.9818 122.25 72.9667 122.491 72.9326C122.941 72.8719 123.403 72.9686 123.843 72.8056C123.93 72.7734 124.022 72.7999 124.111 72.8245C124.183 72.8454 124.28 72.8871 124.33 72.8586C124.642 72.6653 124.992 72.6445 125.335 72.6691C125.734 72.6975 126.117 72.4872 126.518 72.6141C126.585 72.635 126.671 72.6179 126.743 72.6047C127.622 72.4455 128.499 72.2768 129.379 72.1214C129.752 72.055 130.136 72.0664 130.503 71.9641C130.93 71.8446 131.377 71.8295 131.796 71.6362C132.117 71.4883 132.5 71.4618 132.859 71.4049C133.337 71.331 133.746 71.1244 134.091 70.7984C134.212 70.6828 134.367 70.626 134.488 70.5009C134.797 70.1862 134.928 69.7958 134.956 69.3921C135.008 68.6283 135.35 67.9649 135.623 67.2826C135.9 66.5889 136.205 65.899 136.622 65.2698C136.772 65.0424 136.924 64.8301 137.143 64.6538C137.4 64.4453 137.63 64.1989 137.754 63.8786C137.811 63.7308 137.916 63.6209 138.022 63.5147C138.755 62.7756 139.372 61.9473 139.998 61.1191C140.462 60.505 140.869 59.853 141.334 59.2408C141.739 58.7044 142.152 58.1491 142.424 57.5426C142.647 57.046 142.879 56.557 143.151 56.0908C143.456 55.5677 143.686 55.0161 143.924 54.4646C144.04 54.1936 144.063 53.9074 144.143 53.6326C144.344 52.937 144.575 52.2509 144.651 51.5193C144.683 51.2009 144.757 50.8654 144.904 50.564C144.93 50.5091 144.98 50.4522 144.974 50.3991C144.917 49.7964 145.132 49.224 145.184 48.6327C145.235 48.0414 145.21 47.4557 145.222 46.8663C145.237 46.0058 145.197 45.1434 145.231 44.283C145.244 43.9589 145.18 43.6215 145.199 43.2917C145.241 42.5829 145.088 41.8854 145.104 41.1746C145.119 40.4696 144.967 39.7626 144.923 39.0538C144.883 38.3866 144.744 37.7346 144.654 37.0751C144.632 36.9102 144.594 36.7453 144.594 36.5804C144.594 35.2878 143.985 34.3098 143.006 33.5232C142.222 32.894 141.362 32.4031 140.424 32.0316C139.562 31.6905 138.709 31.3417 137.803 31.1257C137.33 31.0119 137.261 30.8395 137.48 30.4092C137.596 30.178 137.693 29.943 137.777 29.6966C137.988 29.0692 138.228 28.4514 138.428 27.8202C138.599 27.2782 138.882 26.7797 139.048 26.2452C139.259 25.5648 139.573 24.9242 139.739 24.2305C139.855 23.7472 140 23.2753 140.243 22.8356C140.329 22.682 140.363 22.4925 140.39 22.3143C140.462 21.814 140.732 21.3743 140.835 20.8947C140.993 20.1632 141.265 19.4562 141.339 18.7057C141.343 18.6602 141.326 18.6071 141.345 18.5711C141.729 17.813 141.554 16.9639 141.729 16.1716C141.809 15.8058 141.781 15.4306 141.748 15.0515C141.726 14.7634 141.722 14.4658 141.703 14.1721C141.625 13.0709 141.181 12.0891 140.681 11.1377C140.367 10.5425 139.834 10.1142 139.288 9.72754C139.132 9.61762 138.915 9.59866 138.744 9.50579C138.266 9.24613 137.724 9.15137 137.246 8.89929C136.958 8.99406 136.726 8.67185 136.407 8.81211C136.232 8.88981 136.003 8.73629 135.788 8.72492C135.017 8.67943 134.289 8.8955 133.55 9.04144C133.091 9.13241 132.709 9.42998 132.323 9.68585C131.434 10.2753 130.831 11.1282 130.231 11.9754C129.892 12.4549 129.704 13.0254 129.531 13.5845C129.459 13.8176 129.32 14.0299 129.264 14.246C129.154 14.6895 128.929 15.0818 128.796 15.5102C128.507 16.4408 128.355 17.4093 128.018 18.3285C127.991 18.3986 127.959 18.4725 127.959 18.5465C127.959 18.8383 127.871 19.1037 127.78 19.3804C127.575 19.9907 127.474 20.637 127.384 21.2681C127.291 21.9296 127.129 22.5721 127.028 23.2298C126.956 23.6922 126.834 24.1471 126.771 24.6096C126.669 25.3829 126.608 26.1637 126.509 26.937C126.44 27.4696 126.444 28.0155 126.231 28.5234C126.159 28.6959 126.216 28.8854 126.187 29.0636C126.14 29.363 126.058 29.4294 125.765 29.4142C124.737 29.3611 123.708 29.3517 122.678 29.3839C121.877 29.4085 121.072 29.3915 120.271 29.4275C119.315 29.4711 118.36 29.5052 117.408 29.6208C116.263 29.761 115.115 29.8823 113.97 30.0188C113.791 30.0397 113.617 30.1003 113.441 30.1306C112.862 30.2254 112.276 30.2841 111.705 30.413C110.58 30.6689 109.457 30.9342 108.344 31.2413C107.2 31.5578 106.099 31.9842 105 32.4183C104.315 32.6893 103.684 33.0968 103.076 33.5289C102.591 33.8739 102.15 34.2586 101.767 34.7135C101.417 35.1286 101.177 35.5872 101.093 36.1274C101.061 36.3359 100.985 36.5368 100.934 36.7415C100.762 37.4067 100.783 38.0929 100.726 38.7695L100.717 38.7676ZM102.311 39.0633C102.713 39.3665 103.056 39.6015 103.333 39.918C103.411 40.0071 103.476 40.1436 103.623 40.081C103.843 39.9863 104.125 40.1057 104.304 39.882C104.652 39.4442 104.45 38.8586 103.899 38.7183C103.809 38.6956 103.731 38.6558 103.649 38.6141C103.141 38.3582 102.791 37.9393 102.504 37.4731C102.144 36.8855 102.224 36.2051 102.643 35.6631C103.175 34.9751 103.887 34.5031 104.626 34.0918C105.659 33.5157 106.772 33.0949 107.908 32.7708C108.826 32.5092 109.743 32.2363 110.675 32.0184C111.204 31.8952 111.751 31.8876 112.282 31.7587C113.195 31.5369 114.135 31.4479 115.064 31.3095C115.559 31.2356 116.055 31.1617 116.556 31.1219C117.509 31.0461 118.463 30.9816 119.418 30.9342C120.187 30.8963 120.95 30.7807 121.725 30.8186C122.162 30.8395 122.604 30.8546 123.038 30.8167C123.867 30.7428 124.691 30.8527 125.517 30.8641C125.831 30.8679 125.864 30.9001 125.814 31.2147C125.683 32.0203 125.55 32.8239 125.413 33.6294C125.314 34.2075 125.133 34.7666 125.07 35.3541C125.009 35.936 124.929 36.5273 124.768 37.0883C124.507 37.9924 124.337 38.9097 124.189 39.8346C124.086 40.4753 123.94 41.1083 123.816 41.7451C123.772 41.9707 123.645 42.0882 123.407 42.0825C123.239 42.0787 123.072 42.0787 122.904 42.0939C122.375 42.1394 121.846 42.109 121.317 42.1071C120.817 42.1071 120.318 42.1375 119.818 42.0882C119.292 42.037 118.761 41.9783 118.236 41.9953C117.519 42.0181 116.811 41.9271 116.103 41.8626C114.957 41.7584 113.81 41.6447 112.67 41.4779C112.162 41.404 111.65 41.3338 111.144 41.2542C110.274 41.1197 109.416 40.9074 108.561 40.6913C107.442 40.4089 106.336 40.0716 105.267 39.63C105.113 39.5655 104.957 39.5106 104.782 39.5617C104.43 39.6679 104.319 40.045 104.572 40.3123C104.645 40.3881 104.734 40.4525 104.827 40.4999C105.762 40.9832 106.749 41.3395 107.758 41.6314C108.734 41.9138 109.711 42.1943 110.715 42.3668C111.614 42.5203 112.502 42.7212 113.401 42.8653C114.539 43.0491 115.686 43.1647 116.841 43.2216C117.947 43.2765 119.047 43.4509 120.16 43.3978C120.48 43.3827 120.798 43.4187 121.116 43.4395C121.843 43.4888 122.577 43.4945 123.3 43.4661C123.808 43.4452 124.326 43.4225 124.836 43.4111C125.974 43.3884 127.112 43.3201 128.242 43.2064C129.386 43.0908 130.545 43.0624 131.668 42.7686C131.727 42.7534 131.79 42.7572 131.849 42.7459C132.777 42.5923 133.718 42.4881 134.629 42.2682C135.838 41.9783 137.037 41.6504 138.228 41.2959C139.459 40.9282 140.639 40.462 141.731 39.7986C142.23 39.4954 142.778 39.2452 143.159 38.7676C143.282 38.6122 143.463 38.5041 143.663 38.3373C143.773 39.1277 143.735 39.8574 143.703 40.5719C143.667 41.404 143.684 42.2341 143.655 43.0643C143.625 43.9058 143.615 44.753 143.621 45.5983C143.627 46.4948 143.636 47.3951 143.52 48.2953C143.41 49.1501 143.256 49.9917 143.06 50.8294C142.953 51.2843 142.742 51.7012 142.685 52.1751C142.651 52.4688 142.649 52.7797 142.538 53.0659C142.19 53.9661 141.76 54.8304 141.332 55.6947C141.098 56.1685 140.824 56.6177 140.557 57.0707C140.207 57.6696 139.895 58.2912 139.444 58.8314C139 59.364 138.597 59.9307 138.167 60.4746C137.998 60.6888 137.893 60.9409 137.718 61.1551C137.371 61.5796 136.979 61.9625 136.656 62.4079C136.195 63.039 135.615 63.5735 135.16 64.2141C134.976 64.4738 134.799 64.7334 134.66 65.0139C134.427 65.4859 134.233 65.9767 134.001 66.4449C133.613 67.2258 133.394 68.0483 133.232 68.8917C133.173 69.1988 133.008 69.4224 132.717 69.5343C132.026 69.7977 131.285 69.8716 130.574 70.0612C129.759 70.2772 128.907 70.3549 128.071 70.4933C127.742 70.5483 127.411 70.6658 127.084 70.6544C126.202 70.626 125.329 70.6696 124.461 70.825C124.128 70.8837 123.795 70.8117 123.464 70.8761C122.809 71.0031 122.139 70.9254 121.479 71.0088C121.213 71.041 120.92 71.0789 120.674 71.005C120.139 70.842 119.597 70.9254 119.062 70.8875C118.314 70.8363 117.566 70.7814 116.818 70.7094C116.367 70.6658 115.928 70.552 115.467 70.5426C114.946 70.5312 114.415 70.4952 113.909 70.3189C113.682 70.2393 113.488 70.0934 113.229 70.0744C112.813 70.0441 112.748 69.9455 112.757 69.5248C112.771 68.7742 112.668 68.0294 112.636 67.2826C112.62 66.9623 112.478 66.6591 112.472 66.3558C112.462 65.8043 112.177 65.393 111.844 65.0405C111.444 64.6178 111.048 64.1838 110.616 63.7839C110.135 63.3366 109.686 62.8343 109.296 62.2885C109.06 61.9587 108.81 61.6327 108.553 61.3181C108.169 60.848 107.821 60.3571 107.505 59.8435C107.176 59.3052 106.757 58.8276 106.481 58.2495C106.373 58.0221 106.228 57.8117 106.156 57.5634C105.912 56.739 105.604 55.9335 105.429 55.0882C105.32 54.5688 105.058 54.095 104.932 53.5852C104.721 52.7228 104.433 51.8813 104.256 51.0056C104.076 50.1167 103.918 49.224 103.72 48.3389C103.661 48.0736 103.71 47.8007 103.651 47.5296C103.514 46.9099 103.409 46.2844 103.269 45.6646C103.185 45.3007 103.059 44.9198 103.067 44.5578C103.08 44.0062 102.905 43.4945 102.875 42.9562C102.823 42.0484 102.566 41.169 102.422 40.2744C102.363 39.9086 102.302 39.5428 102.313 39.0651L102.311 39.0633ZM125.224 42.0029C125.472 40.9965 125.734 40.0109 125.949 39.014C126.035 38.616 126.227 38.2577 126.284 37.8521C126.343 37.4181 126.431 36.9803 126.56 36.5671C126.827 35.7142 126.859 34.8215 127.108 33.963C127.399 32.9641 127.441 31.9084 127.66 30.8869C127.843 30.034 128.003 29.1716 128.121 28.3035C128.248 27.3691 128.467 26.4442 128.549 25.5061C128.655 24.2703 128.964 23.0744 129.143 21.8538C129.224 21.3022 129.403 20.7659 129.514 20.2219C129.746 19.0847 130.033 17.9646 130.383 16.8615C130.629 16.0901 130.827 15.2998 131.166 14.5606C131.367 14.1209 131.468 13.6452 131.693 13.2111C132.047 12.5288 132.595 12.0114 133.145 11.5054C133.626 11.0618 134.195 10.7889 134.886 10.7415C135.17 10.7226 135.442 10.734 135.722 10.7377C136.702 10.751 137.548 11.0524 138.374 11.5944C138.863 11.9147 139.134 12.3563 139.353 12.8586C139.476 13.1448 139.64 13.431 139.689 13.7323C139.805 14.4279 139.925 15.1254 139.885 15.8399C139.863 16.2455 139.901 16.6549 139.746 17.0435C139.695 17.1742 139.691 17.3069 139.689 17.4453C139.689 18.1579 139.402 18.8194 139.297 19.515C139.261 19.75 139.147 19.9717 139.092 20.2067C138.837 21.2966 138.468 22.3522 138.138 23.4193C137.819 24.4523 137.415 25.4587 137.044 26.4746C136.77 27.227 136.494 27.9775 136.211 28.7243C135.997 29.2891 135.862 29.8804 135.659 30.4434C135.326 31.3607 135.029 32.2913 134.633 33.1897C134.33 33.8739 134.037 34.5714 133.775 35.2783C133.615 35.7066 133.339 36.0724 133.173 36.4989C132.973 37.0201 132.793 37.5489 132.602 38.0739C132.269 38.9837 131.984 39.9086 131.697 40.8335C131.529 41.3717 131.495 41.4134 130.912 41.4627C130.836 41.4684 130.76 41.476 130.686 41.4874C129.729 41.6352 128.766 41.7451 127.801 41.8323C126.958 41.9081 126.115 41.9839 125.228 42.0067L125.224 42.0029ZM143.022 36.1179C143.077 36.5918 142.869 36.9481 142.628 37.2798C142.378 37.6228 142.059 37.8919 141.695 38.1289C141.227 38.4359 140.77 38.7448 140.264 38.9969C139.828 39.213 139.351 39.321 138.93 39.5731C138.704 39.7096 138.631 39.6754 138.529 39.4082C138.258 38.7145 137.822 38.1251 137.276 37.6437C136.692 37.1281 136.089 36.5974 135.259 36.4913C135.044 36.4629 134.995 36.3662 135.095 36.1862C135.242 35.9208 135.432 35.6744 135.535 35.3939C135.862 34.5183 136.365 33.7185 136.62 32.8125C136.652 32.6969 136.715 32.5907 136.77 32.4827C136.835 32.3576 136.926 32.3311 137.071 32.3652C137.96 32.5718 138.799 32.9205 139.648 33.2427C140.119 33.4209 140.538 33.6976 140.989 33.9137C141.57 34.1904 142.093 34.5505 142.529 35.0224C142.82 35.339 143.05 35.6953 143.02 36.1217L143.022 36.1179ZM132.848 41.2106C132.96 40.9264 133.029 40.7292 133.114 40.5378C133.23 40.2763 133.373 40.0261 133.476 39.7588C133.716 39.141 134.035 38.5553 134.247 37.9242C134.313 37.7252 134.467 37.6399 134.717 37.6986C135.767 37.9431 136.57 38.5572 137.259 39.3438C137.377 39.4783 137.451 39.6508 137.541 39.8081C137.617 39.9408 137.579 40.0393 137.436 40.0943C137.366 40.1208 137.292 40.1417 137.219 40.1644C135.819 40.6023 134.378 40.8676 132.848 41.2088V41.2106Z" fill="url(#paint18_linear_165_2329)"/>
<path d="M118.013 20.324C117.591 20.3108 117.294 20.4624 117.126 20.7429C116.42 21.9256 117.102 22.9699 118.165 23.1916C118.599 23.2826 118.993 23.1196 119.224 22.8088C119.492 22.443 119.585 21.9692 119.359 21.52C119.187 21.1807 118.946 20.8831 118.685 20.6083C118.489 20.4017 118.23 20.3108 118.011 20.324H118.013Z" fill="url(#paint19_linear_165_2329)"/>
<path d="M115.762 6.33097C115.714 7.01707 116.105 7.76004 116.634 7.99316C116.997 8.15426 117.206 8.09361 117.359 7.72213C117.507 7.36012 117.604 6.97727 117.72 6.602C117.764 6.45795 117.791 6.30822 117.84 6.16608C118.131 5.33972 117.553 4.92275 116.807 5.01183C116.135 5.09143 115.815 5.53304 115.76 6.32907L115.762 6.33097Z" fill="url(#paint20_linear_165_2329)"/>
<path d="M96.2295 26.213C97.0669 26.2679 97.5065 25.2786 97.2134 24.674C97.044 24.3233 96.7814 24.0523 96.4331 23.8817C95.9307 23.6353 95.3522 23.8836 95.1372 24.4162C95.0154 24.7175 94.9526 25.0246 95.042 25.343C95.1924 25.8775 95.6605 26.213 96.2295 26.213Z" fill="url(#paint21_linear_165_2329)"/>
<path d="M104.886 15.6391C104.882 15.7547 104.877 15.8874 104.926 16.02C105.189 16.7251 105.775 16.9241 106.498 16.5943C107.235 16.2588 107.354 15.3169 106.82 14.7805C106.551 14.5114 106.268 14.3105 105.87 14.3465C105.314 14.3976 104.909 14.843 104.877 15.4382C104.873 15.4988 104.884 15.5576 104.888 15.6372L104.886 15.6391Z" fill="url(#paint22_linear_165_2329)"/>
<path d="M95.6131 15.1728C95.6207 15.838 95.9556 16.3232 96.517 16.4843C97.0023 16.6227 97.2954 16.3744 97.2154 15.8797C97.1793 15.658 97.0898 15.4438 97.1013 15.2145C97.1146 14.9435 97.1165 14.6762 97.1869 14.409C97.2992 13.9712 97.0099 13.7191 96.5684 13.8536C95.9689 14.0337 95.6074 14.5341 95.615 15.1766L95.6131 15.1728Z" fill="url(#paint23_linear_165_2329)"/>
<path d="M108.142 25.0777C108.132 25.5857 108.347 25.8681 108.726 26.0405C109.015 26.1732 109.284 26.1391 109.529 25.9306C109.83 25.6748 109.912 25.2654 109.75 24.8105C109.634 24.4864 109.21 24.168 108.884 24.1831C108.585 24.1964 108.376 24.3651 108.249 24.6266C108.169 24.7915 108.142 24.9716 108.142 25.0758V25.0777Z" fill="url(#paint24_linear_165_2329)"/>
<path d="M114.955 26.9976C114.632 27.0108 114.342 27.3349 114.354 27.6723C114.369 28.0968 114.902 28.4645 115.305 28.3262C115.663 28.2049 115.823 27.8429 115.621 27.5301C115.465 27.2875 115.336 26.9767 114.955 26.9995V26.9976Z" fill="url(#paint25_linear_165_2329)"/>
<path d="M113.15 36.3397C113.749 36.3435 114.033 36.1123 114.029 35.6195C114.025 35.0622 113.559 34.5505 113.06 34.5562C112.626 34.5619 112.305 34.9239 112.291 35.3996C112.278 35.8393 112.562 36.3871 113.15 36.3397V36.3397Z" fill="url(#paint26_linear_165_2329)"/>
<path d="M107.763 38.1456C107.763 38.5323 108.007 38.8848 108.367 39.0213C108.688 39.1426 109.058 39.0459 109.187 38.737C109.313 38.4375 109.392 38.1021 109.269 37.7723C109.13 37.4008 108.768 37.2075 108.399 37.289C107.975 37.3818 107.762 37.6699 107.763 38.1456Z" fill="url(#paint27_linear_165_2329)"/>
<path d="M119.079 36.241C118.774 36.2125 118.592 36.3964 118.479 36.6352C118.356 36.8986 118.409 37.1734 118.59 37.399C118.721 37.562 118.879 37.7079 119.045 37.8349C119.321 38.0491 119.754 37.9676 119.905 37.6568C120.053 37.3497 120.101 37.0123 119.899 36.7053C119.711 36.4172 119.454 36.2163 119.077 36.2391L119.079 36.241Z" fill="url(#paint28_linear_165_2329)"/>
<path d="M123.405 36.099C123.414 35.737 123.054 35.3882 122.653 35.4129C122.105 35.447 121.85 35.7028 121.825 36.1861C121.802 36.6259 122.099 36.9405 122.541 36.9556C122.914 36.9689 123.393 36.4913 123.403 36.1009L123.405 36.099Z" fill="url(#paint29_linear_165_2329)"/>
<path d="M118.809 33.1458C118.804 33.5988 119.03 33.9248 119.458 34.0859C119.805 34.2148 120.094 34.0802 120.221 33.7315C120.41 33.2121 120.033 32.5658 119.489 32.4749C119.129 32.4142 118.815 32.725 118.809 33.1458Z" fill="url(#paint30_linear_165_2329)"/>
<path d="M122.06 39.5748C122.081 39.1844 122.014 39.0782 121.696 38.9228C121.409 38.7845 121.152 38.8091 120.943 39.0062C120.747 39.1901 120.697 39.4042 120.785 39.6639C120.865 39.9046 121.008 40.0922 121.204 40.2401C121.529 40.4865 121.913 40.3576 122.018 39.9633C122.056 39.8193 122.052 39.6639 122.06 39.5729V39.5748Z" fill="url(#paint31_linear_165_2329)"/>
<path d="M139.476 34.1239C139.493 34.2907 139.577 34.3949 139.689 34.4802C139.87 34.6185 140.062 34.7398 140.269 34.8346C140.896 35.1246 141.468 35.4771 141.841 36.0855C141.969 36.2921 142.192 36.3471 142.348 36.2561C142.507 36.1632 142.57 35.9509 142.477 35.7349C142.304 35.335 142.005 35.0298 141.657 34.7834C141.187 34.448 140.667 34.194 140.136 33.9684C139.995 33.9078 139.847 33.8737 139.693 33.9002C139.554 33.923 139.482 34.0045 139.474 34.1239H139.476Z" fill="url(#paint32_linear_165_2329)"/>
<defs>
<linearGradient id="paint0_linear_165_2329" x1="43.5741" y1="39" x2="43.5741" y2="99.1443" gradientUnits="userSpaceOnUse">
<stop stop-color="#56493F"/>
<stop offset="1" stop-color="#4A2D00"/>
</linearGradient>
<linearGradient id="paint1_linear_165_2329" x1="46.8052" y1="42.5781" x2="46.8052" y2="90.5286" gradientUnits="userSpaceOnUse">
<stop stop-color="#56493F"/>
<stop offset="1" stop-color="#4A2D00"/>
</linearGradient>
<linearGradient id="paint2_linear_165_2329" x1="47.2915" y1="88.168" x2="47.2915" y2="89.2409" gradientUnits="userSpaceOnUse">
<stop stop-color="#56493F"/>
<stop offset="1" stop-color="#4A2D00"/>
</linearGradient>
<linearGradient id="paint3_linear_165_2329" x1="14.0318" y1="68.5518" x2="14.0318" y2="76.9696" gradientUnits="userSpaceOnUse">
<stop stop-color="#56493F"/>
<stop offset="1" stop-color="#4A2D00"/>
</linearGradient>
<linearGradient id="paint4_linear_165_2329" x1="72.563" y1="75.8638" x2="72.563" y2="76.5232" gradientUnits="userSpaceOnUse">
<stop stop-color="#56493F"/>
<stop offset="1" stop-color="#4A2D00"/>
</linearGradient>
<linearGradient id="paint5_linear_165_2329" x1="30.4907" y1="59.4575" x2="30.4907" y2="67.9351" gradientUnits="userSpaceOnUse">
<stop stop-color="#56493F"/>
<stop offset="1" stop-color="#4A2D00"/>
</linearGradient>
<linearGradient id="paint6_linear_165_2329" x1="38.4927" y1="70.1221" x2="38.4927" y2="72.4657" gradientUnits="userSpaceOnUse">
<stop stop-color="#56493F"/>
<stop offset="1" stop-color="#4A2D00"/>
</linearGradient>
<linearGradient id="paint7_linear_165_2329" x1="29.5642" y1="75.7563" x2="29.5642" y2="84.1869" gradientUnits="userSpaceOnUse">
<stop stop-color="#56493F"/>
<stop offset="1" stop-color="#4A2D00"/>
</linearGradient>
<linearGradient id="paint8_linear_165_2329" x1="41.2511" y1="49.7617" x2="41.2511" y2="57.3111" gradientUnits="userSpaceOnUse">
<stop stop-color="#56493F"/>
<stop offset="1" stop-color="#4A2D00"/>
</linearGradient>
<linearGradient id="paint9_linear_165_2329" x1="49.4823" y1="50.5547" x2="49.4823" y2="55.5266" gradientUnits="userSpaceOnUse">
<stop stop-color="#56493F"/>
<stop offset="1" stop-color="#4A2D00"/>
</linearGradient>
<linearGradient id="paint10_linear_165_2329" x1="50.797" y1="69.644" x2="50.797" y2="76.8948" gradientUnits="userSpaceOnUse">
<stop stop-color="#56493F"/>
<stop offset="1" stop-color="#4A2D00"/>
</linearGradient>
<linearGradient id="paint11_linear_165_2329" x1="58.3188" y1="73.7495" x2="58.3188" y2="79.4012" gradientUnits="userSpaceOnUse">
<stop stop-color="#56493F"/>
<stop offset="1" stop-color="#4A2D00"/>
</linearGradient>
<linearGradient id="paint12_linear_165_2329" x1="58.1476" y1="81.0933" x2="58.1476" y2="84.1549" gradientUnits="userSpaceOnUse">
<stop stop-color="#56493F"/>
<stop offset="1" stop-color="#4A2D00"/>
</linearGradient>
<linearGradient id="paint13_linear_165_2329" x1="62.5585" y1="58.8896" x2="62.5585" y2="66.9085" gradientUnits="userSpaceOnUse">
<stop stop-color="#56493F"/>
<stop offset="1" stop-color="#4A2D00"/>
</linearGradient>
<linearGradient id="paint14_linear_165_2329" x1="30.4695" y1="62.8486" x2="30.4695" y2="64.137" gradientUnits="userSpaceOnUse">
<stop stop-color="#56493F"/>
<stop offset="1" stop-color="#4A2D00"/>
</linearGradient>
<linearGradient id="paint15_linear_165_2329" x1="41.1815" y1="52.2305" x2="41.1815" y2="54.0593" gradientUnits="userSpaceOnUse">
<stop stop-color="#56493F"/>
<stop offset="1" stop-color="#4A2D00"/>
</linearGradient>
<linearGradient id="paint16_linear_165_2329" x1="51.0218" y1="71.8765" x2="51.0218" y2="73.9584" gradientUnits="userSpaceOnUse">
<stop stop-color="#56493F"/>
<stop offset="1" stop-color="#4A2D00"/>
</linearGradient>
<linearGradient id="paint17_linear_165_2329" x1="62.2425" y1="61.7998" x2="62.2425" y2="63.8751" gradientUnits="userSpaceOnUse">
<stop stop-color="#56493F"/>
<stop offset="1" stop-color="#4A2D00"/>
</linearGradient>
<linearGradient id="paint18_linear_165_2329" x1="122.974" y1="8.71875" x2="122.974" y2="73.0002" gradientUnits="userSpaceOnUse">
<stop stop-color="#56493F"/>
<stop offset="1" stop-color="#4A2D00"/>
</linearGradient>
<linearGradient id="paint19_linear_165_2329" x1="118.162" y1="20.3228" x2="118.162" y2="23.2167" gradientUnits="userSpaceOnUse">
<stop stop-color="#56493F"/>
<stop offset="1" stop-color="#4A2D00"/>
</linearGradient>
<linearGradient id="paint20_linear_165_2329" x1="116.838" y1="5" x2="116.838" y2="8.07708" gradientUnits="userSpaceOnUse">
<stop stop-color="#56493F"/>
<stop offset="1" stop-color="#4A2D00"/>
</linearGradient>
<linearGradient id="paint21_linear_165_2329" x1="96.152" y1="23.7861" x2="96.152" y2="26.2151" gradientUnits="userSpaceOnUse">
<stop stop-color="#56493F"/>
<stop offset="1" stop-color="#4A2D00"/>
</linearGradient>
<linearGradient id="paint22_linear_165_2329" x1="106.013" y1="14.3423" x2="106.013" y2="16.7493" gradientUnits="userSpaceOnUse">
<stop stop-color="#56493F"/>
<stop offset="1" stop-color="#4A2D00"/>
</linearGradient>
<linearGradient id="paint23_linear_165_2329" x1="96.4208" y1="13.8174" x2="96.4208" y2="16.5223" gradientUnits="userSpaceOnUse">
<stop stop-color="#56493F"/>
<stop offset="1" stop-color="#4A2D00"/>
</linearGradient>
<linearGradient id="paint24_linear_165_2329" x1="108.987" y1="24.1826" x2="108.987" y2="26.1192" gradientUnits="userSpaceOnUse">
<stop stop-color="#56493F"/>
<stop offset="1" stop-color="#4A2D00"/>
</linearGradient>
<linearGradient id="paint25_linear_165_2329" x1="115.031" y1="26.9976" x2="115.031" y2="28.3558" gradientUnits="userSpaceOnUse">
<stop stop-color="#56493F"/>
<stop offset="1" stop-color="#4A2D00"/>
</linearGradient>
<linearGradient id="paint26_linear_165_2329" x1="113.16" y1="34.5562" x2="113.16" y2="36.3426" gradientUnits="userSpaceOnUse">
<stop stop-color="#56493F"/>
<stop offset="1" stop-color="#4A2D00"/>
</linearGradient>
<linearGradient id="paint27_linear_165_2329" x1="108.547" y1="37.2705" x2="108.547" y2="39.072" gradientUnits="userSpaceOnUse">
<stop stop-color="#56493F"/>
<stop offset="1" stop-color="#4A2D00"/>
</linearGradient>
<linearGradient id="paint28_linear_165_2329" x1="119.223" y1="36.2373" x2="119.223" y2="37.9546" gradientUnits="userSpaceOnUse">
<stop stop-color="#56493F"/>
<stop offset="1" stop-color="#4A2D00"/>
</linearGradient>
<linearGradient id="paint29_linear_165_2329" x1="122.614" y1="35.4116" x2="122.614" y2="36.9559" gradientUnits="userSpaceOnUse">
<stop stop-color="#56493F"/>
<stop offset="1" stop-color="#4A2D00"/>
</linearGradient>
<linearGradient id="paint30_linear_165_2329" x1="119.54" y1="32.4673" x2="119.54" y2="34.1339" gradientUnits="userSpaceOnUse">
<stop stop-color="#56493F"/>
<stop offset="1" stop-color="#4A2D00"/>
</linearGradient>
<linearGradient id="paint31_linear_165_2329" x1="121.403" y1="38.8354" x2="121.403" y2="40.3656" gradientUnits="userSpaceOnUse">
<stop stop-color="#56493F"/>
<stop offset="1" stop-color="#4A2D00"/>
</linearGradient>
<linearGradient id="paint32_linear_165_2329" x1="140.997" y1="33.8911" x2="140.997" y2="36.2985" gradientUnits="userSpaceOnUse">
<stop stop-color="#56493F"/>
<stop offset="1" stop-color="#4A2D00"/>
</linearGradient>
</defs>
</svg>
