<svg width="115" height="28" viewBox="0 0 115 28" fill="none" xmlns="http://www.w3.org/2000/svg">
<path d="M15.22 8.49729C14.9889 8.51787 14.9299 8.66705 14.8298 8.76221C14.3933 9.17116 13.8799 9.16087 13.4922 8.71334C13.1354 8.30182 12.9377 7.80542 12.7965 7.28587C12.7144 6.9798 12.8838 6.75861 13.0994 6.59657C13.3228 6.42939 13.5975 6.39853 13.8568 6.53227C14.0878 6.65059 14.2829 6.83834 14.6167 6.93351C14.514 6.49112 14.4164 6.12075 14.3446 5.74524C14.2213 5.12281 14.2496 4.52353 14.627 3.97054C15.1096 3.26324 16.0056 3.2941 16.4266 4.04256C16.6448 4.42836 16.7372 4.8476 16.7886 5.27713C16.8887 6.13361 16.9734 6.99524 16.9298 7.85943C16.9221 8.00347 16.9195 8.1475 16.9323 8.29153C16.9632 8.65676 16.9709 8.65933 17.4715 8.63618C16.9477 7.71797 17.3688 6.84092 17.5947 5.96643C17.6845 5.61664 18.0234 5.43145 18.2878 5.45717C18.5882 5.48546 18.8732 5.7298 18.9091 6.12847C18.9733 6.82291 18.9425 7.5225 18.7525 8.20151C18.6165 8.6902 18.6139 8.68248 19.1376 8.70048C21.0476 8.76478 22.9448 8.5333 24.8497 8.44328C25.625 8.40727 26.3952 8.31211 27.1757 8.29411C28.5029 8.26324 29.8276 8.11149 31.1523 8.00089C31.9276 7.93659 32.7081 7.95974 33.4834 7.85172C34.0867 7.76684 34.7003 7.76941 35.3087 7.70769C35.8915 7.64853 36.4922 7.70254 37.0878 7.67939C38.4947 7.62795 39.9041 7.59452 41.3109 7.55336C42.5612 7.51736 43.8114 7.5225 45.0565 7.43762C46.3453 7.35018 47.6392 7.37332 48.9228 7.26787C49.8855 7.18814 50.8483 7.2653 51.8084 7.18299C52.9868 7.08011 54.1703 7.20357 55.3538 7.15727C56.2883 7.12127 57.2356 7.20357 58.1778 7.19328C59.4896 7.17785 60.8041 7.26273 62.1133 7.22415C63.9951 7.16499 65.8769 7.21643 67.7562 7.08526C68.6521 7.02353 69.5635 6.92836 70.4492 6.97209C71.5172 7.02353 72.5723 6.92836 73.6352 6.95151C75.4168 6.98752 77.2036 7.03639 78.9827 6.95151C80.4949 6.8795 82.007 6.78948 83.5191 6.70974C84.3355 6.66859 85.157 6.68659 85.9759 6.71489C86.8822 6.74832 87.773 6.59657 88.6715 6.52199C89.5264 6.45254 90.3788 6.3548 91.2337 6.35223C92.2169 6.34966 93.1976 6.26478 94.1808 6.39853C94.8894 6.49627 95.6108 6.49884 96.3168 6.60172C96.6891 6.65573 97.0844 6.74575 97.2692 7.17785C97.4721 7.65882 97.3437 7.98804 96.8431 8.11664C96.5633 8.18865 96.2757 8.17579 95.9882 8.15779C94.5351 8.06262 93.0821 7.92888 91.6264 8.01633C90.1143 8.10635 88.6099 8.28125 87.0978 8.37898C86.076 8.44585 85.0491 8.469 84.0274 8.47415C82.2637 8.47929 80.5051 8.57703 78.7466 8.67219C76.7441 8.78022 74.7391 8.75192 72.7366 8.79565C72.0409 8.81108 71.34 8.8188 70.6469 8.88052C70.2746 8.91396 69.9075 8.88052 69.543 8.86252C68.6213 8.81622 67.7125 8.9654 66.7883 8.93711C66.0412 8.91139 65.2762 8.9654 64.5214 9.00913C63.397 9.07085 62.2751 9.02199 61.1506 9.03999C59.4126 9.07085 57.6746 9.02199 55.9365 9.04771C55.1612 9.05799 54.3808 9.00655 53.6029 9.02199C51.9701 9.05542 50.3348 9.12744 48.702 9.12744C47.4287 9.12744 46.163 9.23032 44.8948 9.26633C43.4803 9.30491 42.0683 9.34092 40.6537 9.40264C39.0004 9.47466 37.3445 9.40264 35.6887 9.51324C33.8556 9.63413 32.0124 9.62384 30.1793 9.75501C28.2565 9.8939 26.331 9.89904 24.4082 10.0019C23.0373 10.0739 21.6638 10.0997 20.2929 10.0919C19.2249 10.0868 18.1672 9.93505 17.1095 9.82446C16.5062 9.41808 15.6693 9.37178 15.2842 8.62847C15.2559 8.57445 15.2251 8.52044 15.2149 8.50244L15.22 8.49729Z" fill="#56493F"/>
<path d="M23.2966 19.7011C23.8665 19.6342 24.1875 19.8502 24.5212 20.3698C25.0013 21.1182 25.5532 21.8693 26.3439 22.3451C26.7059 22.5637 27.1321 22.682 27.53 22.8441C28.1795 23.1064 28.8701 23.2299 29.5479 23.3636C30.0973 23.4742 30.68 23.4974 31.2397 23.4588C31.6735 23.4305 32.0894 23.4356 32.5182 23.4948C33.0701 23.5694 33.5682 23.361 34.0277 23.0755C34.3255 22.8904 34.6362 22.736 34.9442 22.574C35.7478 22.1548 36.4692 21.6301 36.9955 20.8713C37.3754 20.3235 37.8298 19.8785 38.4639 19.6162C38.8387 19.4619 39.1494 19.5082 39.4343 19.7499C39.7424 20.0123 39.8348 20.3492 39.7193 20.753C39.6269 21.0771 39.4395 21.3574 39.2495 21.6121C38.6744 22.3811 38.1815 23.2196 37.3882 23.8137C37.1058 24.0246 36.8132 24.1995 36.5154 24.3821C35.7452 24.8528 34.9365 25.2412 34.1227 25.627C33.9507 25.7093 33.7736 25.7762 33.5939 25.7787C32.8622 25.7864 32.128 25.9536 31.3989 25.7402C31.2037 25.6836 30.9855 25.6167 30.7956 25.6501C30.1435 25.7659 29.5248 25.5498 28.9266 25.4135C27.9331 25.1872 26.9883 24.7654 26.0769 24.287C25.0013 23.7211 24.2876 22.8106 23.6355 21.8333C23.5456 21.6969 23.4892 21.5349 23.389 21.4063C22.9577 20.8533 22.909 20.29 23.3043 19.6985L23.2966 19.7036V19.7011Z" fill="#56493F"/>
<path d="M57.1329 19.9968C57.0585 20.6861 56.9147 21.342 56.45 21.9027C55.8005 22.6846 54.9328 23.145 54.0522 23.5745C53.5542 23.8163 53.1023 24.1301 52.6171 24.3898C52.3963 24.5056 52.191 24.6213 51.9419 24.6573C51.3951 24.7371 50.9073 25.02 50.3425 25.0817C49.1359 25.2129 47.9653 25.2823 46.751 24.9685C45.6008 24.6728 44.5483 24.2355 43.5855 23.5719C42.3712 22.7335 41.5009 21.6095 40.9978 20.2129C40.8309 19.7499 40.8951 19.4181 41.1672 19.1969C41.5343 18.896 41.9374 18.9629 42.1736 19.4516C42.4688 20.0611 42.9283 20.5138 43.3699 21.0025C43.8525 21.5375 44.461 21.8538 45.0925 22.1522C46.5738 22.8543 48.1116 23.1861 49.7367 22.8132C50.5017 22.6383 51.3053 22.5174 51.9727 22.0699C52.7866 21.522 53.7133 21.1748 54.4912 20.5704C54.8378 20.3003 55.1228 19.9891 55.3179 19.593C55.382 19.4644 55.4591 19.341 55.5438 19.2252C55.7851 18.896 56.1497 18.7623 56.5116 18.8549C56.8813 18.95 57.0431 19.2175 57.0995 19.5673C57.1226 19.7088 57.1201 19.8528 57.1303 19.9968H57.1329Z" fill="#56493F"/>
<path d="M66.5239 25.0147C65.3815 24.953 64.2314 24.9504 63.1069 24.6778C61.4562 24.2791 60.2676 23.2786 59.4101 21.8434C59.0045 21.1618 58.9993 20.3877 58.948 19.6341C58.9275 19.328 59.1688 19.1582 59.4486 19.0888C59.7567 19.0116 60.0185 19.1042 60.2059 19.3666C60.3523 19.5698 60.4113 19.8141 60.4678 20.0533C60.7502 21.2673 61.5563 21.9823 62.6756 22.4118C63.1788 22.6048 63.6923 22.7076 64.2314 22.7179C65.4406 22.7411 66.6497 22.88 67.8538 22.7231C68.891 22.5893 69.9024 22.3553 70.8138 21.7894C71.3093 21.4808 71.7072 21.0667 72.0923 20.6474C72.4979 20.2076 72.9498 19.8218 73.399 19.436C74.0434 18.8856 74.6621 19.112 74.8701 19.935C75.0472 20.6372 74.7083 21.2004 74.2924 21.6763C73.7739 22.2678 73.2604 22.8594 72.6109 23.3506C72.0256 23.793 71.4377 24.1737 70.7548 24.382C69.3813 24.8038 67.9821 25.1099 66.5265 25.0147H66.5239Z" fill="#56493F"/>
<path d="M13.4254 25.9899C12.1084 26.0336 10.7888 25.9461 9.54114 25.5475C8.21644 25.1231 7.02523 24.4209 6.31411 23.1401C6.00604 22.5871 5.66973 22.0418 5.51312 21.4143C5.43097 21.0902 5.37192 20.7712 5.44894 20.442C5.52596 20.1077 5.79552 19.8582 6.08049 19.8659C6.40139 19.8736 6.56056 20.0974 6.62731 20.3674C6.77108 20.9359 7.07144 21.4194 7.37695 21.9107C8.04443 22.9909 9.04309 23.5207 10.2497 23.6879C11.1354 23.8114 12.0237 23.8808 12.9273 23.8705C14.9555 23.8474 16.655 23.0809 18.162 21.7666C18.7165 21.2831 19.2402 20.7712 19.7537 20.2466C20.1413 19.853 20.6316 19.8325 21.0886 20.1591C21.4788 20.4395 21.6175 20.9719 21.3916 21.4245C21.2812 21.6432 21.14 21.8489 20.9834 22.0367C20.3261 22.8186 19.6972 23.6339 18.7627 24.12C18.6549 24.1766 18.5265 24.2203 18.4444 24.3026C17.6896 25.0717 16.673 25.3006 15.7128 25.6401C14.976 25.8998 14.2058 25.9924 13.4254 25.9873V25.9899Z" fill="#56493F"/>
<path d="M102.219 24.5621C100.976 24.5287 99.5823 24.3949 98.2473 23.8522C97.3462 23.4844 96.4811 23.0781 95.7853 22.3759C95.1178 21.702 94.666 20.9124 94.5094 19.9711C94.4555 19.6418 94.4914 19.3126 94.6249 19.004C94.743 18.7288 94.9022 18.4896 95.2462 18.4921C95.5004 18.4921 95.6878 18.7159 95.7674 19.094C95.7879 19.1943 95.7905 19.2972 95.8007 19.4001C95.8855 20.2643 96.3655 20.8867 97.0536 21.3548C98.0394 22.0235 99.1459 22.3707 100.322 22.5148C101.361 22.6408 102.404 22.6717 103.443 22.5302C104.111 22.4402 104.776 22.3322 105.443 22.2319C106.098 22.1341 106.493 21.63 106.945 21.2313C107.584 20.6629 107.821 19.8682 108.031 19.0683C108.126 18.7108 108.208 18.3455 108.355 18.0086C108.634 17.3707 109.294 17.2036 109.749 17.6254C109.975 17.8363 110.052 18.1192 110.036 18.4124C109.954 19.9839 109.613 21.4731 108.483 22.646C107.746 23.4124 106.835 23.9217 105.803 24.1892C104.686 24.4798 103.536 24.4824 102.219 24.5621V24.5621Z" fill="#56493F"/>
<path d="M84.0838 24.827C83.3367 24.8913 82.6128 24.7859 81.8888 24.6316C80.5641 24.3487 79.5526 23.5873 78.6874 22.5894C78.1329 21.949 77.6734 21.2494 77.373 20.4495C77.2703 20.1768 77.1984 19.8965 77.1907 19.6084C77.1728 18.9011 77.9506 18.4124 78.5847 18.7185C78.8903 18.8651 79.0058 19.076 78.8235 19.3589C78.5822 19.737 78.7259 20.0277 78.9211 20.3234C79.3986 21.0488 79.9326 21.7432 80.6642 22.2113C81.4447 22.7129 82.297 22.9649 83.2777 22.898C84.2045 22.8363 85.0953 22.664 85.9938 22.4634C87.5496 22.1136 88.6663 21.1876 89.493 19.8579C89.6445 19.6136 89.8011 19.3692 89.9833 19.1506C90.2324 18.8497 90.7997 18.7237 91.1078 18.8703C91.4056 19.0117 91.5776 19.3898 91.5545 19.8142C91.5314 20.2566 91.3928 20.6732 91.1668 21.0359C90.6791 21.8204 90.1553 22.5791 89.4057 23.1552C89.1207 23.3739 88.7947 23.4973 88.4866 23.6439C87.0952 24.3101 85.6447 24.7885 84.0838 24.8245V24.827Z" fill="#56493F"/>
<path d="M107.379 16.7923C106.771 16.7615 106.257 16.4631 105.733 16.1802C104.958 15.7584 104.268 15.2054 103.577 14.673C102.971 14.2074 102.368 13.7213 101.829 13.1606C101.436 12.7517 100.938 12.4456 100.491 12.0881C99.8005 11.5351 99.2126 10.8844 98.6709 10.1874C98.504 9.97391 98.3962 9.72957 98.3449 9.46465C98.2961 9.19973 98.3706 8.97339 98.5913 8.81393C98.8275 8.64418 99.0611 8.70333 99.2691 8.87309C100.679 10.0228 102.191 11.0362 103.659 12.1061C104.586 12.7826 105.477 13.495 106.37 14.2126C106.735 14.5058 107.161 14.7219 107.554 14.9791C107.705 15.0794 107.849 15.1977 107.985 15.3186C108.275 15.5809 108.442 15.8638 108.275 16.2934C108.103 16.7383 107.749 16.7486 107.379 16.7898V16.7923Z" fill="#56493F"/>
<path d="M4.71725 17.5973C4.01896 17.6025 3.68265 17.0598 3.96762 16.4965C4.06261 16.3113 4.19097 16.1467 4.35784 16.0258C4.93547 15.604 5.50026 15.1719 6.15491 14.8581C6.77875 14.5598 7.36409 14.1817 7.94685 13.7984C8.72986 13.2815 9.4949 12.7336 10.2522 12.1884C11.2252 11.4862 12.3317 10.9615 13.1738 10.0767C13.4254 9.81439 13.7771 9.82725 14.0518 10.0767C14.3624 10.3597 14.4343 10.8226 14.1519 11.1261C13.8053 11.4991 13.469 11.89 13.0608 12.2064C11.7361 13.2352 10.4242 14.2794 9.09441 15.3005C8.65541 15.6374 8.1625 15.8946 7.69013 16.1801C7.02264 16.5839 6.29098 16.8489 5.62093 17.2449C5.32569 17.4198 5.01249 17.5922 4.71469 17.5999L4.71725 17.5973Z" fill="#56493F"/>
<path d="M94.8022 9.89417C95.0436 9.92504 95.2541 10.0459 95.3876 10.2697C96.1783 11.5968 97.141 12.8031 98.0652 14.0351C98.8302 15.0536 99.5311 16.1133 100.265 17.1524C100.491 17.4739 100.676 17.816 100.825 18.1786C100.92 18.4127 100.899 18.6313 100.679 18.7805C100.478 18.9168 100.281 18.8319 100.111 18.6982C99.8494 18.4924 99.6518 18.2275 99.4746 17.9497C98.6454 16.6509 97.6827 15.4446 96.7585 14.2152C96.055 13.2789 95.3568 12.3402 94.7329 11.3474C94.5686 11.085 94.4017 10.8227 94.3427 10.514C94.2836 10.1951 94.5019 9.90189 94.7997 9.8916L94.8022 9.89417Z" fill="#56493F"/>
<path d="M16.1468 13.3303C16.1134 13.5566 16.0415 13.7701 15.9209 13.963C15.2277 15.0767 14.5115 16.1801 13.844 17.3092C13.2176 18.3689 12.4371 19.3282 11.8184 20.3905C11.6156 20.7403 11.3871 20.8637 11.1355 20.7814C10.8506 20.6888 10.7273 20.4136 10.7889 20.0175C10.8249 19.7886 10.9301 19.5906 11.0431 19.3925C11.9391 17.8236 12.9198 16.3061 13.9236 14.804C14.2547 14.3076 14.5756 13.8061 14.9042 13.3123C15.0557 13.0859 15.2431 12.8982 15.5153 12.8184C15.8952 12.7079 16.1699 12.929 16.1519 13.3277L16.1468 13.3303Z" fill="#56493F"/>
<path d="M68.1876 19.6858C68.1876 20.1025 68.203 20.4292 68.1825 20.7558C68.1697 20.9564 68.1337 21.1853 67.8719 21.2213C67.6434 21.2548 67.4868 21.1185 67.3661 20.9358C67.171 20.6401 67.0555 20.3134 67.0144 19.9611C66.9322 19.2692 66.8321 18.5773 66.7833 17.8829C66.6909 16.5351 66.5908 15.1874 66.4214 13.8448C66.3854 13.5619 66.3957 13.2712 66.4111 12.9857C66.4188 12.8263 66.465 12.6617 66.5215 12.5099C66.6242 12.2373 66.8219 12.0675 67.1299 12.0881C67.3789 12.1061 67.5869 12.3427 67.5587 12.672C67.5073 13.297 67.6896 13.8937 67.7409 14.5032C67.895 16.2599 68.0439 18.0166 68.1876 19.6833V19.6858Z" fill="#56493F"/>
<path d="M85.2981 19.5234C85.3289 19.8347 85.3058 19.9967 85.1338 20.0841C84.9669 20.169 84.8129 20.1124 84.6794 20.0018C84.3893 19.7601 84.2045 19.4437 84.053 19.1016C83.6089 18.0857 83.3059 17.0157 82.9285 15.9741C82.4947 14.7781 82.0839 13.5744 81.6577 12.3758C81.5679 12.1212 81.4857 11.8691 81.5397 11.5965C81.591 11.3316 81.7399 11.1361 82.0172 11.1001C82.3124 11.0615 82.4613 11.257 82.5512 11.509C83.2751 13.5795 83.9991 15.6526 84.7256 17.7256C84.8822 18.1706 85.0465 18.6129 85.1929 19.0631C85.257 19.256 85.2878 19.4617 85.3007 19.5286L85.2981 19.5234Z" fill="#56493F"/>
<path d="M48.2425 13.8678C48.2425 13.6029 48.2245 13.3328 48.2476 13.0705C48.2784 12.6924 48.5249 12.3992 48.7714 12.4069C49.0178 12.4146 49.3413 12.7104 49.3695 13.0293C49.408 13.4588 49.4953 13.8832 49.5287 14.3102C49.6904 16.2958 49.8291 18.2814 49.8701 20.2747C49.8753 20.5036 49.8624 20.7299 49.7777 20.9408C49.6365 21.2881 49.3541 21.3344 49.1179 21.0411C48.9074 20.7788 48.8278 20.4599 48.7688 20.1307C48.625 19.3179 48.5993 18.4948 48.5608 17.6769C48.4992 16.4038 48.3375 15.1409 48.2425 13.8704V13.8678Z" fill="#56493F"/>
<path d="M32.7056 18.4179C32.7184 18.9528 32.5618 19.4801 32.6388 20.0151C32.6594 20.1591 32.6055 20.3006 32.531 20.4266C32.3282 20.7764 31.8995 20.7841 31.6838 20.4395C31.5375 20.2054 31.5195 19.9328 31.499 19.6679C31.3783 18.0758 31.2654 16.4837 31.1498 14.8891C31.1139 14.3798 31.0061 13.8731 31.0317 13.3587C31.0548 12.8829 31.2063 12.6102 31.4784 12.5794C31.7454 12.5485 32.0253 12.7826 32.1844 13.1684C32.3128 13.477 32.3256 13.8088 32.3539 14.1329C32.4771 15.5603 32.5875 16.9878 32.703 18.4179H32.7056Z" fill="#56493F"/>
<path d="M96.3401 3.26061C96.3401 2.83108 96.3144 2.39641 96.3452 1.96946C96.3863 1.40104 96.7509 1.01267 97.1976 0.999809C97.6622 0.986949 98.1115 1.39333 98.1706 1.93602C98.2784 2.95711 98.3657 3.9782 98.4401 5.00187C98.4786 5.51884 98.1218 5.94837 97.652 6.01524C97.041 6.10012 96.6302 5.85063 96.4813 5.28222C96.3042 4.61864 96.3555 3.93448 96.3427 3.26061H96.3401Z" fill="#56493F"/>
<path d="M23.3068 19.6987C22.6624 19.4106 21.9846 19.3412 21.2838 19.3309C20.6188 19.3232 20.3467 18.8268 20.6599 18.2352C20.8011 17.9677 20.9834 17.7079 21.1965 17.4945C21.9102 16.7769 23.0552 16.9029 23.6225 17.7568C23.756 17.9548 23.9306 18.1272 23.9614 18.3972C24.0282 19.0248 23.8664 19.3669 23.2991 19.7038L23.3068 19.6987V19.6987Z" fill="#56493F"/>
<path d="M57.7979 18.369C57.3127 18.3355 56.8146 18.3921 56.3885 18.05C55.9341 17.6848 55.8725 17.3607 56.2319 16.8978C56.4321 16.638 56.6683 16.4065 56.9456 16.2239C57.5874 15.7995 58.1522 15.8381 58.7324 16.3396C59.0122 16.5814 59.2741 16.8463 59.4769 17.155C59.7978 17.6385 59.69 17.9266 59.1765 18.1658C58.7298 18.3741 58.2754 18.4204 57.7953 18.369H57.7979Z" fill="#56493F"/>
<path d="M93.0666 17.8002C92.6173 17.7719 92.1681 17.7616 91.7214 17.7102C91.1617 17.6433 90.9204 17.2318 91.095 16.6916C91.3106 16.0229 92.3067 15.2667 93.0127 15.2385C93.6571 15.2127 94.2886 15.9432 94.2783 16.7019C94.2681 17.3578 93.7444 17.8388 93.0692 17.8028L93.0666 17.8002Z" fill="#56493F"/>
<path d="M40.0375 19.107C39.9502 19.107 39.8295 19.1045 39.7063 19.107C39.1723 19.1225 38.8822 18.819 38.7102 18.356C38.5331 17.8828 38.7153 17.5047 39.0439 17.1935C39.9065 16.3704 41.3493 16.6971 41.7986 17.803C41.909 18.0782 41.8782 18.302 41.6728 18.5335C41.2389 19.0222 40.7075 19.1996 40.04 19.107H40.0375Z" fill="#56493F"/>
<path d="M76.6107 17.9134C76.0716 17.8594 75.4606 17.8131 74.8496 17.736C74.2181 17.6536 73.9845 17.2035 74.2437 16.6171C74.4876 16.0667 75.4555 15.5472 76.1024 15.6166C76.698 15.6809 77.3835 16.3805 77.481 17.0235C77.5658 17.5868 77.2577 17.9314 76.6107 17.9134Z" fill="#56493F"/>
<path d="M3.51362 20.218C3.50849 20.2694 3.50335 20.29 3.50592 20.3106C3.61631 21.3368 2.68183 21.45 2.05543 21.0076C1.53171 20.6398 1.2108 20.1228 1.04393 19.5133C0.943807 19.148 1.01569 18.8214 1.3366 18.5822C1.6344 18.361 2.12217 18.3481 2.42768 18.5951C2.72804 18.8394 3.00017 19.1197 3.26717 19.4001C3.48795 19.6342 3.60348 19.9145 3.51619 20.2154L3.51362 20.218Z" fill="#56493F"/>
<path d="M113.048 17.1188C113.443 17.0956 113.7 17.2036 113.846 17.4891C114.01 17.8132 114.08 18.1604 113.869 18.4871C113.561 18.9706 113.22 19.4233 112.755 19.7834C112.452 20.0174 112.162 20.02 111.841 19.8682C111.523 19.7165 111.412 19.4336 111.402 19.1146C111.376 18.4691 112.262 17.3091 112.888 17.147C112.968 17.1265 113.05 17.1213 113.048 17.1213V17.1188Z" fill="#56493F"/>
<path d="M95.9806 5.2694C95.9549 5.66292 95.7931 5.90983 95.4928 6.05387C95.1924 6.20047 94.9074 6.11045 94.7175 5.87383C94.2939 5.34142 93.9678 4.74214 93.8857 4.06313C93.8138 3.46642 94.3709 3.10634 94.9126 3.38154C95.2951 3.57444 95.6314 3.84965 95.7392 4.31261C95.8188 4.64955 95.9087 4.98648 95.9806 5.2694V5.2694Z" fill="#56493F"/>
<path d="M101.03 4.55948C101.041 5.19734 100.106 6.04611 99.4797 5.97409C99.1331 5.93551 98.7711 5.61658 98.8687 5.2102C98.9508 4.86555 99.033 4.53633 99.2461 4.24569C99.6799 3.6567 100.147 3.71586 100.763 4.03479C100.956 4.1351 101.028 4.34086 101.03 4.55948V4.55948Z" fill="#56493F"/>
</svg>
