<svg width="18" height="18" viewBox="0 0 18 18" fill="none" xmlns="http://www.w3.org/2000/svg">
<path fill-rule="evenodd" clip-rule="evenodd" d="M15.637 2.36258C16.4707 3.19628 16.9396 4.32663 16.9409 5.50565V12.4939C16.9396 13.6729 16.4707 14.8033 15.637 15.637C14.8033 16.4707 13.6729 16.9396 12.4939 16.9409H5.50565C4.32663 16.9396 3.19628 16.4707 2.36258 15.637C1.52889 14.8033 1.05993 13.6729 1.05859 12.4939V5.50565C1.05993 4.32663 1.52889 3.19628 2.36258 2.36258C3.19628 1.52889 4.32663 1.05993 5.50565 1.05859H12.4939C13.6729 1.05993 14.8033 1.52889 15.637 2.36258ZM14.0821 4.87036C14.0821 4.68188 14.0262 4.49764 13.9215 4.34093C13.8168 4.18422 13.668 4.06208 13.4939 3.98996C13.3197 3.91783 13.1281 3.89896 12.9433 3.93573C12.7584 3.9725 12.5886 4.06326 12.4554 4.19653C12.3221 4.3298 12.2313 4.4996 12.1946 4.68445C12.1578 4.8693 12.1767 5.06091 12.2488 5.23503C12.3209 5.40916 12.443 5.55799 12.5998 5.6627C12.7565 5.76741 12.9407 5.8233 13.1292 5.8233C13.3819 5.8233 13.6243 5.7229 13.803 5.54419C13.9817 5.36548 14.0821 5.12309 14.0821 4.87036ZM9.03115 12.332C10.8887 12.332 12.3945 10.8261 12.3945 8.96863C12.3945 7.11112 10.8887 5.60531 9.03115 5.60531C7.17364 5.60531 5.66783 7.11112 5.66783 8.96863C5.66783 10.8261 7.17364 12.332 9.03115 12.332Z" fill="#56493F"/>
</svg>
