<svg width="64" height="64" viewBox="0 0 64 64" fill="none" xmlns="http://www.w3.org/2000/svg">
<path d="M5.93724 30.8381C8.32747 30.6862 9.92096 32.8712 9.90351 34.1623C9.8628 37.171 8.24605 38.4329 5.95469 38.5614C3.95992 38.6783 1.98842 36.6394 2.00005 34.7056C2.01168 32.5089 3.7273 30.8206 5.93724 30.8381V30.8381Z" fill="#FFCA4B"/>
<path d="M35.6202 53.6164C33.0264 53.7566 31.7703 51.6242 31.6888 49.8482C31.5958 47.9086 33.4859 45.7587 35.2189 45.9164C37.8941 46.1559 39.4353 47.1783 39.5225 49.7897C39.5981 51.9689 37.5278 53.739 35.6202 53.6164V53.6164Z" fill="#FFCA4B"/>
<path d="M56.26 49.3869C56.3589 51.5018 54.8643 53.4356 52.381 53.2661C50.1245 53.1142 48.688 51.7004 48.6939 49.2935C48.6997 46.98 50.2117 45.4201 52.4159 45.4552C54.3874 45.4844 56.2658 47.4123 56.26 49.3928V49.3869Z" fill="#FFCA4B"/>
<path d="M58.0045 22.7234C58.0045 25.0135 56.5739 26.5032 54.4686 26.5675C52.1947 26.6376 50.3569 24.7389 50.4267 22.5948C50.4965 20.3339 51.9911 18.8208 54.3116 18.8208C55.9749 18.8208 58.3302 20.5092 58.0103 22.7234H58.0045Z" fill="#FFCA4B"/>
<path d="M20.5172 39.2271C22.4014 39.2446 24.3148 40.8512 24.245 42.4519C24.117 45.3672 22.6631 46.8628 20.0984 46.9621C18.2723 47.0322 16.5567 45.0458 16.5102 43.077C16.452 40.6584 18.2316 39.2679 20.5172 39.2271V39.2271Z" fill="#FFCA4B"/>
<path d="M27.7574 56.958C27.7341 59.108 25.9371 60.6737 23.6224 60.6328C21.7789 60.5977 19.726 58.6815 19.8597 56.9055C20.0458 54.4284 21.1217 53.1957 23.9016 53.0613C25.9603 52.962 27.7632 54.8782 27.7574 56.958V56.958Z" fill="#FFCA4B"/>
<path d="M58.0454 32.3921C60.1972 32.3921 62.192 34.32 61.9826 36.5459C61.7733 38.7133 60.8021 40.0336 58.3188 40.133C55.9576 40.2264 54.3583 38.5614 54.3409 36.1194C54.3293 34.0337 55.9634 32.3921 58.0454 32.3921Z" fill="#FFCA4B"/>
<path d="M41.9301 27.7297C39.5689 27.7297 38.336 26.3451 38.1965 23.9264C38.0627 21.6363 40.0109 20.129 41.9708 20.1407C44.047 20.1524 45.8615 21.8992 45.8091 24.2828C45.7568 26.4444 44.3669 27.7297 41.9359 27.7297H41.9301Z" fill="#FFCA4B"/>
<path d="M32.4914 20.7192C30.1418 20.7192 28.5542 19.2412 28.5425 17.0387C28.5309 14.918 30.1767 13.0718 32.1424 13.1303C34.7129 13.2062 36.2076 14.8479 36.2017 17.2665C36.2017 19.2003 35.1259 21.0113 32.4914 20.7192V20.7192Z" fill="#FFCA4B"/>
<path d="M44.6463 43.5035C42.2387 43.8774 40.8197 41.6048 40.7673 39.3614C40.7266 37.4627 42.4422 35.9087 44.5533 35.9028C46.7109 35.9028 48.3335 37.4861 48.2928 39.6769C48.2579 41.9787 47.5135 43.7372 44.6405 43.5093L44.6463 43.5035Z" fill="#FFCA4B"/>
<path d="M44.8614 61.9942C42.7561 62.152 41.1742 59.7859 41.1452 58.2553C41.1045 56.3332 43.012 54.119 44.7509 54.2475C46.9027 54.3994 48.9091 55.7022 48.8509 58.1735C48.7869 60.6739 47.6703 61.9008 44.8672 61.9942H44.8614Z" fill="#FFCA4B"/>
<path d="M20.7148 31.2353C18.3129 31.2353 16.7311 29.6754 16.7602 27.1984C16.7776 25.8313 18.3188 23.4711 20.4356 23.6405C22.8666 23.8391 24.3438 24.9783 24.3845 27.5956C24.4252 29.9266 23.0934 31.2353 20.7148 31.2353Z" fill="#FFCA4B"/>
<path d="M32.2994 40.5712C30.1593 40.5536 28.5658 38.8068 28.5193 36.6102C28.4728 34.6297 30.6769 32.6726 31.9738 32.8128C34.6606 33.099 36.0738 34.0572 36.0505 36.6978C36.0273 39.2625 35.0212 40.466 32.2994 40.577V40.5712Z" fill="#FFCA4B"/>
<path d="M11.1653 20.7193C8.69943 21.099 7.23971 18.8673 7.26297 17.1789C7.29786 14.8479 8.81575 13.1069 10.8629 13.1069C13.0321 13.1069 14.7884 14.7953 14.7652 16.9102C14.7477 18.9374 13.7881 21.0873 11.1595 20.7134L11.1653 20.7193Z" fill="#FFCA4B"/>
<path d="M12.1134 46.0273C14.5095 46.2026 15.8122 47.5755 15.9169 50.0584C15.9983 51.9338 14.0559 53.6222 12.0378 53.6105C9.79882 53.5988 8.11228 51.9279 8.20533 49.6436C8.3042 47.2542 9.6825 46.1909 12.1134 46.0273V46.0273Z" fill="#FFCA4B"/>
<path d="M44.4307 10.2618C44.1981 8.01843 46.251 6.61631 47.8387 6.57541C49.6881 6.52283 51.9969 8.21122 51.8399 10.2852C51.6421 12.8966 50.4732 14.2929 48.0306 14.2812C45.8207 14.2695 44.4249 12.7097 44.4307 10.2618Z" fill="#FFCA4B"/>
<path d="M20.0458 10.776C18.0045 10.7935 16.5739 9.19278 16.5099 6.98444C16.4343 4.47231 18.4 3.05851 20.2087 3.00009C21.9592 2.94167 24.1808 5.3019 24.0412 6.62807C23.8027 8.89483 22.9827 10.7526 20.0517 10.776H20.0458Z" fill="#FFCA4B"/>
</svg>
