<svg width="32" height="32" viewBox="0 0 32 32" fill="none" xmlns="http://www.w3.org/2000/svg">
<path d="M13.2802 7.94584C13.3748 6.45847 13.4521 5.3064 14.2345 4.33488C15.7649 2.42623 18.3785 2.57239 19.4962 4.72177C20.2012 6.06298 20.6827 7.49877 20.012 9.04633C19.3242 10.6541 17.9057 11.3763 16.1776 10.9636C14.0196 10.4563 13.2286 9.52779 13.2802 7.94584V7.94584Z" fill="#56493F"/>
<path d="M11.8355 15.0386C11.8699 16.8613 10.6061 18.2541 8.86935 18.3315C6.82314 18.4088 5.03486 16.9387 5.00047 15.1504C4.96608 13.4481 6.84034 11.677 8.67161 11.6856C10.4513 11.6942 11.8011 13.1214 11.8355 15.0386V15.0386Z" fill="#56493F"/>
<path d="M23.3303 17.6526C21.9289 17.6354 20.6393 16.2169 20.7167 14.7897C20.7941 13.4399 22.1955 12.2018 23.657 12.1846C25.0155 12.176 26.3395 13.4914 26.2621 14.7897C26.1761 16.3028 24.7747 17.6698 23.3303 17.644V17.6526Z" fill="#56493F"/>
<path d="M17.7506 25.6566C17.6904 27.2901 16.6845 28.425 15.3089 28.3906C13.7355 28.3562 12.635 27.0408 12.721 25.3127C12.7984 23.8167 13.8387 22.7248 15.1283 22.7678C16.5641 22.8194 17.8022 24.1864 17.7506 25.6566V25.6566Z" fill="#56493F"/>
</svg>
