<svg width="110" height="150" viewBox="0 0 110 150" fill="none" xmlns="http://www.w3.org/2000/svg">
<g clip-path="url(#clip0_170_2339)">
<path d="M95.5665 72.0783C95.5146 73.1323 95.6857 74.2595 96.0047 75.3829C96.2699 76.3175 96.2949 77.2925 96.168 78.2675C96.0431 79.2271 95.7779 80.1674 95.8067 81.1463C95.8317 82.0231 95.7376 82.894 95.6665 83.7669C95.6242 84.2756 95.6934 84.7882 95.7818 85.2834C95.8567 85.6977 96.0489 86.1062 96.2584 86.4761C96.8118 87.455 96.8695 88.4955 96.6965 89.5669C96.6274 89.9908 96.4967 90.4051 96.4025 90.8271C96.1873 91.7886 96.293 92.727 96.6485 93.6365C96.883 94.2377 96.9348 94.8505 96.9118 95.4921C96.8945 95.9816 96.8868 96.4749 96.8637 96.9662C96.7792 98.9182 96.7023 100.872 96.5562 102.82C96.4602 104.105 96.3737 105.393 96.1584 106.67C96.0239 107.464 95.7529 108.216 95.5953 108.998C95.5089 109.422 95.4589 109.848 95.4051 110.272C95.2936 111.158 95.1264 112.033 94.9477 112.908C94.8766 113.252 94.8535 113.609 94.8266 113.962C94.7959 114.372 95.0226 114.692 95.2206 115.023C95.5031 115.497 95.8394 115.948 95.9989 116.484C96.1431 116.968 96.2411 117.465 96.3391 117.96C96.4505 118.521 96.6466 119.054 96.8291 119.592C97.0021 120.101 97.0059 120.621 96.9925 121.141C96.9714 121.897 96.8311 122.64 96.6639 123.374C96.4871 124.147 96.4678 124.93 96.4755 125.712C96.4909 127.203 96.512 128.697 96.4794 130.188C96.4582 131.113 96.2949 132.021 95.9778 132.891C95.7818 133.429 95.801 133.932 96.0508 134.446C96.3871 135.138 96.3525 135.88 96.2891 136.618C96.2026 137.628 96.0008 138.626 95.9586 139.64C95.9278 140.41 96.0374 141.173 96.1853 141.929C96.2622 142.32 96.3295 142.715 96.4044 143.106C96.4486 143.335 96.3583 143.536 96.2622 143.725C96.1623 143.923 95.6453 144 95.3801 143.875C95.3397 143.856 95.2936 143.834 95.2648 143.8C94.9189 143.399 94.4788 143.378 94.0022 143.472C93.6582 143.542 93.3122 143.59 92.974 143.705C92.1034 144.002 91.2252 144.295 90.32 144.439C89.5993 144.555 88.8575 144.561 88.1522 144.253C87.6891 144.05 87.2163 143.879 86.7666 143.634C86.1651 143.31 85.4828 143.331 84.8256 143.401C83.8339 143.507 82.8519 143.698 81.8602 143.792C80.6034 143.913 79.385 144.243 78.1358 144.389C77.4555 144.468 76.7675 144.538 76.0737 144.451C75.4664 144.376 74.8534 144.351 74.2422 144.303C74.2115 144.301 74.1807 144.303 74.15 144.297C72.9738 144.114 71.8015 144.216 70.6254 144.305C70.1699 144.339 69.7029 144.299 69.2455 144.254C67.9983 144.129 66.7568 143.942 65.5019 143.883C64.8408 143.852 64.1835 143.898 63.5263 143.931C62.4366 143.985 61.3661 144.195 60.2976 144.397C59.8902 144.474 59.5039 144.621 59.0946 144.703C58.2624 144.869 57.4245 144.933 56.5789 144.952C56.4713 144.954 56.3618 144.954 56.258 144.937C55.3375 144.786 54.4035 144.786 53.4791 144.619C52.547 144.451 51.5919 144.414 50.6367 144.414C49.8257 144.414 49.0128 144.414 48.2057 144.306C47.189 144.172 46.1743 144.016 45.15 143.965C44.6484 143.94 44.141 144.008 43.6375 144.019C42.7324 144.041 41.831 144.112 40.9374 144.249C40.2859 144.349 39.6325 144.411 38.9752 144.426C38.4102 144.439 37.8433 144.43 37.2783 144.488C36.1809 144.599 35.0874 144.727 33.9901 144.834C33.502 144.883 33.01 144.775 32.5218 144.85C31.9914 144.931 31.4552 144.86 30.9191 144.929C29.9562 145.054 28.9915 144.981 28.0306 144.85C27.0562 144.717 26.08 144.684 25.096 144.688C24.1793 144.692 23.2607 144.651 22.369 144.353C21.4772 144.056 20.5509 144.112 19.6342 144.216C19.0269 144.285 18.4408 144.191 17.8662 144.025C17.5664 143.938 17.2627 143.865 16.9629 143.883C16.4402 143.911 15.9982 143.723 15.5735 143.472C15.1372 143.218 14.7413 142.908 14.2474 142.744C13.7804 142.59 13.6248 142.166 13.7727 141.69C13.9457 141.133 14.0956 140.57 14.2282 140.002C14.2763 139.794 14.2474 139.647 14.1129 139.499C13.938 139.304 13.7689 139.104 13.5979 138.907C13.3269 138.593 13.1789 138.231 13.1712 137.813C13.1578 136.917 13.2154 136.032 13.4191 135.152C13.569 134.5 13.5018 133.843 13.3519 133.188C13.2366 132.681 13.1424 132.167 13.2346 131.637C13.3288 131.09 13.325 130.533 13.3596 129.98C13.4287 128.828 13.5229 127.679 13.6017 126.527C13.6344 126.053 13.5902 125.573 13.5556 125.097C13.4499 123.617 13.5844 122.145 13.6728 120.673C13.7574 119.289 13.9765 117.921 14.159 116.549C14.2244 116.052 14.1686 115.547 14.0956 115.041C13.9649 114.137 13.6882 113.274 13.496 112.387C13.4057 111.971 13.4038 111.536 13.4441 111.104C13.571 109.74 13.717 108.377 13.8073 107.011C13.8688 106.057 14.0034 105.115 14.1167 104.169C14.2455 103.1 14.4127 102.036 14.405 100.955C14.3973 99.847 14.3147 98.7409 14.282 97.6349C14.2417 96.2205 14.1398 94.81 14.1264 93.3957C14.1206 92.6866 14.2167 91.9832 14.2167 91.2741C14.2167 89.7326 14.1148 88.2026 13.9034 86.6727C13.7881 85.8364 13.6363 85.0021 13.5594 84.1581C13.5056 83.5761 13.348 83.0096 13.3423 82.42C13.3288 81.1868 13.4345 79.9632 13.5883 78.7377C13.6901 77.9303 13.7285 77.1152 13.7266 76.2982C13.7266 75.5448 13.7478 74.7914 13.7324 74.036C13.7112 73.0591 13.5883 72.1072 13.2231 71.1958C13.0828 70.8489 13.0194 70.479 13.0098 70.1128C12.9887 69.1899 12.9848 68.2649 13.0021 67.342C13.0156 66.5558 13.1309 65.7754 13.2904 65.0085C13.5364 63.8215 13.5402 62.6249 13.5729 61.4244C13.594 60.671 13.5979 59.9157 13.7055 59.168C13.7689 58.7287 13.8765 58.6034 14.3166 58.5649C15.2679 58.482 16.1942 58.2759 17.1244 58.0677C18.3486 57.7941 19.5824 57.8018 20.8277 57.9598C21.5868 58.0562 22.3536 58.1121 23.1204 58.1545C23.8257 58.1949 24.5387 58.2007 25.2286 58.1333C26.0281 58.0543 26.8199 58.1371 27.6155 58.0793C28.2862 58.0292 28.9665 58.0735 29.6411 58.1082C30.5136 58.1545 31.3841 58.1275 32.2566 58.1101C33.5942 58.0832 34.9126 57.9194 36.2348 57.7286C37.6031 57.5321 38.9868 57.4781 40.3685 57.5648C40.7798 57.5918 41.1872 57.6804 41.5966 57.7517C42.3057 57.877 43.0129 58.0176 43.7298 58.0986C43.9585 58.1236 44.1852 58.1583 44.4139 58.1911C45.175 58.3009 45.9399 58.2662 46.7047 58.2315C47.4254 58.2007 48.1422 58.1121 48.8552 58.008C49.5355 57.9097 50.2139 57.7941 50.8923 57.6862C51.392 57.6072 51.9013 57.5648 52.3856 57.4338C53.0332 57.2584 53.6962 57.297 54.3458 57.2103C55.5988 57.0407 56.8576 57.0735 58.1125 57.0696C59.3848 57.0638 60.657 57.0079 61.9292 57.0773C62.6634 57.1178 63.3975 57.1409 64.1297 57.2295C64.7312 57.3008 65.327 57.1852 65.9112 57.058C66.8048 56.8634 67.6927 56.6322 68.5844 56.4299C69.8355 56.1466 71.1001 56.0098 72.3723 56.0002C73.093 55.9944 73.8002 56.1312 74.4824 56.399C75.009 56.6052 75.5606 56.744 76.1217 56.8403C76.2447 56.8615 76.36 56.8615 76.485 56.8442C77.1537 56.7497 77.8245 56.6996 78.5009 56.6746C79.0352 56.6553 79.5675 56.5821 80.0979 56.4973C80.9781 56.3567 81.841 56.4029 82.6501 56.8326C82.8 56.9116 82.9537 56.981 83.1075 57.0484C83.5053 57.2257 83.907 57.2392 84.3182 57.0947C84.8755 56.8981 85.4502 56.823 86.0402 56.8923C86.1459 56.9039 86.2592 56.9155 86.3534 56.9578C86.8608 57.1872 87.3816 57.3355 87.9427 57.3606C88.1676 57.3702 88.3867 57.4762 88.6096 57.5282C89.4091 57.7132 90.2143 57.7325 91.0272 57.6284C91.6249 57.5513 92.2207 57.5725 92.8068 57.7267C93.1278 57.8115 93.4448 57.7845 93.7619 57.6978C94.2712 57.561 94.5076 57.7594 94.646 58.2662C94.8708 59.0967 94.6402 59.8617 94.3519 60.6036C94.0329 61.4225 93.8753 62.2511 93.908 63.1278C93.9291 63.7136 93.9772 64.284 94.154 64.8543C94.3443 65.4729 94.2828 66.1376 94.3462 66.7812C94.3865 67.1974 94.4519 67.6059 94.5441 68.0106C94.6344 68.4037 94.7863 68.7659 95.0399 69.0916C95.4416 69.6061 95.6338 70.1899 95.5723 70.8586C95.5396 71.2247 95.5665 71.5966 95.5665 72.0783V72.0783ZM19.1519 58.9715C18.4792 58.8925 17.8623 59.0505 17.2378 59.1121C16.4748 59.1873 15.7426 59.4628 14.9623 59.4359C14.5607 59.4224 14.5299 59.4782 14.5165 59.8925C14.4973 60.4475 14.5722 60.9986 14.5914 61.5535C14.6356 62.8792 14.5799 64.1992 14.357 65.5114C14.2974 65.8602 14.2513 66.2109 14.2494 66.5673C14.2455 67.3998 14.2263 68.2303 14.2301 69.0627C14.234 69.739 14.2282 70.4212 14.5165 71.057C14.7798 71.639 14.897 72.2556 14.9816 72.8837C15.0969 73.7393 15.0892 74.5968 15.0757 75.4581C15.0507 77.0902 14.9297 78.7146 14.7606 80.337C14.6875 81.0403 14.5895 81.7533 14.6529 82.4547C14.7625 83.6648 14.9316 84.8691 15.1026 86.0715C15.2775 87.2912 15.3851 88.5148 15.4332 89.7461C15.5101 91.7616 15.3044 93.7772 15.4389 95.7927C15.4966 96.6521 15.4947 97.5154 15.5562 98.3748C15.6311 99.4211 15.6503 100.467 15.6273 101.514C15.5888 103.256 15.2275 104.967 15.1142 106.703C15.0162 108.206 14.8586 109.705 14.7279 111.206C14.7106 111.406 14.7279 111.603 14.7452 111.803C14.8124 112.516 15.0853 113.175 15.2372 113.867C15.4966 115.052 15.5927 116.235 15.3794 117.44C15.2641 118.091 15.1353 118.746 15.1046 119.403C15.0546 120.448 14.9547 121.486 14.8586 122.523C14.7951 123.203 14.8374 123.872 14.8547 124.546C14.8739 125.284 14.9527 126.026 14.8989 126.76C14.8009 128.124 14.6299 129.483 14.6337 130.855C14.6337 130.976 14.6203 131.101 14.5953 131.221C14.4723 131.812 14.4396 132.398 14.5703 132.997C14.749 133.818 14.7586 134.641 14.5876 135.472C14.4492 136.15 14.38 136.84 14.3435 137.533C14.3262 137.878 14.405 138.177 14.6664 138.408C14.8643 138.584 14.9931 138.815 15.1603 139.015C15.3659 139.262 15.4332 139.551 15.4351 139.875C15.437 140.223 15.3313 140.537 15.2372 140.863C14.9892 141.723 15.02 141.692 15.7464 142.189C16.298 142.565 16.8707 142.726 17.5222 142.684C17.626 142.678 17.7336 142.711 17.8393 142.736C18.56 142.896 19.2768 142.998 20.0224 142.886C20.5029 142.813 20.9987 142.775 21.483 142.85C22.0134 142.933 22.5342 143.077 23.0608 143.173C23.3914 143.235 23.7123 143.355 24.0544 143.353C24.6213 143.347 25.1921 143.387 25.7533 143.337C26.4355 143.276 27.1043 143.353 27.7673 143.461C29.0511 143.667 30.3387 143.622 31.6186 143.493C32.1086 143.443 32.6026 143.428 33.083 143.441C33.8863 143.464 34.6781 143.414 35.4699 143.32C36.033 143.252 36.5941 143.164 37.1591 143.137C37.5416 143.12 37.9221 143.125 38.2988 143.035C38.3853 143.014 38.4852 143.014 38.5736 143.027C39.1578 143.125 39.7324 142.977 40.3109 142.946C41.5043 142.884 42.6862 142.665 43.8854 142.634C44.8521 142.609 45.8111 142.628 46.772 142.757C47.9116 142.909 49.057 143.023 50.212 143.031C50.9634 143.035 51.7187 143.035 52.4644 143.071C53.3618 143.116 54.2555 143.297 55.1472 143.441C55.9409 143.57 56.7423 143.609 57.5283 143.497C58.445 143.366 59.354 143.166 60.263 142.971C61.4699 142.713 62.6922 142.516 63.9375 142.495C64.7793 142.482 65.6191 142.459 66.457 142.547C67.5371 142.661 68.6075 142.888 69.701 142.871C70.4505 142.859 71.2019 142.871 71.9457 142.809C72.8086 142.738 73.6657 142.832 74.5151 142.9C75.3511 142.965 76.1852 143.083 77.025 143.081C77.6361 143.081 78.2472 142.988 78.8507 142.867C79.5291 142.732 80.2036 142.557 80.8897 142.497C82.1274 142.387 83.3554 142.214 84.5873 142.06C85.0274 142.004 85.4771 141.967 85.9172 141.994C86.5514 142.033 87.1433 142.252 87.7083 142.549C88.06 142.734 88.4366 142.869 88.8172 142.99C89.6743 143.264 90.4987 143.021 91.302 142.773C92.1534 142.509 92.9894 142.21 93.8849 142.131C94.0829 142.114 94.2828 142.094 94.4769 142.06C94.7267 142.015 94.7824 141.931 94.7305 141.676C94.6883 141.464 94.6575 141.256 94.6479 141.038C94.6248 140.518 94.5902 140 94.5883 139.476C94.5864 138.778 94.7248 138.106 94.8093 137.424C94.9073 136.63 95.0726 135.844 94.8247 135.05C94.7882 134.932 94.7478 134.815 94.6959 134.705C94.4211 134.142 94.3519 133.564 94.5441 132.957C94.8343 132.046 95.0515 131.125 95.1072 130.159C95.1303 129.756 95.0611 129.361 95.1072 128.964C95.2379 127.876 95.1456 126.783 95.1149 125.696C95.0822 124.621 95.236 123.583 95.4531 122.546C95.5415 122.124 95.5992 121.698 95.678 121.276C95.7568 120.854 95.6722 120.44 95.5723 120.043C95.4089 119.405 95.1783 118.787 95.0572 118.133C95.015 117.908 94.9592 117.684 94.915 117.457C94.7978 116.844 94.5729 116.285 94.1598 115.8C93.7831 115.359 93.5813 114.838 93.4967 114.254C93.3853 113.491 93.639 112.788 93.7889 112.071C93.9464 111.316 94.0829 110.561 94.179 109.798C94.2655 109.121 94.4365 108.468 94.6095 107.815C94.867 106.847 95.113 105.882 95.1745 104.876C95.2187 104.14 95.2783 103.406 95.3513 102.674C95.5146 101.019 95.5415 99.3556 95.6299 97.6965C95.6415 97.4961 95.6184 97.2938 95.6492 97.0973C95.7529 96.4537 95.7222 95.8082 95.7337 95.1607C95.7414 94.6385 95.6126 94.1433 95.407 93.6828C95.2456 93.3224 95.1629 92.9563 95.113 92.5748C95.0419 92.0218 95.0188 91.4572 95.1341 90.9177C95.2417 90.4263 95.3724 89.9349 95.4935 89.4436C95.6934 88.6401 95.6588 87.852 95.2187 87.1236C94.5384 86.0002 94.3616 84.7747 94.4615 83.4894C94.5268 82.6474 94.6325 81.8092 94.6172 80.9594C94.6114 80.5798 94.5941 80.1983 94.669 79.8129C94.8209 79.0286 95.0169 78.2482 95.0092 77.4389C95.0015 76.7009 94.9977 75.9649 94.7517 75.25C94.6018 74.8164 94.473 74.3713 94.4269 73.9069C94.3289 72.955 94.3539 72.0012 94.4269 71.0512C94.4634 70.5657 94.3404 70.1437 94.0464 69.7544C93.8254 69.4616 93.6543 69.1378 93.539 68.7794C93.2604 67.9085 93.1028 67.024 93.1239 66.1049C93.1335 65.706 93.0989 65.2994 92.9875 64.914C92.8376 64.3899 92.7607 63.86 92.7588 63.3186C92.753 62.4052 92.826 61.5053 93.172 60.6459C93.3103 60.3049 93.4237 59.9503 93.5256 59.5958C93.6486 59.1661 93.6101 59.1044 93.1758 59.0794C92.7453 59.0543 92.3225 58.9772 91.8978 58.9252C91.7614 58.9079 91.6211 58.8963 91.4865 58.906C90.3853 58.9965 89.2938 59.0524 88.1926 58.8058C87.4757 58.6458 86.7531 58.5302 86.0632 58.2624C85.8768 58.1891 85.6885 58.1602 85.479 58.2161C85.2599 58.2739 85.0331 58.297 84.8121 58.3664C84.2932 58.5302 83.7628 58.5668 83.2228 58.4608C82.8557 58.3876 82.5271 58.218 82.1908 58.0716C81.6142 57.8211 81.0262 57.7016 80.3977 57.8211C80.023 57.8924 79.6406 57.9675 79.262 57.9753C78.449 57.9926 77.6419 58.087 76.8328 58.1198C76.3581 58.139 75.8873 58.1757 75.4126 58.0812C74.9437 57.9868 74.4882 57.8654 74.0481 57.6804C73.3716 57.3991 72.6721 57.2662 71.9341 57.324C70.1699 57.4666 68.4441 57.8115 66.7376 58.2701C65.9785 58.4743 65.2021 58.6227 64.418 58.5803C63.0554 58.5071 61.6948 58.3876 60.3265 58.4069C58.6852 58.4281 57.044 58.403 55.4047 58.4473C54.5649 58.4705 53.727 58.5938 52.891 58.7171C51.2075 58.9676 49.5432 59.3472 47.8424 59.4937C47.1391 59.5534 46.4338 59.6613 45.7304 59.6247C44.4274 59.5592 43.1379 59.353 41.8483 59.1468C40.7606 58.9734 39.6767 58.8192 38.5601 58.8424C37.0784 58.8713 35.6371 59.1931 34.1669 59.2913C33.5442 59.3318 32.9177 59.432 32.2931 59.4397C31.4206 59.4532 30.5462 59.3954 29.6737 59.3626C28.9204 59.3337 28.167 59.3896 27.4175 59.3588C26.3279 59.3125 25.2421 59.3973 24.1543 59.3742C23.4644 59.3607 22.7764 59.3491 22.0884 59.2952C21.0967 59.2162 20.1301 58.9137 19.1596 58.9772L19.1519 58.9715Z" fill="#56493F"/>
<path d="M76.5495 100.978C76.1941 101.736 75.6621 102.309 75.087 102.848C74.1051 103.768 72.9425 104.413 71.7387 104.982C69.6476 105.968 67.4333 106.582 65.1799 107.03C63.5079 107.362 61.8153 107.599 60.1124 107.738C59.0011 107.831 57.8899 107.913 56.7786 107.96C55.3859 108.018 53.9911 107.968 52.5984 107.899C50.3184 107.782 48.0547 107.551 45.8055 107.153C44.382 106.9 42.9728 106.582 41.5842 106.19C39.7335 105.668 37.9259 105.013 36.2353 104.084C35.3746 103.612 34.5222 103.108 33.8012 102.422C33.5629 102.194 33.3575 101.946 33.1932 101.658C32.846 101.968 32.8296 102.085 33.1069 102.379C33.2425 102.523 33.3945 102.648 33.4725 102.837C33.5793 103.094 33.5362 103.382 33.3698 103.519C33.1767 103.677 32.9672 103.653 32.7125 103.423C32.2976 103.051 31.973 102.63 32.0018 102.028C32.0264 101.519 32.2318 101.251 32.7351 101.157C32.9405 101.118 33.0165 101.015 33.0206 100.828C33.0206 100.713 33.0268 100.598 33.0145 100.483C32.8789 99.2138 32.9056 97.9361 32.8378 96.6626C32.7823 95.6211 32.846 94.5756 32.809 93.5321C32.7721 92.5194 32.7577 91.5088 32.7556 90.4961C32.7556 89.5964 32.7474 88.6946 32.7413 87.7949C32.7371 87.2362 32.9693 86.7905 33.3513 86.394C34.0888 85.6258 35.0213 85.1903 35.9909 84.8206C37.4329 84.268 38.9365 83.9496 40.4422 83.6292C41.4364 83.4176 42.4367 83.2019 43.4453 83.1218C44.3614 83.0479 45.257 82.826 46.1814 82.8178C46.851 82.8137 47.5145 82.6453 48.1882 82.6227C48.9051 82.598 49.622 82.5549 50.3389 82.5241C51.0907 82.4912 51.8425 82.4481 52.5943 82.4357C53.3133 82.4234 54.0363 82.4357 54.7512 82.3988C55.5399 82.3597 56.3205 82.4604 57.1072 82.4337C57.7954 82.4111 58.4835 82.4378 59.1716 82.4891C59.907 82.5446 60.6465 82.5343 61.3819 82.5816C63.5428 82.7171 65.6996 82.9226 67.8421 83.243C69.4648 83.4854 71.0712 83.812 72.6549 84.2454C73.6676 84.5227 74.6679 84.837 75.6169 85.2992C76.57 85.7634 77.3321 86.4372 77.8806 87.3471C77.9874 87.5238 77.9874 87.723 77.9935 87.9202C78.0244 89.1014 77.9381 90.2804 77.8785 91.4595C77.8374 92.275 77.8313 93.0946 77.7203 93.908C77.6197 94.6536 77.5724 95.4096 77.4718 96.1511C77.3136 97.3137 77.1308 98.4764 76.9316 99.6349C76.8823 99.9245 76.9316 100.146 77.1555 100.339C77.3609 100.514 77.4903 100.74 77.5396 101.009C77.5745 101.196 77.5519 101.369 77.4574 101.531C77.3691 101.685 77.2417 101.788 77.0589 101.765C76.8761 101.742 76.7754 101.621 76.7262 101.447C76.6871 101.309 76.7344 101.147 76.5515 100.98L76.5495 100.978ZM39.0454 93.0946L39.0495 93.1007C39.033 92.7556 39.0228 92.4126 39.0022 92.0675C38.9817 91.7347 38.8153 91.5232 38.4784 91.4472C38.2073 91.3855 37.9402 91.3034 37.6732 91.2253C36.4633 90.87 35.2452 90.5331 34.2079 89.7628C34.1298 89.7053 34.0374 89.6293 33.9409 89.6765C33.7971 89.7443 33.8813 89.8758 33.8916 89.9826C34.0456 91.4841 34.2079 92.9836 34.2469 94.4934C34.2593 94.9659 34.4297 95.3171 34.8755 95.5718C36.1223 96.2826 37.4247 96.8557 38.7906 97.287C39.144 97.4 39.146 97.3938 39.2364 97.0323C39.3227 96.6811 39.4397 96.6215 39.7972 96.7386C39.906 96.7735 40.017 96.8023 40.1279 96.8207C40.3045 96.8516 40.4401 96.9276 40.4812 97.1145C40.5182 97.2788 40.4401 97.3959 40.3127 97.4945C40.2552 97.5397 40.1464 97.5458 40.1649 97.6732C40.2676 97.7492 40.4011 97.7636 40.5243 97.8006C42.0731 98.2463 43.6569 98.5257 45.2447 98.7845C46.5244 98.994 47.8103 99.1665 49.1003 99.2775C50.6696 99.411 52.2431 99.489 53.8186 99.5466C55.8542 99.6205 57.8858 99.5322 59.9173 99.4254C62.1008 99.3103 64.2638 99.0618 66.4186 98.7023C68.7562 98.31 71.0486 97.7595 73.2444 96.8536C74.0188 96.5332 74.7604 96.147 75.4629 95.6848C75.6683 95.5492 75.771 95.3829 75.8141 95.1323C75.9189 94.516 75.9209 93.8895 75.9805 93.2712C76.0627 92.39 76.1243 91.5088 76.3297 90.644C76.379 90.4406 76.3749 90.2188 76.3626 90.0072C76.3544 89.847 76.2455 89.7689 76.0873 89.8614C75.9312 89.9497 75.7915 90.075 75.6293 90.149C74.4769 90.6707 73.2814 91.0897 72.0592 91.404C70.344 91.8457 68.5939 92.125 66.8479 92.4126C66.3323 92.4968 65.8085 92.5913 65.2888 92.5934C64.88 92.5934 64.4733 92.5749 64.0645 92.6283C62.3083 92.8583 60.5397 92.9323 58.7731 93.0021C57.9392 93.035 57.1011 93.0329 56.2692 93.074C54.5807 93.1562 52.8942 93.074 51.2099 93.0412C49.772 93.0103 48.33 92.9261 46.9003 92.7618C45.9082 92.6488 44.9099 92.6098 43.9198 92.4537C42.7058 92.2606 41.4877 92.0963 40.2778 91.8765C39.7191 91.7758 39.6287 91.8765 39.754 92.4249C39.7869 92.5708 39.8567 92.657 39.9985 92.6961C40.1443 92.7351 40.2717 92.8111 40.3805 92.9138C40.5182 93.0432 40.6291 93.1973 40.5408 93.3904C40.4586 93.5691 40.2881 93.5855 40.1176 93.53C39.8526 93.4438 39.8424 93.6143 39.8526 93.7909C39.8691 94.136 39.8937 94.479 39.9204 94.8221C39.9389 95.0521 39.9677 95.2802 39.8958 95.5061C39.8608 95.6191 39.7972 95.7177 39.6636 95.7321C39.5301 95.7464 39.45 95.6622 39.3884 95.5595C39.2754 95.3705 39.2549 95.159 39.2179 94.9474C39.1131 94.3332 39.1974 93.7005 39.0454 93.0905V93.0946ZM34.5325 96.3298C34.4503 96.3955 34.4564 96.4633 34.4585 96.527C34.4955 97.1802 34.4955 97.8396 34.5797 98.4887C34.6906 99.3535 34.6352 100.222 34.7029 101.087C34.7091 101.165 34.668 101.247 34.6639 101.33C34.6495 101.541 34.4441 101.736 34.5407 101.936C34.6393 102.141 34.8899 102.225 35.0706 102.365C35.0973 102.385 35.1261 102.402 35.1528 102.418C36.7632 103.468 38.5298 104.172 40.3436 104.766C42.1861 105.37 44.0759 105.793 45.9862 106.12C46.2656 106.167 46.3375 106.12 46.3416 105.816C46.3478 105.323 46.3252 104.83 46.3231 104.337C46.3231 104.041 46.3231 103.745 46.3519 103.451C46.3724 103.242 46.4936 103.065 46.7319 103.076C46.9886 103.086 47.0379 103.287 47.04 103.499C47.0441 103.844 47.04 104.189 47.04 104.534C47.04 104.733 47.042 104.92 47.2618 105.039C47.457 105.144 47.4447 105.312 47.2742 105.432C47.0195 105.61 47.0318 105.849 47.1119 106.091C47.1941 106.34 47.4426 106.337 47.648 106.366C48.9976 106.561 50.3533 106.697 51.7131 106.754C53.3338 106.822 54.9566 106.911 56.5855 106.837C58.0275 106.769 59.4715 106.709 60.9074 106.563C62.6226 106.389 64.3213 106.105 66.0016 105.713C68.2159 105.195 70.3728 104.515 72.3673 103.402C73.5649 102.733 74.6618 101.929 75.393 100.722C75.5142 100.52 75.5738 100.323 75.5943 100.081C75.6642 99.1974 75.5841 98.312 75.6909 97.4308C75.7237 97.1556 75.773 96.8557 75.6457 96.5701C75.5615 96.601 75.5122 96.6112 75.4711 96.6359C73.8627 97.5931 72.1229 98.2278 70.3296 98.7208C67.1375 99.5979 63.8715 100.054 60.5767 100.302C58.3685 100.469 56.1521 100.491 53.9398 100.452C51.6577 100.411 49.3837 100.235 47.1181 99.9574C46.7175 99.9081 46.66 99.9574 46.6641 100.374C46.6661 100.687 46.697 100.997 46.7113 101.309C46.7216 101.523 46.736 101.736 46.7216 101.948C46.7113 102.129 46.6744 102.334 46.4381 102.344C46.2122 102.355 46.1465 102.161 46.0992 101.985C46.0643 101.86 46.0437 101.728 46.0335 101.599C46.0027 101.206 45.9801 100.814 45.9554 100.42C45.9205 99.828 45.9226 99.8198 45.3577 99.7273C43.6384 99.448 41.9355 99.0988 40.2511 98.653C40.093 98.6119 39.9451 98.5565 39.7972 98.7085C39.6349 98.8749 39.4397 98.8317 39.3432 98.6469C39.1789 98.3326 38.8934 98.2463 38.5934 98.1436C37.5356 97.7841 36.4962 97.3774 35.504 96.8618C35.1733 96.6913 34.8488 96.5085 34.5345 96.336L34.5325 96.3298ZM34.4441 87.2383C34.1052 87.7456 34.1298 87.9716 34.5304 88.3187C35.0193 88.7439 35.6006 89.0192 36.1942 89.2575C37.5068 89.7854 38.8708 90.1325 40.2593 90.3996C41.3213 90.6029 42.3751 90.8556 43.4514 90.9501C44.2854 91.022 45.1009 91.2212 45.9349 91.2787C46.5737 91.3239 47.2064 91.4513 47.8411 91.4677C48.4779 91.4841 49.1208 91.4944 49.7535 91.5458C51.8651 91.7183 53.9829 91.6916 56.0987 91.7614C57.1093 91.7943 58.1261 91.7039 59.1388 91.669C60.1371 91.6341 61.1395 91.6341 62.1337 91.554C63.1587 91.4698 64.1857 91.441 65.2066 91.2192C66.1967 91.0055 67.2258 90.985 68.2324 90.8453C69.6127 90.6543 70.9767 90.3708 72.3262 90.0298C73.2506 89.7956 74.1462 89.4773 75.0192 89.0952C75.163 89.0336 75.3088 88.9535 75.3869 88.7994C75.2102 88.5899 74.9904 88.481 74.7727 88.368C73.3225 87.6162 71.7839 87.1171 70.2084 86.696C68.5857 86.2626 66.9403 85.9565 65.2826 85.7511C63.169 85.4902 61.0491 85.254 58.9128 85.1903C57.1771 85.139 55.4413 85.063 53.7036 85.0979C52.0788 85.1287 50.4581 85.1862 48.8373 85.3177C45.9862 85.5498 43.1598 85.938 40.4031 86.7288C38.8954 87.1623 37.4349 87.6943 36.2435 88.7747C36.184 88.8282 36.1162 88.8836 36.0422 88.9124C35.8101 89.0048 35.6109 88.8651 35.6026 88.6125C35.5965 88.4502 35.6828 88.3331 35.7814 88.2201C36.0196 87.9449 36.2826 87.7025 36.5866 87.5012C37.9649 86.5892 39.5137 86.0982 41.0913 85.6997C43.0509 85.2067 45.0434 84.8986 47.0544 84.6747C49.242 84.4323 51.4338 84.2783 53.6317 84.231C54.9443 84.2023 56.2589 84.1838 57.5715 84.2454C58.9477 84.3111 60.324 84.383 61.6982 84.4878C62.5815 84.5556 63.4668 84.6213 64.3419 84.7487C66.0303 84.9911 67.7188 85.2396 69.3868 85.6114C70.9438 85.9565 72.4782 86.3735 73.9449 87.0144C74.3742 87.2013 74.8035 87.3923 75.2801 87.6018C75.2698 87.2301 75.4711 87.0246 75.7874 86.8192C74.8076 86.3591 73.9161 85.8867 72.9322 85.6176C71.825 85.3156 70.7014 85.0794 69.5758 84.8575C68.4152 84.6295 67.2443 84.4755 66.0714 84.342C64.9334 84.2125 63.7975 84.0811 62.6534 84.001C61.2299 83.9024 59.8064 83.8099 58.3828 83.7709C56.9922 83.7319 55.6016 83.7093 54.2089 83.7545C53.5043 83.7771 52.7977 83.7606 52.0931 83.773C50.6676 83.7976 49.2523 83.964 47.8288 84.0318C46.7175 84.0852 45.6185 84.2618 44.5114 84.3563C43.8273 84.4139 43.1454 84.5227 42.4675 84.6357C41.8369 84.7405 41.2166 84.9089 40.5859 85.0013C39.0371 85.2314 37.5541 85.6936 36.1039 86.2626C35.6848 86.4269 35.2576 86.6097 34.8858 86.924C35.048 87.1356 35.2555 87.2773 35.3705 87.4971C35.5164 87.7764 35.5082 87.9983 35.3356 88.1195C35.1692 88.2366 34.9412 88.1688 34.7338 87.9387C34.5756 87.7641 34.4811 87.5587 34.4523 87.2383H34.4441ZM76.1407 87.1664C76.0812 87.3245 76.1489 87.5197 76.0195 87.6265C75.695 87.8915 75.8634 88.1585 75.9785 88.442C76.5783 88.0496 76.6296 87.6573 76.1407 87.1684V87.1664Z" fill="#FFCA4B"/>
<path d="M71.6362 107.032C71.1207 107.114 70.6811 107.342 70.2189 107.5C67.261 108.517 64.2455 109.29 61.1335 109.647C60.5645 109.713 59.9935 109.797 59.4163 109.762C59.3177 109.756 59.217 109.762 59.1225 109.744C58.9192 109.703 58.8124 109.561 58.798 109.364C58.7836 109.164 58.9192 109.066 59.0856 109.014C59.1944 108.979 59.3115 108.973 59.4245 108.963C60.9158 108.842 62.3763 108.548 63.8367 108.228C65.7943 107.796 67.717 107.244 69.617 106.615C71.5972 105.958 73.5199 105.153 75.3357 104.115C75.7198 103.896 76.0793 103.635 76.4121 103.341C76.6401 103.142 76.8147 102.928 76.901 102.624C77.018 102.215 77.246 102.1 77.5973 102.205C77.8726 102.287 78.0472 102.7 77.928 103.025C77.7411 103.534 77.398 103.93 76.9687 104.247C75.7876 105.12 74.4935 105.789 73.146 106.363C72.8235 106.5 72.6715 106.691 72.6448 107.059C72.5832 107.961 72.388 108.846 72.2422 109.735C72.0594 110.853 71.8725 111.97 71.6773 113.086C71.5171 113.992 71.3404 114.893 71.172 115.797C70.9419 117.021 70.7406 118.252 70.4777 119.468C70.071 121.343 69.8081 123.247 69.3911 125.121C69.3726 125.201 69.3377 125.281 69.3418 125.361C69.3623 125.897 69.0254 126.164 68.6249 126.442C67.1315 127.471 65.5437 128.317 63.8634 128.982C62.5693 129.496 61.2547 129.96 59.8908 130.272C58.5289 130.585 57.1547 130.778 55.7599 130.889C53.714 131.051 51.6907 130.952 49.6838 130.556C48.0056 130.223 46.3808 129.722 44.8464 128.935C43.464 128.227 42.1863 127.382 41.0545 126.316C40.8018 126.078 40.6621 125.801 40.5368 125.462C39.9699 123.931 39.7152 122.319 39.2571 120.762C38.9428 119.694 38.7313 118.597 38.4334 117.523C38.2054 116.701 37.9548 115.879 37.7864 115.051C37.5399 113.831 37.1393 112.65 36.9462 111.416C36.8312 110.672 36.6155 109.943 36.4697 109.203C36.2869 108.285 36.1205 107.365 35.9664 106.443C35.913 106.126 35.7898 105.909 35.4899 105.757C34.9353 105.475 34.3827 105.181 33.8733 104.818C33.4604 104.524 33.368 104.358 33.4933 104.126C33.6206 103.891 33.8281 103.881 34.2779 104.099C35.4139 104.651 36.5518 105.202 37.6837 105.765C38.3759 106.11 39.101 106.373 39.8158 106.66C42.0343 107.55 44.3452 108.125 46.7013 108.47C48.322 108.706 49.9283 109.049 51.5716 109.166C52.8164 109.255 54.0571 109.351 55.306 109.314C55.4539 109.31 55.6018 109.32 55.7476 109.343C55.9058 109.366 56.029 109.446 56.0393 109.624C56.0475 109.776 55.953 109.867 55.8257 109.926C55.6449 110.011 55.4498 110.039 55.2505 110.048C53.3279 110.119 51.4031 110.138 49.499 109.844C48.4596 109.684 47.4161 109.59 46.3788 109.435C45.3599 109.286 44.3472 109.066 43.3489 108.799C42.6218 108.604 41.8905 108.41 41.1592 108.232C40.5964 108.094 40.0706 107.866 39.5324 107.669C38.8401 107.414 38.1643 107.114 37.4803 106.837C37.3797 106.796 37.277 106.683 37.1681 106.792C37.0674 106.892 37.1516 107.01 37.1825 107.116C37.4433 108.014 37.7227 108.906 37.9651 109.807C38.1808 110.615 38.4149 111.414 38.5957 112.231C38.7251 112.819 38.8299 113.418 39.0291 113.994C39.2777 114.708 39.3413 115.468 39.5221 116.202C39.9001 117.744 40.2287 119.299 40.5923 120.846C40.8593 121.978 41.0689 123.124 41.4037 124.242C41.5002 124.564 41.5146 124.926 41.492 125.265C41.4715 125.556 41.5865 125.723 41.7857 125.889C42.5848 126.55 43.4352 127.138 44.3534 127.619C46.5801 128.783 48.9587 129.41 51.4524 129.664C52.8287 129.806 54.2091 129.816 55.5812 129.718C56.8712 129.625 58.153 129.434 59.4204 129.137C60.4762 128.888 61.5238 128.617 62.5385 128.241C63.7648 127.785 64.9973 127.333 66.125 126.641C66.6262 126.333 67.1706 126.092 67.6821 125.797C67.9655 125.632 68.1114 125.417 68.1627 125.104C68.3209 124.182 68.4832 123.262 68.6516 122.342C68.9104 120.939 69.1795 119.538 69.4424 118.137C69.6869 116.847 69.919 115.555 70.1778 114.269C70.6277 112.034 71.0611 109.795 71.5828 107.574C71.6198 107.416 71.6794 107.26 71.6301 107.03L71.6362 107.032Z" fill="#FFCA4B"/>
<path d="M66.6012 74.6898C66.5786 75.2424 66.5437 75.7189 66.4122 76.177C66.0835 77.3355 66.0096 78.529 65.9356 79.7204C65.8905 80.4311 65.683 81.1028 65.5248 81.7868C65.5166 81.8176 65.5022 81.8484 65.4899 81.8793C65.303 82.2962 64.9373 82.5304 64.6148 82.44C64.3088 82.3538 64.1383 81.9984 64.1814 81.5444C64.2718 80.6016 64.3088 79.6485 64.469 78.7159C64.6025 77.9312 64.6908 77.1301 64.9599 76.3701C65.1571 75.8134 65.2578 75.2301 65.3975 74.657C65.4365 74.4947 65.4242 74.3345 65.4057 74.1681C65.3502 73.7059 65.5166 73.4224 65.8555 73.3875C66.1411 73.3588 66.5046 73.6833 66.5539 74.0325C66.5868 74.2749 66.5909 74.5214 66.6012 74.6898Z" fill="#FFCA4B"/>
<path d="M54.3424 74.7987C54.3732 75.189 54.2602 75.6389 54.1965 76.0928C54.139 76.4893 54.1267 76.8734 54.252 77.2596C54.328 77.4937 54.3732 77.7382 54.4101 77.9806C54.4389 78.1736 54.4574 78.3749 54.4368 78.568C54.404 78.8946 54.2171 79.1062 53.9788 79.137C53.7241 79.1699 53.4694 79.0384 53.342 78.7652C52.999 78.0196 52.6559 77.2678 52.7668 76.4133C52.8182 76.025 52.9004 75.6389 52.9969 75.2588C53.1715 74.5789 53.2146 73.9072 53.0565 73.215C52.9517 72.7528 52.9147 72.2742 52.849 71.8018C52.8408 71.736 52.8326 71.6703 52.8367 71.6046C52.8552 71.2102 53.0647 70.9863 53.3995 71.0007C53.6933 71.013 53.913 71.2554 53.9048 71.6128C53.8905 72.2146 54.0938 72.7754 54.1924 73.3567C54.2705 73.8107 54.3465 74.2626 54.3403 74.7987H54.3424Z" fill="#FFCA4B"/>
<path d="M60.0589 74.5688C60.0856 75.0474 59.9994 75.5178 59.9316 75.9862C59.8576 76.4956 59.872 76.9947 59.9254 77.5021C60.0014 78.221 59.9685 78.942 59.835 79.6528C59.7981 79.8459 59.7364 80.0348 59.5968 80.1848C59.2701 80.536 58.773 80.4272 58.6272 79.9712C58.5697 79.7945 58.582 79.6178 58.6169 79.4371C58.7648 78.675 58.7566 77.9088 58.6909 77.1385C58.658 76.7503 58.6806 76.3539 58.773 75.9677C58.9251 75.3309 59.0914 74.6982 59.1654 74.043C59.2147 73.6137 59.4057 73.4165 59.6769 73.437C59.946 73.4575 60.0528 73.6506 60.0589 74.1231C60.0589 74.271 60.0589 74.4189 60.0589 74.5647V74.5688Z" fill="#FFCA4B"/>
<path d="M46.6334 78.0074C46.6252 78.1369 46.6191 78.2683 46.6047 78.3977C46.5595 78.8188 46.6334 79.205 46.8656 79.5706C47.0566 79.8705 47.0854 80.2156 47.0114 80.5669C46.958 80.8175 46.8122 80.9633 46.5595 81.027C46.3089 81.0907 46.1302 80.9818 46.0008 80.8093C45.3517 79.9589 44.984 79.0263 45.2182 77.9294C45.2695 77.6891 45.2839 77.4426 45.3085 77.1981C45.3394 76.8777 45.3435 76.5839 44.9429 76.4504C44.7498 76.3847 44.6594 76.1916 44.7067 75.9636C44.7519 75.7459 44.8833 75.6226 45.0929 75.5651C45.5653 75.4357 46.1281 75.6822 46.3335 76.1341C46.539 76.586 46.6807 77.0543 46.6129 77.5638C46.5944 77.7075 46.6109 77.8575 46.6109 78.0054C46.6191 78.0054 46.6293 78.0054 46.6376 78.0054L46.6334 78.0074Z" fill="#FFCA4B"/>
<path d="M38.8399 96.3608C38.844 96.5559 38.7063 96.7018 38.5133 96.712C38.3058 96.7223 38.1456 96.5744 38.1312 96.3546C38.1148 96.1348 38.2544 95.9643 38.4578 95.9459C38.6673 95.9294 38.8358 96.1102 38.8399 96.3587V96.3608Z" fill="#FFCA4B"/>
<path d="M39.0453 93.0948C39.0207 93.1872 38.9919 93.2797 38.9221 93.3495C38.8153 93.4563 38.6982 93.4666 38.577 93.3844C38.4702 93.3105 38.4435 93.2036 38.4907 93.0886C38.5503 92.953 38.6653 92.8996 38.805 92.953C38.8933 92.988 38.9693 93.0516 39.0494 93.1009L39.0453 93.0948V93.0948Z" fill="#FFCA4B"/>
<path d="M45.9264 101.175C45.9387 101.369 45.7785 101.545 45.571 101.566C45.3636 101.586 45.1746 101.43 45.1705 101.235C45.1664 101.046 45.3389 100.886 45.5546 100.876C45.758 100.865 45.9141 100.993 45.9264 101.175Z" fill="#FFCA4B"/>
<path d="M45.9883 104.762C45.9883 104.97 45.8219 105.13 45.6145 105.117C45.4131 105.107 45.2509 104.933 45.2591 104.733C45.2673 104.55 45.4255 104.396 45.6042 104.398C45.7952 104.401 45.9862 104.581 45.9883 104.762V104.762Z" fill="#FFCA4B"/>
<path d="M46.8408 101.418C46.8552 101.221 46.9559 101.104 47.1469 101.09C47.3318 101.077 47.4694 101.159 47.4961 101.357C47.5207 101.539 47.3605 101.712 47.1695 101.71C46.9784 101.706 46.8675 101.603 46.8408 101.418V101.418Z" fill="#FFCA4B"/>
<path d="M53.8022 86.4641C53.6276 86.3532 53.451 86.2443 53.2764 86.1293C53.0792 85.9999 52.9744 85.8191 53.0525 85.5829C53.1244 85.3652 53.3113 85.3036 53.5229 85.3015C53.7201 85.2974 53.9131 85.2933 54.1001 85.3857C54.4965 85.5809 54.9053 85.7555 55.2997 85.9547C55.4496 86.0307 55.5934 86.0821 55.7618 86.0944C56.1398 86.119 56.5013 86.2402 56.8587 86.3553C57.1566 86.4518 57.4113 86.6367 57.6044 86.8955C57.8961 87.2878 57.781 87.7274 57.3065 87.8609C57.0621 87.9287 56.9204 88.0047 56.832 88.2656C56.715 88.6148 56.2959 88.6908 55.918 88.4525C55.7125 88.3231 55.5051 88.1711 55.351 87.9862C55.1477 87.7459 54.9258 87.7254 54.6526 87.7952C54.2213 87.9082 53.7755 87.9082 53.3339 87.9164C52.9744 87.9226 52.7238 87.7274 52.6724 87.4501C52.6231 87.1831 52.808 86.9058 53.1326 86.7743C53.2538 86.725 53.3852 86.7024 53.5085 86.6572C53.6132 86.6202 53.7344 86.61 53.8002 86.4621L53.8022 86.4641Z" fill="#FFCA4B"/>
</g>
<path d="M59.0436 15.8453C58.9636 19.8053 58.2836 23.5553 55.1636 26.4353C54.2236 27.2953 53.3636 28.2353 52.4436 29.1253C51.2836 30.2553 49.8036 30.5553 48.2636 30.6053C47.3536 30.6353 46.9436 30.1153 47.1836 29.2053C47.3536 28.5953 47.5636 27.9853 47.7836 27.3853C49.0836 23.7953 49.3636 20.0853 49.0836 16.3053C48.8336 12.9353 47.7736 9.93531 45.2936 7.52531C44.7036 6.94531 43.7236 6.37531 44.0736 5.37531C44.4436 4.33531 45.6036 4.37531 46.5136 4.15531C47.3836 3.94531 48.2736 3.93531 49.1136 4.20531C53.3036 5.53531 56.6736 7.87531 58.4936 12.0553C59.0236 13.2653 59.0236 14.5353 59.0336 15.8353L59.0436 15.8453Z" fill="#FFCA4B"/>
<defs>
<clipPath id="clip0_170_2339">
<rect width="84" height="89" fill="white" transform="translate(13 56)"/>
</clipPath>
</defs>
</svg>
