<svg width="18" height="18" viewBox="0 0 18 18" fill="none" xmlns="http://www.w3.org/2000/svg">
<path d="M15.9508 5.3291C16.1251 6.12196 15.7993 6.68295 15.5492 7.1841C14.5412 9.18869 14.4427 11.298 14.5488 13.4597C14.5564 13.6392 14.564 13.8187 14.564 13.9982C14.564 15.6587 14.3518 15.7784 12.7982 15.0005C12.4724 14.836 12.1692 14.649 11.8509 14.4694C10.843 13.901 9.9033 13.9309 9.03179 14.7387C8.41794 15.3072 7.79652 15.8831 7.16751 16.4366C6.87196 16.6984 6.59914 17.1996 6.12928 16.9153C5.71247 16.661 5.89435 16.1674 5.95498 15.7635C6.04592 15.1726 6.11412 14.5742 6.26569 14.0057C6.60672 12.7266 6.16717 11.7767 5.06831 11.1035C4.24985 10.6024 3.38592 10.1685 2.57504 9.65244C1.80205 9.15877 1.80963 8.78478 2.59019 8.37339C3.06763 8.11908 3.58296 7.93956 4.09071 7.76005C5.34113 7.31874 6.10655 6.46604 6.3339 5.18699C6.54609 4.01265 6.66734 2.82336 6.90985 1.65651C7.069 0.893567 7.54643 0.78137 8.01629 1.39472C8.7135 2.29229 9.39555 3.21979 9.95635 4.19965C10.6536 5.4039 11.6539 5.74049 12.9801 5.68065C13.9426 5.63578 14.8444 5.18699 15.9357 5.33658L15.9508 5.3291Z" fill="#56493F"/>
</svg>
