<svg width="110" height="150" viewBox="0 0 110 150" fill="none" xmlns="http://www.w3.org/2000/svg">
<g clip-path="url(#clip0_170_2358)">
<path d="M96.5665 70.0783C96.5146 71.1323 96.6857 72.2595 97.0047 73.3829C97.2699 74.3175 97.2949 75.2925 97.168 76.2675C97.0431 77.2271 96.7779 78.1674 96.8067 79.1463C96.8317 80.0231 96.7376 80.894 96.6665 81.7669C96.6242 82.2756 96.6934 82.7882 96.7818 83.2834C96.8567 83.6977 97.0489 84.1062 97.2584 84.4761C97.8118 85.455 97.8695 86.4955 97.6965 87.5669C97.6274 87.9908 97.4967 88.4051 97.4025 88.8271C97.1873 89.7886 97.293 90.727 97.6485 91.6365C97.883 92.2377 97.9348 92.8505 97.9118 93.4921C97.8945 93.9816 97.8868 94.4749 97.8637 94.9662C97.7792 96.9182 97.7023 98.8721 97.5562 100.82C97.4602 102.105 97.3737 103.393 97.1584 104.67C97.0239 105.464 96.7529 106.216 96.5953 106.998C96.5089 107.422 96.4589 107.848 96.4051 108.272C96.2936 109.158 96.1264 110.033 95.9477 110.908C95.8766 111.252 95.8535 111.609 95.8266 111.962C95.7959 112.372 96.0226 112.692 96.2206 113.023C96.5031 113.497 96.8394 113.948 96.9989 114.484C97.1431 114.968 97.2411 115.465 97.3391 115.96C97.4505 116.521 97.6466 117.054 97.8291 117.592C98.0021 118.101 98.0059 118.621 97.9925 119.141C97.9714 119.897 97.8311 120.64 97.6639 121.374C97.4871 122.147 97.4678 122.93 97.4755 123.712C97.4909 125.203 97.512 126.697 97.4794 128.188C97.4582 129.113 97.2949 130.021 96.9778 130.891C96.7818 131.429 96.801 131.932 97.0508 132.446C97.3871 133.138 97.3525 133.88 97.2891 134.618C97.2026 135.628 97.0008 136.626 96.9586 137.64C96.9278 138.41 97.0374 139.173 97.1853 139.929C97.2622 140.32 97.3295 140.715 97.4044 141.106C97.4486 141.335 97.3583 141.536 97.2622 141.725C97.1623 141.923 96.6453 142 96.3801 141.875C96.3397 141.856 96.2936 141.834 96.2648 141.8C95.9189 141.399 95.4788 141.378 95.0022 141.472C94.6582 141.542 94.3122 141.59 93.974 141.705C93.1034 142.002 92.2252 142.295 91.32 142.439C90.5993 142.555 89.8575 142.561 89.1522 142.253C88.6891 142.05 88.2163 141.879 87.7666 141.634C87.1651 141.31 86.4828 141.331 85.8256 141.401C84.8339 141.507 83.8519 141.698 82.8602 141.792C81.6034 141.913 80.385 142.243 79.1358 142.389C78.4555 142.468 77.7675 142.538 77.0737 142.451C76.4664 142.376 75.8534 142.351 75.2422 142.303C75.2115 142.301 75.1807 142.303 75.15 142.297C73.9738 142.114 72.8015 142.216 71.6254 142.305C71.1699 142.339 70.7029 142.299 70.2455 142.254C68.9983 142.129 67.7568 141.942 66.5019 141.883C65.8408 141.852 65.1835 141.898 64.5263 141.931C63.4366 141.985 62.3661 142.195 61.2976 142.397C60.8902 142.474 60.5039 142.621 60.0946 142.703C59.2624 142.869 58.4245 142.933 57.5789 142.952C57.4713 142.954 57.3618 142.954 57.258 142.937C56.3375 142.786 55.4035 142.786 54.4791 142.619C53.547 142.451 52.5919 142.414 51.6367 142.414C50.8257 142.414 50.0128 142.414 49.2057 142.306C48.189 142.172 47.1743 142.016 46.15 141.965C45.6484 141.94 45.141 142.008 44.6375 142.019C43.7324 142.041 42.831 142.112 41.9374 142.249C41.2859 142.349 40.6325 142.411 39.9752 142.426C39.4102 142.439 38.8433 142.43 38.2783 142.488C37.1809 142.599 36.0874 142.727 34.9901 142.834C34.502 142.883 34.01 142.775 33.5218 142.85C32.9914 142.931 32.4552 142.86 31.9191 142.929C30.9562 143.054 29.9915 142.981 29.0306 142.85C28.0562 142.717 27.08 142.684 26.096 142.688C25.1793 142.692 24.2607 142.651 23.369 142.353C22.4772 142.056 21.5509 142.112 20.6342 142.216C20.0269 142.285 19.4408 142.191 18.8662 142.025C18.5664 141.938 18.2627 141.865 17.9629 141.883C17.4402 141.911 16.9982 141.723 16.5735 141.472C16.1372 141.218 15.7413 140.908 15.2474 140.744C14.7804 140.59 14.6248 140.166 14.7727 139.69C14.9457 139.133 15.0956 138.57 15.2282 138.002C15.2763 137.794 15.2474 137.647 15.1129 137.499C14.938 137.304 14.7689 137.104 14.5979 136.907C14.3269 136.593 14.1789 136.231 14.1712 135.813C14.1578 134.917 14.2154 134.032 14.4191 133.152C14.569 132.5 14.5018 131.843 14.3519 131.188C14.2366 130.681 14.1424 130.167 14.2346 129.637C14.3288 129.09 14.325 128.533 14.3596 127.98C14.4287 126.828 14.5229 125.679 14.6017 124.527C14.6344 124.053 14.5902 123.573 14.5556 123.097C14.4499 121.617 14.5844 120.145 14.6728 118.673C14.7574 117.289 14.9765 115.921 15.159 114.549C15.2244 114.052 15.1686 113.547 15.0956 113.041C14.9649 112.137 14.6882 111.274 14.496 110.387C14.4057 109.971 14.4038 109.536 14.4441 109.104C14.571 107.74 14.717 106.377 14.8073 105.011C14.8688 104.057 15.0034 103.115 15.1167 102.169C15.2455 101.1 15.4127 100.036 15.405 98.9549C15.3973 97.847 15.3147 96.7409 15.282 95.6349C15.2417 94.2205 15.1398 92.81 15.1264 91.3957C15.1206 90.6866 15.2167 89.9832 15.2167 89.2741C15.2167 87.7326 15.1148 86.2026 14.9034 84.6727C14.7881 83.8364 14.6363 83.0021 14.5594 82.1581C14.5056 81.5761 14.348 81.0096 14.3423 80.42C14.3288 79.1868 14.4345 77.9632 14.5883 76.7377C14.6901 75.9303 14.7285 75.1152 14.7266 74.2982C14.7266 73.5448 14.7478 72.7914 14.7324 72.036C14.7112 71.0591 14.5883 70.1072 14.2231 69.1958C14.0828 68.8489 14.0194 68.479 14.0098 68.1128C13.9887 67.1899 13.9848 66.2649 14.0021 65.342C14.0156 64.5558 14.1309 63.7754 14.2904 63.0085C14.5364 61.8215 14.5402 60.6249 14.5729 59.4244C14.594 58.671 14.5979 57.9157 14.7055 57.168C14.7689 56.7287 14.8765 56.6034 15.3166 56.5649C16.2679 56.482 17.1942 56.2759 18.1244 56.0677C19.3486 55.7941 20.5824 55.8018 21.8277 55.9598C22.5868 56.0562 23.3536 56.1121 24.1204 56.1545C24.8257 56.1949 25.5387 56.2007 26.2286 56.1333C27.0281 56.0543 27.8199 56.1371 28.6155 56.0793C29.2862 56.0292 29.9665 56.0735 30.6411 56.1082C31.5136 56.1545 32.3841 56.1275 33.2566 56.1101C34.5942 56.0832 35.9126 55.9194 37.2348 55.7286C38.6031 55.5321 39.9868 55.4781 41.3685 55.5648C41.7798 55.5918 42.1872 55.6804 42.5966 55.7517C43.3057 55.877 44.0129 56.0176 44.7298 56.0986C44.9585 56.1236 45.1852 56.1583 45.4139 56.1911C46.175 56.3009 46.9399 56.2662 47.7047 56.2315C48.4254 56.2007 49.1422 56.1121 49.8552 56.008C50.5355 55.9097 51.2139 55.7941 51.8923 55.6862C52.392 55.6072 52.9013 55.5648 53.3856 55.4338C54.0332 55.2584 54.6962 55.297 55.3458 55.2103C56.5988 55.0407 57.8576 55.0735 59.1125 55.0696C60.3848 55.0638 61.657 55.0079 62.9292 55.0773C63.6634 55.1178 64.3975 55.1409 65.1297 55.2295C65.7312 55.3008 66.327 55.1852 66.9112 55.058C67.8048 54.8634 68.6927 54.6322 69.5844 54.4299C70.8355 54.1466 72.1001 54.0098 73.3723 54.0002C74.093 53.9944 74.8002 54.1312 75.4824 54.399C76.009 54.6052 76.5606 54.744 77.1217 54.8403C77.2447 54.8615 77.36 54.8615 77.485 54.8442C78.1537 54.7497 78.8245 54.6996 79.5009 54.6746C80.0352 54.6553 80.5675 54.5821 81.0979 54.4973C81.9781 54.3567 82.841 54.4029 83.6501 54.8326C83.8 54.9116 83.9537 54.981 84.1075 55.0484C84.5053 55.2257 84.907 55.2392 85.3182 55.0947C85.8755 54.8981 86.4502 54.823 87.0402 54.8923C87.1459 54.9039 87.2592 54.9155 87.3534 54.9578C87.8608 55.1872 88.3816 55.3355 88.9427 55.3606C89.1676 55.3702 89.3867 55.4762 89.6096 55.5282C90.4091 55.7132 91.2143 55.7325 92.0272 55.6284C92.6249 55.5513 93.2207 55.5725 93.8068 55.7267C94.1278 55.8115 94.4448 55.7845 94.7619 55.6978C95.2712 55.561 95.5076 55.7594 95.646 56.2662C95.8708 57.0967 95.6402 57.8617 95.3519 58.6036C95.0329 59.4225 94.8753 60.2511 94.908 61.1278C94.9291 61.7136 94.9772 62.284 95.154 62.8543C95.3443 63.4729 95.2828 64.1376 95.3462 64.7812C95.3865 65.1974 95.4519 65.6059 95.5441 66.0106C95.6344 66.4037 95.7863 66.7659 96.0399 67.0916C96.4416 67.6061 96.6338 68.1899 96.5723 68.8586C96.5396 69.2247 96.5665 69.5966 96.5665 70.0783V70.0783ZM20.1519 56.9715C19.4792 56.8925 18.8623 57.0505 18.2378 57.1121C17.4748 57.1873 16.7426 57.4628 15.9623 57.4359C15.5607 57.4224 15.5299 57.4782 15.5165 57.8925C15.4973 58.4475 15.5722 58.9986 15.5914 59.5535C15.6356 60.8792 15.5799 62.1992 15.357 63.5114C15.2974 63.8602 15.2513 64.2109 15.2494 64.5673C15.2455 65.3998 15.2263 66.2303 15.2301 67.0627C15.234 67.739 15.2282 68.4212 15.5165 69.057C15.7798 69.639 15.897 70.2556 15.9816 70.8837C16.0969 71.7393 16.0892 72.5968 16.0757 73.4581C16.0507 75.0902 15.9297 76.7146 15.7606 78.337C15.6875 79.0403 15.5895 79.7533 15.6529 80.4547C15.7625 81.6648 15.9316 82.8691 16.1026 84.0715C16.2775 85.2912 16.3851 86.5148 16.4332 87.7461C16.5101 89.7616 16.3044 91.7772 16.4389 93.7927C16.4966 94.6521 16.4947 95.5154 16.5562 96.3748C16.6311 97.4211 16.6503 98.4674 16.6273 99.5137C16.5888 101.256 16.2275 102.967 16.1142 104.703C16.0162 106.206 15.8586 107.705 15.7279 109.206C15.7106 109.406 15.7279 109.603 15.7452 109.803C15.8124 110.516 16.0853 111.175 16.2372 111.867C16.4966 113.052 16.5927 114.235 16.3794 115.44C16.2641 116.091 16.1353 116.746 16.1046 117.403C16.0546 118.448 15.9547 119.486 15.8586 120.523C15.7951 121.203 15.8374 121.872 15.8547 122.546C15.8739 123.284 15.9527 124.026 15.8989 124.76C15.8009 126.124 15.6299 127.483 15.6337 128.855C15.6337 128.976 15.6203 129.101 15.5953 129.221C15.4723 129.812 15.4396 130.398 15.5703 130.997C15.749 131.818 15.7586 132.641 15.5876 133.472C15.4492 134.15 15.38 134.84 15.3435 135.533C15.3262 135.878 15.405 136.177 15.6664 136.408C15.8643 136.584 15.9931 136.815 16.1603 137.015C16.3659 137.262 16.4332 137.551 16.4351 137.875C16.437 138.223 16.3313 138.537 16.2372 138.863C15.9892 139.723 16.02 139.692 16.7464 140.189C17.298 140.565 17.8707 140.726 18.5222 140.684C18.626 140.678 18.7336 140.711 18.8393 140.736C19.56 140.896 20.2768 140.998 21.0224 140.886C21.5029 140.813 21.9987 140.775 22.483 140.85C23.0134 140.933 23.5342 141.077 24.0608 141.173C24.3914 141.235 24.7123 141.355 25.0544 141.353C25.6213 141.347 26.1921 141.387 26.7533 141.337C27.4355 141.276 28.1043 141.353 28.7673 141.461C30.0511 141.667 31.3387 141.622 32.6186 141.493C33.1086 141.443 33.6026 141.428 34.083 141.441C34.8863 141.464 35.6781 141.414 36.4699 141.32C37.033 141.252 37.5941 141.164 38.1591 141.137C38.5416 141.12 38.9221 141.125 39.2988 141.035C39.3853 141.014 39.4852 141.014 39.5736 141.027C40.1578 141.125 40.7324 140.977 41.3109 140.946C42.5043 140.884 43.6862 140.665 44.8854 140.634C45.8521 140.609 46.8111 140.628 47.772 140.757C48.9116 140.909 50.057 141.023 51.212 141.031C51.9634 141.035 52.7187 141.035 53.4644 141.071C54.3618 141.116 55.2555 141.297 56.1472 141.441C56.9409 141.57 57.7423 141.609 58.5283 141.497C59.445 141.366 60.354 141.166 61.263 140.971C62.4699 140.713 63.6922 140.516 64.9375 140.495C65.7793 140.482 66.6191 140.459 67.457 140.547C68.5371 140.661 69.6075 140.888 70.701 140.871C71.4505 140.859 72.2019 140.871 72.9457 140.809C73.8086 140.738 74.6657 140.832 75.5151 140.9C76.3511 140.965 77.1852 141.083 78.025 141.081C78.6361 141.081 79.2472 140.988 79.8507 140.867C80.5291 140.732 81.2036 140.557 81.8897 140.497C83.1274 140.387 84.3554 140.214 85.5873 140.06C86.0274 140.004 86.4771 139.967 86.9172 139.994C87.5514 140.033 88.1433 140.252 88.7083 140.549C89.06 140.734 89.4366 140.869 89.8172 140.99C90.6743 141.264 91.4987 141.021 92.302 140.773C93.1534 140.509 93.9894 140.21 94.8849 140.131C95.0829 140.114 95.2828 140.094 95.4769 140.06C95.7267 140.015 95.7824 139.931 95.7305 139.676C95.6883 139.464 95.6575 139.256 95.6479 139.038C95.6248 138.518 95.5902 138 95.5883 137.476C95.5864 136.778 95.7248 136.106 95.8093 135.424C95.9073 134.63 96.0726 133.844 95.8247 133.05C95.7882 132.932 95.7478 132.815 95.6959 132.705C95.4211 132.142 95.3519 131.564 95.5441 130.957C95.8343 130.046 96.0515 129.125 96.1072 128.159C96.1303 127.756 96.0611 127.361 96.1072 126.964C96.2379 125.876 96.1456 124.783 96.1149 123.696C96.0822 122.621 96.236 121.583 96.4531 120.546C96.5415 120.124 96.5992 119.698 96.678 119.276C96.7568 118.854 96.6722 118.44 96.5723 118.043C96.4089 117.405 96.1783 116.787 96.0572 116.133C96.015 115.908 95.9592 115.684 95.915 115.457C95.7978 114.844 95.5729 114.285 95.1598 113.8C94.7831 113.359 94.5813 112.838 94.4967 112.254C94.3853 111.491 94.639 110.788 94.7889 110.071C94.9464 109.316 95.0829 108.561 95.179 107.798C95.2655 107.121 95.4365 106.468 95.6095 105.815C95.867 104.847 96.113 103.882 96.1745 102.876C96.2187 102.14 96.2783 101.406 96.3513 100.674C96.5146 99.0185 96.5415 97.3556 96.6299 95.6965C96.6415 95.4961 96.6184 95.2938 96.6492 95.0973C96.7529 94.4537 96.7222 93.8082 96.7337 93.1607C96.7414 92.6385 96.6126 92.1433 96.407 91.6828C96.2456 91.3224 96.1629 90.9563 96.113 90.5748C96.0419 90.0218 96.0188 89.4572 96.1341 88.9177C96.2417 88.4263 96.3724 87.9349 96.4935 87.4436C96.6934 86.6401 96.6588 85.852 96.2187 85.1236C95.5384 84.0002 95.3616 82.7747 95.4615 81.4894C95.5268 80.6474 95.6325 79.8092 95.6172 78.9594C95.6114 78.5798 95.5941 78.1983 95.669 77.8129C95.8209 77.0286 96.0169 76.2482 96.0092 75.4389C96.0015 74.7009 95.9977 73.9649 95.7517 73.25C95.6018 72.8164 95.473 72.3713 95.4269 71.9069C95.3289 70.955 95.3539 70.0012 95.4269 69.0512C95.4634 68.5657 95.3404 68.1437 95.0464 67.7544C94.8254 67.4616 94.6543 67.1378 94.539 66.7794C94.2604 65.9085 94.1028 65.024 94.1239 64.1049C94.1335 63.706 94.0989 63.2994 93.9875 62.914C93.8376 62.3899 93.7607 61.86 93.7588 61.3186C93.753 60.4052 93.826 59.5053 94.172 58.6459C94.3103 58.3049 94.4237 57.9503 94.5256 57.5958C94.6486 57.1661 94.6101 57.1044 94.1758 57.0794C93.7453 57.0543 93.3225 56.9772 92.8978 56.9252C92.7614 56.9079 92.6211 56.8963 92.4865 56.906C91.3853 56.9965 90.2938 57.0524 89.1926 56.8058C88.4757 56.6458 87.7531 56.5302 87.0632 56.2624C86.8768 56.1891 86.6885 56.1602 86.479 56.2161C86.2599 56.2739 86.0331 56.297 85.8121 56.3664C85.2932 56.5302 84.7628 56.5668 84.2228 56.4608C83.8557 56.3876 83.5271 56.218 83.1908 56.0716C82.6142 55.8211 82.0262 55.7016 81.3977 55.8211C81.023 55.8924 80.6406 55.9675 80.262 55.9753C79.449 55.9926 78.6419 56.087 77.8328 56.1198C77.3581 56.139 76.8873 56.1757 76.4126 56.0812C75.9437 55.9868 75.4882 55.8654 75.0481 55.6804C74.3716 55.3991 73.6721 55.2662 72.9341 55.324C71.1699 55.4666 69.4441 55.8115 67.7376 56.2701C66.9785 56.4743 66.2021 56.6227 65.418 56.5803C64.0554 56.5071 62.6948 56.3876 61.3265 56.4069C59.6852 56.4281 58.044 56.403 56.4047 56.4473C55.5649 56.4705 54.727 56.5938 53.891 56.7171C52.2075 56.9676 50.5432 57.3472 48.8424 57.4937C48.1391 57.5534 47.4338 57.6613 46.7304 57.6247C45.4274 57.5592 44.1379 57.353 42.8483 57.1468C41.7606 56.9734 40.6767 56.8192 39.5601 56.8424C38.0784 56.8713 36.6371 57.1931 35.1669 57.2913C34.5442 57.3318 33.9177 57.432 33.2931 57.4397C32.4206 57.4532 31.5462 57.3954 30.6737 57.3626C29.9204 57.3337 29.167 57.3896 28.4175 57.3588C27.3279 57.3125 26.2421 57.3973 25.1543 57.3742C24.4644 57.3607 23.7764 57.3491 23.0884 57.2952C22.0967 57.2162 21.1301 56.9137 20.1596 56.9772L20.1519 56.9715Z" fill="#56493F"/>
</g>
<path d="M77.9634 92.6566C78.245 92.6663 78.448 92.5194 78.6702 92.4441C80.1223 91.9436 81.5726 91.4335 83.03 90.9485C84.2197 90.5523 85.4181 90.1813 86.613 89.8065C87.4178 89.5533 88.2244 89.3079 89.0291 89.0625C89.5138 88.9157 89.9984 88.7708 90.483 88.6258C90.5635 88.6026 90.6474 88.5775 90.7297 88.5737C90.9536 88.564 91.1163 88.6819 91.1916 88.8964C91.258 89.0838 91.1881 89.3234 91.0183 89.4703C90.8819 89.5862 90.7174 89.6287 90.5565 89.6828C89.5697 90.0229 88.583 90.3668 87.5945 90.7011C87.1012 90.8673 86.599 90.9987 86.1092 91.1784C84.9282 91.6113 83.7246 91.9513 82.5296 92.3339C81.2175 92.7552 79.8913 93.1262 78.5722 93.5204C78.504 93.5397 78.4375 93.561 78.3692 93.5784C77.9791 93.673 77.6082 93.7098 77.4647 93.1803C77.365 93.19 77.3248 93.2383 77.3318 93.3059C77.3843 93.789 77.0833 93.9725 76.7544 94.0846C74.8089 94.7513 72.86 95.4083 70.9093 96.0614C69.6548 96.4826 68.3952 96.8845 67.1425 97.3116C66.0211 97.6922 64.9049 98.0903 63.7659 98.3975C63.4562 98.4806 63.3268 98.6584 63.2848 98.9927C63.1746 99.8487 63.0539 100.701 62.9174 101.551C62.8369 102.052 62.7372 102.55 62.6462 103.049C62.438 104.183 62.3243 105.336 62.1214 106.471C62.0041 107.122 61.9027 107.779 61.8257 108.432C61.7382 109.178 61.6682 109.928 61.5563 110.668C61.4058 111.655 61.3131 112.652 61.1451 113.638C61.0052 114.453 60.8949 115.276 60.8197 116.103C60.7515 116.84 60.6203 117.576 60.3089 118.233C59.9624 118.961 59.3344 119.363 58.6853 119.697C58.1307 119.983 57.5603 120.237 56.9742 120.436C56.6278 120.553 56.2762 120.654 55.9245 120.749C55.4679 120.87 54.9973 120.932 54.5476 121.096C54.4182 121.143 54.2712 121.123 54.133 121.147C53.3055 121.284 52.478 121.408 51.6469 121.523C50.5272 121.678 49.4023 121.753 48.2791 121.848C47.2626 121.933 46.2409 121.922 45.2209 121.964C43.9612 122.018 42.7068 121.922 41.4559 121.864C39.9286 121.792 38.3977 121.634 36.8791 121.384C35.6352 121.18 34.4053 120.913 33.1859 120.584C32.3164 120.351 31.4818 119.985 30.6666 119.576C30.1662 119.324 29.7376 118.95 29.4016 118.461C29.3317 118.36 29.2477 118.281 29.1497 118.221C28.7053 117.943 28.5076 117.483 28.4954 116.957C28.4779 116.262 28.3922 115.574 28.3012 114.894C28.1315 113.63 28.0615 112.351 27.8376 111.095C27.6224 109.901 27.4684 108.695 27.3424 107.485C27.255 106.643 27.1587 105.802 27.0695 104.96C27.0293 104.577 26.9628 104.198 26.8946 103.82C26.6531 102.488 26.5569 101.132 26.3277 99.7985C26.2437 99.3135 26.165 98.8265 26.0513 98.3492C25.9218 97.8063 25.8676 97.2575 25.8746 96.699C25.8798 96.272 25.7749 95.9145 25.4337 95.6633C25.285 95.5532 25.1415 95.4218 25.0523 95.2382C24.9683 95.0662 24.9823 94.9097 25.117 94.7783C25.2378 94.6585 25.3707 94.6604 25.5019 94.7571C25.6996 94.9039 25.8973 95.0508 26.0863 95.2073C26.4484 95.5068 26.6811 95.8778 26.7039 96.4073C26.7529 97.5125 27.1308 98.5405 27.3635 99.6014C27.4912 100.185 27.6154 100.774 27.6924 101.368C27.8323 102.452 28.0545 103.516 28.2242 104.594C28.4219 105.854 28.5916 107.118 28.7403 108.388C28.7963 108.861 28.9048 109.327 28.9625 109.798C29.0797 110.759 29.2617 111.707 29.3807 112.668C29.5084 113.686 29.5416 114.718 29.7533 115.727C29.818 116.038 29.8215 116.374 29.8023 116.695C29.769 117.294 30.0542 117.694 30.4444 118.02C30.824 118.337 31.2596 118.573 31.7058 118.741C33.2174 119.311 34.778 119.643 36.3595 119.883C37.1626 120.005 37.9743 120.036 38.7704 120.211C38.8911 120.238 39.0206 120.208 39.1448 120.219C40.0773 120.304 41.0133 120.324 41.9475 120.376C42.9115 120.43 43.872 120.381 44.8343 120.414C45.4343 120.436 46.0309 120.434 46.6293 120.401C47.2801 120.364 47.9327 120.339 48.5835 120.3C49.4583 120.248 50.3278 120.146 51.199 120.063C52.1036 119.978 53.0011 119.825 53.8933 119.636C54.3429 119.541 54.7978 119.477 55.244 119.369C55.5956 119.282 55.9438 119.164 56.2832 119.029C56.8588 118.803 57.4746 118.716 58.0222 118.378C58.4281 118.126 58.8567 117.929 59.0142 117.384C59.0264 117.344 59.0562 117.294 59.0894 117.276C59.4848 117.06 59.4673 116.65 59.5181 116.248C59.6598 115.135 59.861 114.03 59.9869 112.913C60.1269 111.673 60.4243 110.463 60.545 109.222C60.6675 107.962 60.9002 106.722 61.1084 105.481C61.3708 103.92 61.6542 102.363 61.9919 100.819C62.2438 99.6651 62.4135 98.4903 62.6917 97.3425C62.7494 97.1029 62.8019 96.8633 62.8702 96.6275C62.9699 96.2797 63.1536 95.9918 63.4195 95.7715C63.5455 95.6691 63.6819 95.5938 63.8429 95.588C63.9776 95.5822 64.0948 95.6285 64.1613 95.7657C64.226 95.8991 64.212 96.0363 64.1263 96.1561C64.0913 96.2044 64.0563 96.2585 64.0109 96.2894C63.6505 96.5309 63.6277 96.9329 63.5717 97.3599C63.9024 97.3502 64.1561 97.1725 64.429 97.0758C65.3877 96.7377 66.343 96.3899 67.3 96.0478C68.4687 95.6305 69.6286 95.1841 70.813 94.817C71.0545 94.7416 71.2819 94.6121 71.5216 94.5329C72.8722 94.0885 74.1984 93.5532 75.5525 93.1223C75.8972 93.0122 76.2471 92.9001 76.5812 92.7397C76.7282 92.6702 76.7964 92.5909 76.8454 92.4286C76.9626 92.0344 77.1393 91.6692 77.1848 91.2422C77.2496 90.6374 77.0659 90.1176 76.8139 89.6094C76.7142 89.4065 76.5585 89.3408 76.3538 89.4181C75.7607 89.6442 75.1431 89.7736 74.55 90.0036C74.1826 90.1446 73.789 90.1852 73.4146 90.3205C72.6745 90.591 71.9135 90.79 71.1577 91.0026C70.1307 91.2924 69.1142 91.6267 68.0908 91.9359C67.0813 92.2412 66.0841 92.589 65.0641 92.8479C64.8471 92.904 64.6459 93.0199 64.4185 93.047C64.24 93.0682 64.2208 93.2363 64.1928 93.389C64.0878 93.9745 63.8481 94.4904 63.5402 94.9793C63.1326 95.6285 62.5815 96.1039 61.9919 96.5135C61.1416 97.1068 60.2511 97.6266 59.3029 98.0111C58.9512 98.1541 58.6066 98.3318 58.2094 98.2623C58.0939 98.243 57.961 98.3009 57.842 98.3396C56.4179 98.7975 54.9763 99.1763 53.5137 99.4449C52.6896 99.5956 51.8639 99.7482 51.0276 99.8159C50.4013 99.8661 49.7767 99.9531 49.1503 100.007C47.462 100.152 45.772 100.183 44.0802 100.164C42.4007 100.144 40.7281 100.007 39.0626 99.7946C37.8711 99.6439 36.6832 99.4622 35.5058 99.1821C34.8934 99.0352 34.2741 98.9077 33.6688 98.728C32.822 98.4768 31.9822 98.1908 31.1459 97.899C30.4566 97.6575 29.783 97.358 29.1375 97.0005C28.1612 96.4594 27.2217 95.8508 26.4572 94.9677C25.7889 94.1948 25.362 93.2924 25.3672 92.1948C25.369 91.6634 25.5142 91.1668 25.7661 90.7166C26.2245 89.8915 26.8508 89.2635 27.5891 88.7321C29.008 87.7099 30.5616 87.0761 32.1729 86.5583C33.0582 86.2723 33.9487 86.0172 34.8567 85.853C35.6265 85.7138 36.3998 85.5766 37.1731 85.453C37.8344 85.3467 38.5009 85.3042 39.1623 85.194C39.6241 85.1187 40.1035 85.0723 40.5776 85.0569C41.7621 85.0182 42.9448 84.9834 44.1309 84.9776C45.905 84.968 47.672 85.0704 49.4373 85.2539C51.1168 85.4279 52.7719 85.7679 54.4287 86.1003C55.3367 86.2839 56.2237 86.5505 57.1055 86.8307C57.9732 87.107 58.8217 87.4645 59.6668 87.8317C60.4663 88.1775 61.2011 88.649 61.9149 89.1534C62.5483 89.6017 63.1046 90.1717 63.584 90.8229C63.7799 91.0895 63.8919 91.4084 64.0126 91.7214C64.1386 92.0441 64.1648 92.0596 64.4447 91.9513C65.5924 91.5108 66.7681 91.1765 67.9263 90.7746C69.2035 90.3301 70.4911 89.9205 71.77 89.4799C72.3771 89.2712 72.9859 89.049 73.607 88.877C74.1424 88.7282 74.697 88.6046 75.1939 88.3109C75.2848 88.2568 75.3828 88.2606 75.4808 88.2626C75.598 88.2645 75.7222 88.2355 75.7852 88.135C75.9532 87.8645 76.2103 87.7041 76.4063 87.478C76.5795 87.2771 76.7614 87.136 76.9854 87.0549C77.8759 86.7341 78.7489 86.3631 79.6412 86.0501C80.292 85.822 80.9393 85.5689 81.5884 85.3409C82.3862 85.0607 83.177 84.7554 83.9747 84.4791C85.014 84.1197 86.0462 83.7313 87.0907 83.3989C87.5963 83.2385 88.0966 83.0318 88.6267 82.9757C88.9574 82.941 89.0274 83.0009 89.1568 83.3931C89.2233 83.596 89.1411 83.8434 88.9347 83.9825C88.7807 84.0868 88.6145 84.1757 88.4448 84.2433C87.9864 84.425 87.5228 84.5912 87.0627 84.7631C85.901 85.196 84.706 85.5187 83.5619 86.0095C83.3292 86.11 83.0755 86.1409 82.834 86.224C81.06 86.8307 79.2825 87.4201 77.5067 88.0114C77.0256 88.1717 77.0081 88.2123 77.3195 88.6316C77.6852 89.1244 78.0106 89.6461 78.1768 90.2644C78.3955 91.0779 78.3797 91.8779 77.9599 92.6547L77.9634 92.6566ZM26.6251 92.4267C26.6006 92.9716 26.8298 93.4102 27.1395 93.7948C27.5769 94.3358 28.0913 94.7706 28.6406 95.1802C29.3194 95.6884 30.0577 96.0421 30.796 96.3879C31.8352 96.8768 32.9112 97.2555 34.0204 97.5338C35.0544 97.7927 36.0883 98.0478 37.1293 98.2719C38.3103 98.5251 39.5087 98.6101 40.7001 98.7666C41.6571 98.8922 42.6211 98.9502 43.5816 99.0004C44.4721 99.0468 45.3661 99.0468 46.2601 99.0391C48.37 99.0197 50.4712 98.8806 52.5654 98.5869C54.0088 98.384 55.4382 98.1 56.8465 97.7019C57.3206 97.5686 57.8385 97.4797 58.2094 97.0449C58.2829 96.9599 58.3966 96.8884 58.4998 96.8691C58.988 96.7802 59.4201 96.5155 59.8767 96.3319C60.671 96.0111 61.3568 95.4701 62.0146 94.8904C62.3453 94.6005 62.599 94.2353 62.8317 93.8508C62.9524 93.6518 63.0031 93.4586 62.8177 93.2267C62.6252 92.9851 62.634 92.8247 62.8334 92.618C63.0276 92.417 62.9716 92.2624 62.8667 92.0538C62.3243 90.991 61.4828 90.3011 60.538 89.7388C60.2319 89.5553 59.9117 89.4007 59.6003 89.2287C58.9355 88.8635 58.2444 88.564 57.5411 88.3167C56.5719 87.9766 55.5851 87.6945 54.5879 87.4626C53.302 87.1631 52.0056 86.9409 50.7057 86.7322C50.4153 86.6858 50.1283 86.6336 49.8327 86.622C49.2483 86.5969 48.664 86.5273 48.0796 86.4771C47.4393 86.423 46.799 86.3187 46.1604 86.3302C45.2401 86.3496 44.3216 86.3051 43.4014 86.3187C42.1452 86.338 40.8943 86.4249 39.6434 86.5157C39.1588 86.5505 38.6759 86.6066 38.193 86.6626C37.8606 86.7013 37.53 86.7612 37.1976 86.8037C36.643 86.8771 36.0989 87.0336 35.5495 87.1128C34.589 87.25 33.6688 87.5553 32.7398 87.8143C32.1782 87.9708 31.6235 88.1891 31.0707 88.3998C29.7271 88.9138 28.4691 89.5688 27.4194 90.6509C26.9541 91.1301 26.6374 91.6905 26.6269 92.4248L26.6251 92.4267Z" fill="#FFCA4B"/>
<path d="M53.2862 124.453C53.2687 125.129 53.1865 125.788 52.6878 126.261C52.3029 126.627 51.8726 126.907 51.3302 126.858C51.129 126.841 50.9908 126.746 50.8946 126.553C50.7126 126.19 50.6094 125.817 50.7336 125.4C50.9313 124.741 51.1273 124.08 51.318 123.419C51.3652 123.253 51.4264 123.104 51.5349 122.976C52.0353 122.391 52.7473 122.547 53.099 123.324C53.2599 123.68 53.3019 124.06 53.2862 124.453V124.453Z" fill="#FFCA4B"/>
<path d="M39.4214 125.734C39.3759 126.225 39.3112 126.69 38.8196 126.903C38.3909 127.088 37.9763 126.928 37.7698 126.474C37.6824 126.283 37.5826 126.097 37.4917 125.906C37.0718 125.034 37.098 124.167 37.5127 123.305C37.6124 123.098 37.7541 122.934 37.9448 122.818C38.3349 122.582 38.6166 122.671 38.7811 123.123C38.9473 123.579 39.0925 124.043 39.187 124.524C39.2657 124.928 39.4022 125.32 39.4197 125.732L39.4214 125.734Z" fill="#FFCA4B"/>
<path d="M46.2659 124.737C46.2466 124.94 46.2729 125.137 46.2974 125.336C46.3901 126.088 45.9335 126.668 45.2424 126.671C44.9013 126.673 44.6738 126.449 44.5129 126.14C44.3029 125.736 44.2802 125.288 44.3012 124.84C44.3292 124.212 44.5321 123.64 44.819 123.102C44.84 123.062 44.8628 123.023 44.8908 122.988C45.078 122.757 45.3071 122.621 45.5923 122.672C45.874 122.722 46.0262 122.944 46.0909 123.23C46.2012 123.725 46.2169 124.233 46.2659 124.737V124.737Z" fill="#FFCA4B"/>
<path d="M90.8416 86.7633C90.8556 86.5817 90.8679 86.429 90.8784 86.2744C90.9501 85.2773 90.4812 84.5392 89.9266 83.8416C89.8427 83.7373 89.7447 83.6445 89.6747 83.5305C89.5137 83.2677 89.6467 82.9933 89.9371 82.9818C90.0526 82.976 90.1663 83.0011 90.2555 83.0784C90.9711 83.6909 91.6184 84.3692 91.8459 85.3875C92.0051 86.0966 92.0226 86.8232 91.9806 87.5497C91.9613 87.8686 91.8634 88.1604 91.5834 88.3169C91.3123 88.4676 91.1058 88.3922 90.9466 88.0985C90.8574 87.9343 90.8119 87.7526 90.8294 87.5671C90.8574 87.2889 90.8749 87.0145 90.8416 86.7652V86.7633Z" fill="#FFCA4B"/>
<path d="M34.7482 81.1071C34.7709 81.4433 34.6555 81.7621 34.4053 82.0211C34.2006 82.2317 33.9679 82.3496 33.681 82.2452C33.6285 82.2259 33.5742 82.2104 33.5183 82.2008C32.8849 82.0945 32.6067 81.7216 32.549 80.8926C32.5088 80.3342 32.8639 79.7197 33.3276 79.5419C33.7457 79.3815 34.1393 79.5129 34.407 79.9033C34.6467 80.253 34.7534 80.6143 34.7482 81.1071V81.1071ZM33.3503 80.8771C33.3695 81.0066 33.3643 81.167 33.485 81.2404C33.5882 81.3042 33.7072 81.2443 33.7947 81.1651C33.9434 81.0317 33.8909 80.5622 33.7212 80.4636C33.6215 80.4037 33.5305 80.4404 33.4588 80.5293C33.3818 80.6259 33.3573 80.7457 33.3503 80.8771Z" fill="#FFCA4B"/>
<path d="M41.2773 80.7767C41.2685 80.4154 41.3455 80.0927 41.5327 79.8087C41.7252 79.5149 42.0383 79.3893 42.3008 79.4918C42.5702 79.5961 42.7207 79.8937 42.6962 80.2782C42.6752 80.599 42.565 80.74 42.2623 80.7787C42.1346 80.7961 42.0401 80.8019 42.0558 80.9796C42.0681 81.1265 42.1258 81.2096 42.271 81.1864C42.313 81.1806 42.355 81.1729 42.3952 81.1729C42.5335 81.1729 42.6402 81.2328 42.6874 81.3835C42.7347 81.5323 42.6822 81.654 42.5964 81.7642C42.2815 82.1738 41.6377 82.0482 41.4085 81.5284C41.3018 81.2888 41.2703 81.0299 41.2773 80.7748V80.7767Z" fill="#FFCA4B"/>
<path d="M26.7145 76.8871C26.3646 76.8948 26.0532 76.5972 25.9517 76.1586C25.8625 75.7818 26.0199 75.3412 26.3103 75.1538C26.8352 74.8137 27.3181 75.0533 27.4458 75.718C27.4545 75.7625 27.4493 75.8127 27.4615 75.8552C27.521 76.0736 27.6207 76.2881 27.4563 76.5083C27.3233 76.688 26.9559 76.8832 26.7127 76.8871H26.7145Z" fill="#FFCA4B"/>
<path d="M38.7846 95.7288C38.8004 96.2408 38.587 96.6138 38.2143 96.892C37.9659 97.0795 37.6999 97.1181 37.4183 97.0041C37.1296 96.8862 36.8602 96.7123 36.6205 96.5075C36.2286 96.1713 36.1656 95.323 36.4665 94.807C36.659 94.4747 36.9249 94.2254 37.2381 94.0457C37.623 93.8254 38.0621 93.9472 38.356 94.3588C38.6394 94.7587 38.7742 95.2225 38.7846 95.7307V95.7288ZM37.9991 95.6032C37.9956 95.5568 38.0009 95.4776 37.9834 95.4041C37.9239 95.1549 37.9186 94.8148 37.6597 94.7587C37.3973 94.7027 37.2118 94.9694 37.0701 95.1974C36.8444 95.5626 36.8969 95.7346 37.2696 95.9375C37.3203 95.9645 37.3675 95.9974 37.4165 96.0244C37.8032 96.2428 37.9939 96.1152 37.9991 95.6032Z" fill="#FFCA4B"/>
<path d="M42.556 89.8142C42.542 90.0674 42.4983 90.3727 42.3251 90.6297C42.1676 90.8615 41.9787 91.0374 41.6848 90.9272C41.564 90.8828 41.4346 90.8847 41.3103 90.9079C40.831 90.9949 40.3586 90.6297 40.3604 89.8992C40.3604 89.2944 40.5581 88.7457 41.0724 88.4191C41.5046 88.1447 41.9664 88.2645 42.2498 88.7128C42.4056 88.9601 42.5525 89.4625 42.556 89.8162V89.8142ZM41.1267 89.7485C41.1092 90.0326 41.2071 90.1369 41.3821 90.1698C41.5885 90.2084 41.6533 90.0558 41.6795 89.8799C41.7127 89.65 41.7022 89.422 41.5518 89.2345C41.4976 89.1669 41.4258 89.1708 41.3646 89.221C41.1844 89.3737 41.1424 89.5959 41.1267 89.7485Z" fill="#FFCA4B"/>
<path d="M32.9811 92.6491C32.9846 92.9814 32.9268 93.2616 32.7414 93.4973C32.6067 93.6693 32.4335 93.7292 32.2533 93.6287C32.0906 93.5399 31.9314 93.449 31.7634 93.3698C31.6724 93.3273 31.6077 93.2423 31.5517 93.1515C31.2298 92.6317 31.4502 91.7872 31.9716 91.5438C32.3407 91.3718 32.6662 91.5148 32.8341 91.9167C32.9356 92.1583 32.9986 92.4075 32.9828 92.6471L32.9811 92.6491Z" fill="#FFCA4B"/>
<path d="M45.5337 96.7397C45.5337 96.3069 45.7524 95.961 46.0743 95.8354C46.3735 95.7194 46.6831 95.8508 46.9106 96.1793C47.061 96.3957 47.1398 96.6412 47.1468 96.9078C47.1538 97.188 47.0505 97.4237 46.8213 97.5609C46.5957 97.6962 46.3717 97.7059 46.1583 97.5107C46.0621 97.4237 45.9483 97.36 45.8381 97.2943C45.6159 97.1629 45.5214 96.958 45.5354 96.7397H45.5337Z" fill="#FFCA4B"/>
<path d="M50.0076 90.7686C50.2472 90.7763 50.4484 90.9405 50.5552 91.2091C50.6724 91.5048 50.7598 91.8217 50.5604 92.1289C50.4904 92.2371 50.3942 92.3067 50.277 92.2931C50.0443 92.2642 49.8081 92.2352 49.5824 92.1695C49.3112 92.0903 49.1608 91.6149 49.278 91.2729C49.3795 90.9734 49.6629 90.7686 50.0076 90.7705V90.7686Z" fill="#FFCA4B"/>
<path d="M64.0836 23.5691C64.1236 27.8391 62.2136 31.1991 59.1736 33.8191C57.0036 35.6891 54.3636 36.6991 51.2936 36.1791C48.1336 35.6391 45.3436 34.5891 43.0736 32.1891C41.6236 30.6591 40.8036 28.9091 40.4336 26.9291C39.7136 23.0991 39.7136 19.3691 41.8136 15.8391C44.6636 11.0591 49.9436 9.37915 54.0736 10.1991C58.7436 11.1291 61.9936 14.0891 63.5136 18.7291C64.0336 20.3191 64.5036 21.9291 64.0936 23.5791L64.0836 23.5691Z" fill="#FFCA4B"/>
<defs>
<clipPath id="clip0_170_2358">
<rect width="84" height="89" fill="white" transform="translate(14 54)"/>
</clipPath>
</defs>
</svg>
