<svg width="85" height="16" viewBox="0 0 85 16" fill="none" xmlns="http://www.w3.org/2000/svg">
<g clip-path="url(#clip0_169_2335)">
<path d="M-0.5 15H84" stroke="#56493F" stroke-width="0.8"/>
<path d="M1.84717 2.53992H2.83117L5.44717 10.7239H5.72317L8.35117 2.53992H9.32317L6.59917 10.9999H4.58317L1.84717 2.53992Z" fill="#56493F"/>
<path d="M15.2563 3.37992H13.3723V10.1599H15.2563V10.9999H10.4923V10.1599H12.3883V3.37992H10.4923V2.53992H15.2563V3.37992Z" fill="#56493F"/>
<path d="M19.441 2.53992C19.897 2.53992 20.3089 2.56792 20.6769 2.62392C21.0449 2.67992 21.4209 2.79992 21.8049 2.98392C22.1969 3.15992 22.5209 3.39992 22.7769 3.70392C23.0409 3.99992 23.2569 4.40792 23.4249 4.92792C23.5929 5.44792 23.677 6.05992 23.677 6.76392C23.677 7.46792 23.5929 8.07992 23.4249 8.59992C23.2569 9.11992 23.0409 9.53192 22.7769 9.83592C22.5209 10.1319 22.1969 10.3719 21.8049 10.5559C21.4209 10.7399 21.0449 10.8599 20.6769 10.9159C20.3089 10.9719 19.897 10.9999 19.441 10.9999H16.7529V2.53992H19.441ZM19.441 10.1599C19.729 10.1599 19.9849 10.1479 20.209 10.1239C20.433 10.0999 20.677 10.0519 20.941 9.97992C21.213 9.90792 21.4449 9.79592 21.6369 9.64392C21.8289 9.48392 22.009 9.28392 22.177 9.04392C22.345 8.80392 22.4729 8.49192 22.5609 8.10792C22.6489 7.71592 22.6929 7.26792 22.6929 6.76392C22.6929 6.16392 22.6249 5.64792 22.4889 5.21592C22.3529 4.78392 22.1849 4.45192 21.9849 4.21992C21.7929 3.98792 21.5369 3.80792 21.2169 3.67992C20.9049 3.54392 20.6169 3.45992 20.3529 3.42792C20.0969 3.39592 19.793 3.37992 19.441 3.37992H17.7369V10.1599H19.441Z" fill="#56493F"/>
<path d="M25.0733 10.9999V2.53992H30.3173V3.37992H26.0573V6.34392H29.7173V7.18392H26.0573V10.1599H30.3173V10.9999H25.0733Z" fill="#56493F"/>
<path d="M31.1173 6.76392C31.1173 5.49992 31.4733 4.45992 32.1853 3.64392C32.8973 2.82792 33.8613 2.41992 35.0773 2.41992C36.2853 2.41992 37.2413 2.82792 37.9453 3.64392C38.6573 4.45992 39.0133 5.49992 39.0133 6.76392C39.0133 8.03592 38.6573 9.07992 37.9453 9.89592C37.2413 10.7119 36.2853 11.1199 35.0773 11.1199C33.8613 11.1199 32.8973 10.7119 32.1853 9.89592C31.4733 9.07992 31.1173 8.03592 31.1173 6.76392ZM32.1013 6.76392C32.1013 7.81992 32.3533 8.67192 32.8573 9.31992C33.3693 9.95992 34.1093 10.2799 35.0773 10.2799C36.0373 10.2799 36.7693 9.95992 37.2733 9.31992C37.7773 8.67192 38.0293 7.81992 38.0293 6.76392C38.0293 5.71592 37.7773 4.87192 37.2733 4.23192C36.7693 3.58392 36.0373 3.25992 35.0773 3.25992C34.1093 3.25992 33.3693 3.58392 32.8573 4.23192C32.3533 4.87192 32.1013 5.71592 32.1013 6.76392Z" fill="#56493F"/>
<path d="M45.3639 11.1199C45.1319 11.1279 44.9519 11.0679 44.8239 10.9399C44.6959 10.8119 44.6319 10.6319 44.6319 10.3999V2.53992H45.6159V10.2799L49.8759 10.1599V10.9999L45.3639 11.1199Z" fill="#56493F"/>
<path d="M55.7915 3.37992H53.9075V10.1599H55.7915V10.9999H51.0275V10.1599H52.9235V3.37992H51.0275V2.53992H55.7915V3.37992Z" fill="#56493F"/>
<path d="M57.2881 10.9999V2.53992H59.2681L63.4921 10.7239H63.7681L63.6121 10.0159V2.53992H64.5841V10.9999H62.6041L58.3921 2.81592H58.1161L58.2721 3.52392V10.9999H57.2881Z" fill="#56493F"/>
<path d="M72.9741 2.53992L67.8141 6.76392L72.9741 10.9999H71.5581L67.1901 7.39992V10.9999H66.2061V2.53992H67.1901V6.13992L71.5581 2.53992H72.9741Z" fill="#56493F"/>
<path d="M78.8652 5.50392L83.5452 5.47992V10.1839L82.6932 10.2319L82.7052 6.93192L78.9372 10.6879L78.3372 10.0879L82.0932 6.33192L78.8052 6.34392L78.8652 5.50392Z" fill="#56493F"/>
</g>
<defs>
<clipPath id="clip0_169_2335">
<rect width="85" height="16" fill="white"/>
</clipPath>
</defs>
</svg>
