<svg width="18" height="18" viewBox="0 0 18 18" fill="none" xmlns="http://www.w3.org/2000/svg">
<path d="M16.3765 3.47759C15.7989 2.66462 14.7326 2.33301 12.6962 2.33301H5.30417C3.22118 2.33301 2.13682 2.68602 1.56145 3.55154C1.00049 4.39543 1.00049 5.63884 1.00049 7.35975V10.6398C1.00049 13.9737 1.66607 15.6665 5.30417 15.6665H12.6963C14.4622 15.6665 15.4408 15.3739 16.0739 14.6564C16.7231 13.9207 17.0001 12.7195 17.0001 10.6398V7.35975C17.0001 5.54491 16.9567 4.29416 16.3765 3.47759ZM11.2723 9.45261L7.91556 11.53C7.84052 11.5765 7.75846 11.5995 7.6765 11.5995C7.5837 11.5995 7.49111 11.5699 7.4091 11.5111C7.25468 11.4003 7.16038 11.2021 7.16038 10.9883V6.84687C7.16038 6.63345 7.25442 6.43543 7.40853 6.32457C7.5627 6.2137 7.75443 6.20612 7.91438 6.30452L11.2711 8.36854C11.4419 8.47353 11.5491 8.68231 11.5494 8.91009C11.5496 9.13805 11.4428 9.34713 11.2723 9.45261Z" fill="#56493F"/>
</svg>
